<svg version="1.1" xmlns="http://www.w3.org/2000/svg" xmlns:xlink="http://www.w3.org/1999/xlink" width="38.55922" height="48.80351" viewBox="0,0,38.55922,48.80351"><g transform="translate(-220.72039,-155.59826)"><g data-paper-data="{&quot;isPaintingLayer&quot;:true}" fill="#00c7ff" fill-rule="nonzero" stroke="#000000" stroke-width="0" stroke-linecap="square" stroke-linejoin="miter" stroke-miterlimit="10" stroke-dasharray="" stroke-dashoffset="0" style="mix-blend-mode: normal"><path d="M246.49003,166.28784c-3.90258,0 -6.89317,1.18772 -8.9717,3.56324c-2.07857,2.37548 -3.11781,5.74785 -3.11781,10.11707c0,4.41161 1.14533,7.80516 3.43598,10.18067c2.29065,2.37548 5.38729,3.56324 9.28987,3.56324c2.07857,0 3.83897,-0.27573 5.28125,-0.82716c1.44228,-0.55147 2.8209,-1.18776 4.13592,-1.90888c0.89081,0.72112 1.56953,1.56949 2.03613,2.54517c0.46664,0.97563 0.69994,2.12096 0.69994,3.43598c0,2.07853 -1.14533,3.83897 -3.43598,5.28125c-2.29065,1.44224 -5.79024,2.16335 -10.4988,2.16335c-3.39354,0 -6.59622,-0.4666 -9.60799,-1.3998c-2.96938,-0.97568 -5.57815,-2.46034 -7.82637,-4.45405c-2.20583,-1.99374 -3.96623,-4.51765 -5.2812,-7.57186c-1.27258,-3.09664 -1.90888,-6.76591 -1.90888,-11.00783c0,-3.94501 0.61508,-7.42342 1.84527,-10.43519c1.23015,-3.01181 2.92694,-5.55698 5.09034,-7.63551c2.16339,-2.07857 4.68735,-3.6481 7.5719,-4.70856c2.88451,-1.0605 5.98115,-1.59071 9.28987,-1.59071c4.62374,0 8.20819,0.76355 10.75336,2.29065c2.5876,1.48467 3.8814,3.43598 3.8814,5.85389c0,1.31498 -0.33934,2.4603 -1.01807,3.43598c-0.63629,0.9332 -1.37863,1.67558 -2.227,2.22704c-1.31498,-0.84842 -2.73604,-1.56953 -4.26314,-2.16339c-1.48467,-0.63629 -3.20268,-0.95442 -5.15395,-0.95442z"/></g></g></svg>