<svg version="1.1" xmlns="http://www.w3.org/2000/svg" xmlns:xlink="http://www.w3.org/1999/xlink" width="37.66841" height="46.25849" viewBox="0,0,37.66841,46.25849"><g transform="translate(-221.16581,-156.87075)"><g data-paper-data="{&quot;isPaintingLayer&quot;:true}" fill="#00c7ff" fill-rule="nonzero" stroke="#000000" stroke-width="0" stroke-linecap="square" stroke-linejoin="miter" stroke-miterlimit="10" stroke-dasharray="" stroke-dashoffset="0" style="mix-blend-mode: normal"><path d="M241.97238,167.75132h-18.70699c-0.33934,-0.5939 -0.67873,-1.35745 -1.01807,-2.29065c-0.29695,-0.97568 -0.44538,-1.99374 -0.44538,-3.0542c0,-1.99374 0.44542,-3.41476 1.33623,-4.26314c0.89081,-0.84842 2.05735,-1.27258 3.49963,-1.27258h28.31502c2.20579,1.82401 3.30872,4.24192 3.30872,7.25373c0,1.27258 -0.29695,2.54517 -0.89081,3.81775c-0.55147,1.23015 -1.27258,2.39669 -2.16339,3.49963l-17.30715,20.80677h19.47054c0.33934,0.55143 0.65751,1.31498 0.95446,2.29065c0.33934,0.97563 0.50903,1.9937 0.50903,3.0542c0,1.95127 -0.44538,3.37237 -1.33619,4.26318c-0.89081,0.84838 -2.03613,1.27258 -3.43598,1.27258h-29.96934c-0.84838,-0.72116 -1.54832,-1.67558 -2.09974,-2.86329c-0.55147,-1.23019 -0.82716,-2.63003 -0.82716,-4.19953c0,-1.27258 0.31817,-2.56639 0.95446,-3.88136c0.67873,-1.31502 1.46349,-2.52395 2.3543,-3.62685z" data-paper-data="{&quot;index&quot;:null}"/></g></g></svg>