<svg version="1.1" xmlns="http://www.w3.org/2000/svg" xmlns:xlink="http://www.w3.org/1999/xlink" width="36.77752" height="51.79427" viewBox="0,0,36.77752,51.79427"><g transform="translate(-221.61124,-166.85286)"><g data-paper-data="{&quot;isPaintingLayer&quot;:true}" fill="#00c7ff" fill-rule="nonzero" stroke="#000000" stroke-width="0" stroke-linecap="square" stroke-linejoin="miter" stroke-miterlimit="10" stroke-dasharray="" stroke-dashoffset="0" style="mix-blend-mode: normal"><path d="M241.27248,166.85286c2.88455,0 5.49333,0.36056 7.82641,1.08172c2.37552,0.72116 4.36922,1.67558 5.98115,2.86334c1.01807,0.72116 1.82405,1.50588 2.41791,2.3543c0.5939,0.84842 0.89081,1.95131 0.89081,3.30872v26.59701c0,2.71486 -0.50903,5.04795 -1.5271,6.99921c-1.01807,1.95131 -2.39669,3.56324 -4.13588,4.83582c-1.73919,1.27258 -3.79654,2.20583 -6.17201,2.79969c-2.33304,0.63629 -4.85704,0.95446 -7.57186,0.95446c-4.5813,0 -8.20815,-0.61508 -10.88058,-1.84523c-2.62999,-1.23015 -3.94501,-3.24507 -3.94501,-6.04476c0,-1.18772 0.2333,-2.227 0.69994,-3.11781c0.50903,-0.84838 1.0605,-1.50588 1.65436,-1.97249c1.48471,0.80598 3.13907,1.48471 4.96308,2.03613c1.86648,0.55147 3.79654,0.8272 5.79028,0.8272c2.71486,0 4.87825,-0.4666 6.49018,-1.39984c1.65436,-0.89081 2.48156,-2.33304 2.48156,-4.32679v-1.27258c-2.07853,0.93324 -4.6237,1.39984 -7.63551,1.39984c-2.24822,0 -4.41161,-0.33934 -6.49018,-1.01807c-2.03613,-0.67868 -3.83897,-1.73919 -5.40846,-3.18146c-1.5271,-1.44224 -2.75725,-3.30872 -3.69049,-5.59937c-0.9332,-2.29065 -1.39984,-5.00547 -1.39984,-8.14454c0,-3.09659 0.48782,-5.76902 1.46349,-8.01728c0.97568,-2.29065 2.33308,-4.17831 4.07227,-5.66298c1.78162,-1.5271 3.86019,-2.65121 6.23566,-3.37233c2.41791,-0.72112 5.04795,-1.08168 7.89002,-1.08168zM245.98104,177.86071c-0.33934,-0.21208 -0.86959,-0.40299 -1.59071,-0.57264c-0.67868,-0.21208 -1.50588,-0.31813 -2.48152,-0.31813c-2.50274,0 -4.36918,0.69994 -5.59937,2.09978c-1.23015,1.35745 -1.84523,3.32994 -1.84523,5.91754c0,2.92694 0.61508,5.04795 1.84527,6.36292c1.23019,1.27258 2.79969,1.90888 4.70856,1.90888c2.07857,0 3.73293,-0.4666 4.96308,-1.39984z"/></g></g></svg>