<svg version="1.1" xmlns="http://www.w3.org/2000/svg" xmlns:xlink="http://www.w3.org/1999/xlink" width="38.05037" height="51.41246" viewBox="0,0,38.05037,51.41246"><g transform="translate(-220.97483,-152.04377)"><g data-paper-data="{&quot;isPaintingLayer&quot;:true}" fill="#00c7ff" fill-rule="nonzero" stroke="#000000" stroke-width="0" stroke-linecap="square" stroke-linejoin="miter" stroke-miterlimit="10" stroke-dasharray="" stroke-dashoffset="0" style="mix-blend-mode: normal"><path d="M220.97484,183.79468c0,-3.35115 0.50903,-6.25688 1.5271,-8.71718c1.01807,-2.46034 2.41791,-4.49648 4.19953,-6.1084c1.82405,-1.61197 3.92379,-2.79969 6.29931,-3.56324c2.41791,-0.80598 5.02673,-1.20893 7.82641,-1.20893c1.01807,0 1.99374,0.08483 2.92694,0.25452c0.97568,0.16965 1.7604,0.38178 2.3543,0.63629v-12.28042c0.50903,-0.16969 1.31502,-0.33938 2.41791,-0.50903c1.14533,-0.16969 2.29065,-0.25452 3.43598,-0.25452c1.10293,0 2.09978,0.08483 2.99059,0.25452c0.89081,0.12726 1.63314,0.42417 2.22704,0.89081c0.63629,0.42417 1.10293,1.03928 1.39984,1.84527c0.29695,0.76355 0.44542,1.78162 0.44542,3.0542v36.01414c0,2.37548 -1.10289,4.28435 -3.30872,5.72663c-1.48467,0.9332 -3.39354,1.7604 -5.72663,2.48156c-2.33304,0.76355 -5.00547,1.14533 -8.01728,1.14533c-3.30872,0 -6.27806,-0.44538 -8.90809,-1.33619c-2.58756,-0.93324 -4.79339,-2.24826 -6.61744,-3.94501c-1.78162,-1.73923 -3.13903,-3.81775 -4.07227,-6.23566c-0.9332,-2.41791 -1.39984,-5.13277 -1.39984,-8.14454zM242.54517,174.31391c-2.71482,0 -4.8146,0.78477 -6.29927,2.3543c-1.48467,1.56949 -2.227,3.94501 -2.227,7.12647c0,3.13903 0.67873,5.51451 2.03613,7.12647c1.39984,1.56949 3.39359,2.3543 5.98115,2.3543c0.89081,0 1.69679,-0.12726 2.41791,-0.38178c0.76355,-0.29695 1.33623,-0.61508 1.71801,-0.95442v-16.73446c-0.97563,-0.5939 -2.18461,-0.89081 -3.62685,-0.89081z"/></g></g></svg>