<svg version="1.1" xmlns="http://www.w3.org/2000/svg" xmlns:xlink="http://www.w3.org/1999/xlink" width="45.17687" height="47.02184" viewBox="0,0,45.17687,47.02184"><g transform="translate(-217.41156,-156.48908)"><g data-paper-data="{&quot;isPaintingLayer&quot;:true}" fill="#00c7ff" fill-rule="nonzero" stroke="#000000" stroke-width="0" stroke-linecap="square" stroke-linejoin="miter" stroke-miterlimit="10" stroke-dasharray="" stroke-dashoffset="0" style="mix-blend-mode: normal"><path d="M248.65341,201.22023c-0.72112,0.5939 -1.82401,1.12411 -3.30872,1.59075c-1.48467,0.46664 -3.11781,0.69994 -4.89943,0.69994c-2.12096,0 -3.94501,-0.31813 -5.47211,-0.95442c-1.5271,-0.63629 -2.56639,-1.50588 -3.11781,-2.60878c-0.55147,-1.18772 -1.23015,-2.69364 -2.03613,-4.51765c-0.80598,-1.86644 -1.65436,-3.92379 -2.54517,-6.17201c-0.89081,-2.29065 -1.80283,-4.70856 -2.73604,-7.25373c-0.93324,-2.58756 -1.84523,-5.19638 -2.73604,-7.82637c-0.84838,-2.62999 -1.65436,-5.19638 -2.41791,-7.69911c-0.76355,-2.54517 -1.42106,-4.94186 -1.97249,-7.19008c0.72112,-0.72112 1.73919,-1.35741 3.0542,-1.90888c1.35741,-0.59386 2.79969,-0.89081 4.32679,-0.89081c1.86644,0 3.39354,0.40299 4.5813,1.20898c1.18776,0.76355 2.07857,2.20583 2.67243,4.32679c1.35741,4.96308 2.71486,9.71407 4.07227,14.25294c1.39984,4.53891 2.86334,9.26865 4.39044,14.18934h0.44542c1.39984,-4.79339 2.8209,-9.98977 4.26318,-15.58914c1.44228,-5.64176 2.8209,-11.24113 4.13592,-16.79811c0.89081,-0.4666 1.84527,-0.84838 2.86334,-1.14533c1.0605,-0.29691 2.24826,-0.44538 3.56324,-0.44538c1.86648,0 3.45719,0.42421 4.77221,1.27258c1.35745,0.80598 2.03613,2.18461 2.03613,4.13592c0,1.10293 -0.27573,2.71486 -0.82716,4.83582c-0.55143,2.121 -1.25137,4.51769 -2.09974,7.19012c-0.80594,2.67243 -1.73919,5.4509 -2.79969,8.33545c-1.01807,2.88455 -2.05735,5.59937 -3.11781,8.14454c-1.01807,2.54517 -1.9937,4.79343 -2.92694,6.7447c-0.89081,1.95131 -1.61193,3.30872 -2.16339,4.07227z"/></g></g></svg>