<svg version="1.1" xmlns="http://www.w3.org/2000/svg" xmlns:xlink="http://www.w3.org/1999/xlink" width="34.80516" height="48.54924" viewBox="0,0,34.80516,48.54924"><g transform="translate(-222.59742,-155.72538)"><g data-paper-data="{&quot;isPaintingLayer&quot;:true}" fill="#00c7ff" fill-rule="nonzero" stroke="#000000" stroke-width="0" stroke-linecap="square" stroke-linejoin="miter" stroke-miterlimit="10" stroke-dasharray="" stroke-dashoffset="0" style="mix-blend-mode: normal"><path d="M238.37739,155.72538c5.85389,0 10.28672,1.20898 13.29853,3.62689c3.0542,2.41791 4.5813,5.64176 4.5813,9.67164c0,2.41791 -0.65751,4.47526 -1.97249,6.17205c-1.27258,1.69675 -2.79969,2.99059 -4.5813,3.8814c1.06046,0.38178 2.03613,0.89081 2.92694,1.5271c0.9332,0.59386 1.7604,1.35741 2.48156,2.29065c0.72112,0.89081 1.27258,1.95127 1.65436,3.18146c0.42417,1.18772 0.63629,2.58756 0.63629,4.19953c0,2.20579 -0.46664,4.17831 -1.39984,5.91754c-0.93324,1.69675 -2.24826,3.16024 -3.94501,4.39044c-1.65436,1.18772 -3.6481,2.09978 -5.98115,2.73608c-2.29065,0.63629 -4.79343,0.95446 -7.50825,0.95446c-5.30246,0 -9.28987,-0.72116 -11.96229,-2.16339c-2.67243,-1.48471 -4.00862,-3.37233 -4.00862,-5.66298c0,-1.35745 0.31817,-2.52395 0.95446,-3.49959c0.67868,-1.01807 1.50588,-1.80283 2.48156,-2.35426c0.97563,0.72112 2.31187,1.48467 4.00866,2.29065c1.69675,0.76355 3.92379,1.14533 6.68109,1.14533c2.58756,0 4.49644,-0.44538 5.72663,-1.33619c1.23015,-0.93324 1.84527,-2.14218 1.84527,-3.62685c0,-1.44228 -0.48782,-2.54517 -1.46345,-3.30872c-0.97568,-0.76355 -2.69364,-1.14533 -5.15395,-1.14533h-7.12647c-0.33938,-0.55147 -0.63629,-1.23019 -0.89081,-2.03613c-0.25452,-0.80598 -0.38178,-1.78162 -0.38178,-2.92694c0,-1.14533 0.10604,-2.14218 0.31817,-2.99055c0.25452,-0.84842 0.57268,-1.54832 0.95446,-2.09974h7.12647c3.64806,0 5.47211,-1.37863 5.47211,-4.13588c0,-1.31502 -0.57264,-2.37552 -1.71797,-3.18146c-1.14533,-0.84842 -2.88455,-1.27258 -5.2176,-1.27258c-2.07857,0 -3.90262,0.25452 -5.47211,0.76355c-1.56953,0.4666 -2.86329,1.06046 -3.88136,1.78162c-0.89081,-0.63629 -1.61197,-1.37863 -2.16339,-2.227c-0.55147,-0.89081 -0.82716,-1.95131 -0.82716,-3.18146c0,-2.54517 1.31498,-4.41165 3.94501,-5.59937c2.62999,-1.18776 6.1508,-1.78162 10.56245,-1.78162z"/></g></g></svg>