<svg version="1.1" xmlns="http://www.w3.org/2000/svg" xmlns:xlink="http://www.w3.org/1999/xlink" width="38.36855" height="51.41255" viewBox="0,0,38.36855,51.41255"><g transform="translate(-220.81575,-152.04372)"><g data-paper-data="{&quot;isPaintingLayer&quot;:true}" fill="#00c7ff" fill-rule="nonzero" stroke="#000000" stroke-width="0" stroke-linecap="square" stroke-linejoin="miter" stroke-miterlimit="10" stroke-dasharray="" stroke-dashoffset="0" style="mix-blend-mode: normal"><path d="M220.81575,152.80727c0.50903,-0.16965 1.31498,-0.33934 2.41791,-0.50903c1.14533,-0.16965 2.29065,-0.25452 3.43598,-0.25452c1.14533,0 2.14218,0.08487 2.99059,0.25452c0.89081,0.12726 1.63314,0.42421 2.22704,0.89081c0.63629,0.42421 1.10289,1.03928 1.39984,1.84527c0.29691,0.76355 0.44542,1.78162 0.44542,3.0542v7.44464c1.27258,-0.50903 2.48156,-0.84838 3.62689,-1.01807c1.14533,-0.21208 2.39669,-0.31813 3.75414,-0.31813c2.4603,0 4.77221,0.42421 6.93561,1.27258c2.16339,0.84842 4.07227,2.09978 5.72663,3.75414c1.69675,1.65436 3.01177,3.71171 3.94501,6.17205c0.97563,2.41791 1.46349,5.2176 1.46349,8.39906c0,3.26629 -0.48782,6.12962 -1.46345,8.58996c-0.97568,2.4603 -2.35426,4.51769 -4.13588,6.17205c-1.78162,1.61193 -3.94501,2.84208 -6.49018,3.69049c-2.54517,0.80594 -5.36607,1.20898 -8.46267,1.20898c-3.35115,0 -6.19327,-0.40299 -8.52632,-1.20893c-2.33308,-0.76355 -4.30557,-1.71797 -5.9175,-2.86329c-2.24826,-1.56953 -3.37233,-3.60567 -3.37233,-6.1084zM238.63194,193.27545c2.33304,0 4.13592,-0.78477 5.4085,-2.35426c1.31498,-1.61197 1.97253,-3.98744 1.97253,-7.12647c0,-3.18146 -0.65751,-5.55698 -1.97249,-7.12647c-1.31502,-1.56953 -3.09664,-2.35426 -5.34485,-2.35426c-1.01807,0 -1.88766,0.10604 -2.60878,0.31817c-0.72116,0.16965 -1.5271,0.4666 -2.41791,0.89081v16.5436c0.55143,0.33934 1.20898,0.63629 1.97253,0.89081c0.80594,0.21208 1.80283,0.31817 2.99059,0.31817z"/></g></g></svg>