<svg version="1.1" xmlns="http://www.w3.org/2000/svg" xmlns:xlink="http://www.w3.org/1999/xlink" width="36.33238" height="50.83969" viewBox="0,0,36.33238,50.83969"><g transform="translate(-221.83381,-152.33015)"><g data-paper-data="{&quot;isPaintingLayer&quot;:true}" fill="#00c7ff" fill-rule="nonzero" stroke="#000000" stroke-width="0" stroke-linecap="square" stroke-linejoin="miter" stroke-miterlimit="10" stroke-dasharray="" stroke-dashoffset="0" style="mix-blend-mode: normal"><path d="M258.16588,202.46982c-0.50903,0.12726 -1.31498,0.27573 -2.41791,0.44542c-1.06046,0.16969 -2.18461,0.25452 -3.37233,0.25452c-1.10289,0 -2.09974,-0.08483 -2.99055,-0.25452c-0.89081,-0.16969 -1.63314,-0.4666 -2.227,-0.89081c-0.59386,-0.4666 -1.06046,-1.08168 -1.39984,-1.84523c-0.33934,-0.80598 -0.50903,-1.84523 -0.50903,-3.11781v-16.86172c0,-2.07857 -0.53025,-3.5208 -1.59071,-4.32679c-1.01807,-0.84838 -2.29065,-1.27258 -3.81775,-1.27258c-0.97563,0 -1.93009,0.12726 -2.86329,0.38178c-0.89081,0.25452 -1.63314,0.55147 -2.227,0.89081v26.59701c-0.4666,0.12726 -1.25137,0.27573 -2.35426,0.44542c-1.10289,0.16969 -2.227,0.25452 -3.37233,0.25452c-1.14533,0 -2.16339,-0.08483 -3.0542,-0.25452c-0.84838,-0.16969 -1.59071,-0.4666 -2.227,-0.89081c-0.59386,-0.4666 -1.06046,-1.08168 -1.39984,-1.84523c-0.33934,-0.80598 -0.50903,-1.84523 -0.50903,-3.11781v-44.03142c0.5939,-0.12726 1.42106,-0.27573 2.48156,-0.44538c1.10293,-0.16969 2.20583,-0.25452 3.30872,-0.25452c1.10293,0 2.09978,0.08483 2.99059,0.25452c0.89081,0.12726 1.63314,0.42421 2.22704,0.89081c0.63629,0.42421 1.10293,1.03928 1.39984,1.84527c0.33938,0.76355 0.50903,1.78162 0.50903,3.0542v7.44464c0.67873,-0.25452 1.67558,-0.53025 2.99059,-0.82716c1.35745,-0.33934 2.84212,-0.50903 4.45405,-0.50903c5.04795,0 8.97174,1.25137 11.77143,3.75414c2.79969,2.50274 4.19953,6.23566 4.19953,11.19874z"/></g></g></svg>