<svg version="1.1" xmlns="http://www.w3.org/2000/svg" xmlns:xlink="http://www.w3.org/1999/xlink" width="41.99549" height="47.14943" viewBox="0,0,41.99549,47.14943"><g transform="translate(-219.00226,-156.42529)"><g data-paper-data="{&quot;isPaintingLayer&quot;:true}" fill="#00c7ff" fill-rule="nonzero" stroke="#000000" stroke-width="0" stroke-linecap="square" stroke-linejoin="miter" stroke-miterlimit="10" stroke-dasharray="" stroke-dashoffset="0" style="mix-blend-mode: normal"><path d="M219.00227,162.53361c0.25452,-0.72112 0.61508,-1.42106 1.08172,-2.09974c0.4666,-0.72112 1.03928,-1.37863 1.71801,-1.97249c0.67873,-0.59386 1.46349,-1.08168 2.3543,-1.46345c0.93324,-0.38178 1.95131,-0.57264 3.0542,-0.57264c1.48467,0 2.77847,0.38178 3.8814,1.14533c1.14533,0.72116 2.29065,1.97253 3.43598,3.75414l5.9175,9.03535l8.71722,-12.91671c0.42421,-0.21208 0.99685,-0.40299 1.71801,-0.57264c0.76355,-0.16965 1.48471,-0.25452 2.16339,-0.25452c2.33308,0 4.15714,0.55147 5.47211,1.65436c1.31502,1.10293 1.97253,2.46034 1.97253,4.07227c0,1.44228 -0.36056,2.71486 -1.08168,3.81775c-0.72112,1.10293 -1.71797,2.43913 -2.99055,4.00866l-7.82637,9.60803l12.40772,17.68892c-0.42417,1.86648 -1.31498,3.35115 -2.67243,4.45405c-1.31498,1.10293 -3.11781,1.65436 -5.40846,1.65436c-1.48467,0 -2.75725,-0.36056 -3.81775,-1.08168c-1.06046,-0.76355 -2.14218,-2.03613 -3.24507,-3.81775l-6.17201,-9.73525l-9.54438,14.44385c-0.42421,0.04243 -0.80598,0.08487 -1.14533,0.12726c-0.33934,0.04243 -0.6999,0.06365 -1.08168,0.06365c-2.88451,0 -5.00551,-0.57264 -6.36292,-1.71797c-1.35741,-1.18772 -2.03613,-2.65121 -2.03613,-4.3904c0,-1.48467 0.29695,-2.75725 0.89081,-3.81775c0.63629,-1.10289 1.54832,-2.39669 2.73608,-3.88136l7.95367,-10.24428z"/></g></g></svg>