<svg version="1.1" xmlns="http://www.w3.org/2000/svg" xmlns:xlink="http://www.w3.org/1999/xlink" width="53.13074" height="46.95862" viewBox="0,0,53.13074,46.95862"><g transform="translate(-213.43463,-156.52069)"><g data-paper-data="{&quot;isPaintingLayer&quot;:true}" fill="#00c7ff" fill-rule="nonzero" stroke="#000000" stroke-width="0" stroke-linecap="square" stroke-linejoin="miter" stroke-miterlimit="10" stroke-dasharray="" stroke-dashoffset="0" style="mix-blend-mode: normal"><path d="M246.26717,191.51657c-0.67873,0.55143 -1.54832,0.99685 -2.60878,1.33623c-1.01807,0.33934 -2.20583,0.50903 -3.56324,0.50903c-1.82405,0 -3.32994,-0.2333 -4.51765,-0.6999c-1.18776,-0.46664 -1.95131,-1.25137 -2.29065,-2.35426c-1.44228,-4.45405 -2.63003,-8.05971 -3.56324,-10.81697c-0.89081,-2.75729 -1.59071,-5.1752 -2.09974,-7.25373h-0.38178c-0.12726,2.96934 -0.2333,5.6842 -0.31813,8.14454c-0.08483,2.4603 -0.14847,4.85704 -0.19087,7.19012c0,2.33304 -0.04243,4.68735 -0.12726,7.06286c-0.08483,2.37548 -0.19087,5.00547 -0.31813,7.89002c-0.67873,0.25452 -1.54832,0.4666 -2.60878,0.63629c-1.0605,0.21208 -2.12096,0.31817 -3.18146,0.31817c-2.20583,0 -3.94501,-0.36056 -5.2176,-1.08168c-1.23015,-0.72116 -1.84523,-2.01492 -1.84523,-3.88136l2.22704,-38.75017c0.38178,-0.67873 1.25137,-1.37863 2.60882,-2.09974c1.39984,-0.76355 3.32994,-1.14533 5.79028,-1.14533c2.71486,0 4.8146,0.42417 6.29931,1.27258c1.5271,0.80594 2.65121,2.14218 3.37237,4.00866c0.4666,1.23015 0.95446,2.62999 1.46349,4.19953c0.55143,1.56949 1.08172,3.20268 1.59075,4.89947c0.55143,1.65436 1.08172,3.30872 1.59075,4.96308c0.50903,1.61193 0.95446,3.07542 1.33623,4.39044h0.38178c1.23015,-4.24196 2.43913,-8.33541 3.62689,-12.28042c1.23015,-3.98744 2.3543,-7.3386 3.37237,-10.05342c0.76355,-0.38178 1.73919,-0.6999 2.92694,-0.95442c1.18772,-0.29695 2.52395,-0.44538 4.00866,-0.44538c2.4603,0 4.47526,0.36056 6.0448,1.08172c1.56949,0.72112 2.48156,1.78162 2.73608,3.18146c0.21208,0.97563 0.42417,2.52395 0.63629,4.64495c0.25452,2.12096 0.50903,4.49644 0.76355,7.12647c0.25452,2.62999 0.50903,5.4085 0.76355,8.33545c0.25452,2.92694 0.48782,5.74785 0.69994,8.46271c0.21208,2.71482 0.40299,5.19638 0.57268,7.44464c0.16965,2.24822 0.27573,3.9874 0.31817,5.2176c-0.89081,0.50903 -1.80283,0.86959 -2.73604,1.08172c-0.93324,0.25452 -2.121,0.38178 -3.56324,0.38178c-1.95131,0 -3.58445,-0.31813 -4.89943,-0.95442c-1.31502,-0.67873 -2.01492,-1.99374 -2.09974,-3.94501c-0.29695,-5.51455 -0.48782,-10.47762 -0.57264,-14.88924c-0.08487,-4.41165 -0.21212,-8.10215 -0.38178,-11.07148h-0.38178c-0.46664,1.95127 -1.18776,4.43283 -2.16339,7.44464c-0.97568,2.96934 -2.14218,6.78709 -3.49959,11.45326z"/></g></g></svg>