<svg version="1.1" xmlns="http://www.w3.org/2000/svg" xmlns:xlink="http://www.w3.org/1999/xlink" width="37.09597" height="39.25942" viewBox="0,0,37.09597,39.25942"><g transform="translate(-221.45203,-164.12029)"><g data-paper-data="{&quot;isPaintingLayer&quot;:true}" fill="#00c7ff" fill-rule="nonzero" stroke="#000000" stroke-width="0" stroke-linecap="square" stroke-linejoin="miter" stroke-miterlimit="10" stroke-dasharray="" stroke-dashoffset="0" style="mix-blend-mode: normal"><path d="M242.57686,203.37941c-2.96934,0 -5.74785,-0.40299 -8.33541,-1.20893c-2.54517,-0.84842 -4.77217,-2.09974 -6.68105,-3.7541c-1.90888,-1.69679 -3.41476,-3.81775 -4.51765,-6.36292c-1.06046,-2.54517 -1.59071,-5.51455 -1.59071,-8.90809c0,-3.30872 0.53025,-6.17201 1.59075,-8.58992c1.10293,-2.41791 2.54517,-4.3904 4.32679,-5.9175c1.78162,-1.56953 3.79654,-2.71486 6.0448,-3.43598c2.29065,-0.72116 4.64495,-1.08168 7.06286,-1.08168c2.67243,0 5.11155,0.40299 7.31738,1.20898c2.20583,0.80594 4.09349,1.93009 5.66302,3.37237c1.61197,1.39984 2.86334,3.09659 3.75414,5.09034c0.89081,1.95127 1.33623,4.09349 1.33623,6.42657c0,1.73919 -0.48782,3.07542 -1.46345,4.00866c-0.97563,0.89081 -2.31187,1.44224 -4.00862,1.65436l-18.7706,2.86334c0.55147,1.65436 1.67558,2.90573 3.37237,3.75414c1.73923,0.80594 3.73293,1.20898 5.98115,1.20898c2.07857,0 4.02988,-0.25452 5.85389,-0.76355c1.86648,-0.55147 3.37237,-1.16654 4.51769,-1.84523c0.80598,0.50903 1.48471,1.23015 2.03613,2.16339c0.5939,0.89081 0.89081,1.82401 0.89081,2.79969c0,2.29065 -1.08168,3.9874 -3.24507,5.09034c-1.61193,0.89081 -3.43598,1.48467 -5.47211,1.78162c-1.9937,0.29691 -3.88136,0.44542 -5.66298,0.44542zM240.47712,173.53729c-1.23015,0 -2.29065,0.21208 -3.18146,0.63629c-0.89081,0.38178 -1.61193,0.89081 -2.16339,1.5271c-0.55143,0.63629 -0.97563,1.35741 -1.27258,2.16339c-0.25452,0.76355 -0.42417,1.54832 -0.50903,2.3543l13.04401,-2.09974c-0.16965,-1.01807 -0.74233,-2.03613 -1.71797,-3.0542c-0.9332,-1.01807 -2.33304,-1.5271 -4.19953,-1.5271z"/></g></g></svg>