<svg version="1.1" xmlns="http://www.w3.org/2000/svg" xmlns:xlink="http://www.w3.org/1999/xlink" width="301.27086" height="113.97597" viewBox="0,0,301.27086,113.97597"><g transform="translate(-89.36457,-123.01203)"><g data-paper-data="{&quot;isPaintingLayer&quot;:true}" fill-rule="nonzero" stroke-width="1" stroke-linecap="butt" stroke-linejoin="miter" stroke-miterlimit="10" stroke-dasharray="" stroke-dashoffset="0" style="mix-blend-mode: normal"><text transform="translate(102.21687,193.58999) rotate(1.75098) scale(1.10672,1.10672)" font-size="40" xml:space="preserve" fill="#ffffff" fill-rule="nonzero" stroke="none" stroke-width="1" stroke-linecap="butt" stroke-linejoin="miter" stroke-miterlimit="10" stroke-dasharray="" stroke-dashoffset="0" font-family="Pixel" font-weight="normal" text-anchor="start" style="mix-blend-mode: normal"><tspan x="0" dy="0">LEMONOIDS</tspan></text><path d="M214.21758,142.59771c3.32438,0.27042 2.62158,4.08045 5.1859,6.73683c5.99813,6.21347 13.20723,15.86892 12.13078,29.10175c-0.90597,11.13719 -9.58889,18.0831 -14.93937,23.93455c-3.72464,4.07339 -3.38613,9.00468 -7.942,8.63407c-4.14313,-0.33703 -3.02082,-5.05527 -5.92231,-8.97182c-4.87228,-6.57681 -12.35749,-15.02721 -11.3944,-26.86675c0.98272,-12.08073 11.36352,-19.97224 17.41533,-25.6054c3.41115,-3.17515 1.46462,-7.28874 5.46601,-6.96325z" fill="#ffff00" stroke="#000000"/><path d="M279.03936,146.48838c3.32438,0.27042 2.62158,4.08045 5.1859,6.73683c5.99813,6.21347 13.20723,15.86892 12.13078,29.10175c-0.90597,11.13719 -9.58889,18.0831 -14.93937,23.93455c-3.72464,4.07339 -3.38613,9.00468 -7.942,8.63407c-4.14313,-0.33703 -3.02082,-5.05527 -5.92231,-8.97182c-4.87229,-6.57682 -12.35749,-15.02721 -11.3944,-26.86675c0.98272,-12.08074 11.36351,-19.97224 17.41533,-25.6054c3.41115,-3.17515 1.46462,-7.28874 5.46601,-6.96325z" fill="#ffff00" stroke="#000000"/><path d="M89.87894,227.95502l0.37924,-12.99447l291.87572,8.51861l-0.37924,12.99446z" fill="#ffff00" stroke="#000000"/><path d="M97.86609,136.52086l0.37924,-12.99446l291.87572,8.5186l-0.37925,12.99447z" fill="#ffff00" stroke="#000000"/></g></g></svg>