<svg version="1.1" xmlns="http://www.w3.org/2000/svg" xmlns:xlink="http://www.w3.org/1999/xlink" width="23.92464" height="47.34019" viewBox="0,0,23.92464,47.34019"><g transform="translate(-228.03768,-156.32991)"><g data-paper-data="{&quot;isPaintingLayer&quot;:true}" fill="#00c7ff" fill-rule="nonzero" stroke="#000000" stroke-width="0" stroke-linecap="square" stroke-linejoin="miter" stroke-miterlimit="10" stroke-dasharray="" stroke-dashoffset="0" style="mix-blend-mode: normal"><path d="M239.04552,169.11936l-7.57186,2.3543c-0.76355,-0.46664 -1.5271,-1.14533 -2.29065,-2.03613c-0.76355,-0.93324 -1.14533,-2.22704 -1.14533,-3.8814c0,-3.01177 1.84527,-5.13273 5.53576,-6.36292l8.52632,-2.86329h2.79969c2.16339,0 3.8814,0.63629 5.15399,1.90888c1.27258,1.23019 1.90888,2.94816 1.90888,5.15399v39.57737c-0.55143,0.08483 -1.37863,0.21208 -2.48152,0.38178c-1.06046,0.21208 -2.16339,0.31817 -3.30872,0.31817c-1.10289,0 -2.09974,-0.08487 -2.99055,-0.25452c-0.89081,-0.16969 -1.63314,-0.46664 -2.227,-0.89081c-0.59386,-0.46664 -1.06046,-1.08168 -1.39984,-1.84523c-0.33934,-0.80598 -0.50903,-1.84523 -0.50903,-3.11781z"/></g></g></svg>