<svg version="1.1" xmlns="http://www.w3.org/2000/svg" xmlns:xlink="http://www.w3.org/1999/xlink" width="37.09571" height="48.67642" viewBox="0,0,37.09571,48.67642"><g transform="translate(-221.45214,-155.66179)"><g data-paper-data="{&quot;isPaintingLayer&quot;:true}" fill="#00c7ff" fill-rule="nonzero" stroke="#000000" stroke-width="0" stroke-linecap="square" stroke-linejoin="miter" stroke-miterlimit="10" stroke-dasharray="" stroke-dashoffset="0" style="mix-blend-mode: normal"><path d="M222.53368,169.34206c0,-2.03613 0.42417,-3.88136 1.27258,-5.53572c0.84838,-1.69675 2.03613,-3.13903 3.56324,-4.32679c1.5271,-1.23015 3.35111,-2.16339 5.47211,-2.79969c2.12096,-0.67868 4.45405,-1.01807 6.99921,-1.01807c2.54517,0 4.87821,0.31817 6.99921,0.95446c2.12096,0.5939 3.94501,1.44228 5.47211,2.54517c1.5271,1.10293 2.71482,2.48156 3.56324,4.13592c0.84838,1.61197 1.27258,3.41476 1.27258,5.4085c0,2.24826 -0.46664,4.22074 -1.39984,5.91754c-0.89081,1.65436 -2.14218,3.03299 -3.7541,4.13584c1.90888,1.31498 3.47837,2.88451 4.70856,4.70856c1.23015,1.78162 1.84527,4.17831 1.84527,7.19012c0,2.03613 -0.44538,3.90258 -1.33619,5.59937c-0.84842,1.65436 -2.07857,3.09659 -3.69049,4.32679c-1.61197,1.18772 -3.56324,2.09978 -5.85389,2.73608c-2.29065,0.67868 -4.85704,1.01807 -7.69911,1.01807c-2.84212,0 -5.40846,-0.33938 -7.69911,-1.01807c-2.24826,-0.63629 -4.17831,-1.54832 -5.79024,-2.73604c-1.56953,-1.23019 -2.79969,-2.67243 -3.69049,-4.32679c-0.89081,-1.69679 -1.33619,-3.56324 -1.33619,-5.59937c0,-2.71486 0.59386,-4.9843 1.78162,-6.80831c1.18772,-1.82405 2.58756,-3.24507 4.19953,-4.26314c-1.35745,-1.10293 -2.52395,-2.41791 -3.49959,-3.94497c-0.93324,-1.56949 -1.39984,-3.66928 -1.39984,-6.29927zM234.43237,189.51246c0,1.56949 0.50903,2.8209 1.5271,3.75414c1.06046,0.89081 2.39669,1.33623 4.00866,1.33623c1.65436,0 2.99059,-0.46664 4.00866,-1.39984c1.01807,-0.93324 1.5271,-2.16339 1.5271,-3.69049c0,-1.44228 -0.44538,-2.65121 -1.33619,-3.62685c-0.84842,-1.01807 -2.03613,-1.80283 -3.56324,-2.35426c-2.24826,0.50903 -3.83897,1.2938 -4.77217,2.3543c-0.93324,1.01807 -1.39984,2.22704 -1.39984,3.62689zM244.48578,169.78744c0,-1.35741 -0.40299,-2.43913 -1.20893,-3.24507c-0.80598,-0.80594 -1.95131,-1.20893 -3.43598,-1.20893c-1.48471,0 -2.63003,0.40299 -3.43598,1.20898c-0.80598,0.80598 -1.20893,1.86648 -1.20893,3.18146c0,1.31502 0.42417,2.37552 1.27258,3.18146c0.84838,0.80598 1.82401,1.46349 2.92694,1.97253c1.78162,-0.42417 3.07542,-1.08168 3.8814,-1.97249c0.80594,-0.9332 1.20898,-1.97249 1.20898,-3.11781z"/></g></g></svg>