<svg version="1.1" xmlns="http://www.w3.org/2000/svg" xmlns:xlink="http://www.w3.org/1999/xlink" width="43.96797" height="48.54903" viewBox="0,0,43.96797,48.54903"><g transform="translate(-218.01602,-155.72549)"><g data-paper-data="{&quot;isPaintingLayer&quot;:true}" fill="#00c7ff" fill-rule="nonzero" stroke="#000000" stroke-width="0" stroke-linecap="square" stroke-linejoin="miter" stroke-miterlimit="10" stroke-dasharray="" stroke-dashoffset="0" style="mix-blend-mode: normal"><path d="M261.98371,195.55725c0,1.56953 -0.27573,2.73608 -0.82716,3.49963c-0.55143,0.76355 -1.44224,1.48471 -2.67243,2.16339c-0.72112,0.42421 -1.61193,0.8272 -2.67243,1.20898c-1.06046,0.38178 -2.227,0.69994 -3.49959,0.95446c-1.23015,0.29695 -2.54517,0.50903 -3.94501,0.63629c-1.39984,0.16969 -2.77847,0.25452 -4.13588,0.25452c-3.64806,0 -7.08404,-0.48782 -10.30793,-1.46345c-3.18146,-0.97563 -5.95993,-2.4603 -8.33541,-4.45405c-2.33308,-2.03613 -4.17831,-4.53887 -5.53572,-7.50825c-1.35741,-3.01177 -2.03613,-6.49018 -2.03613,-10.43519c0,-4.1571 0.74233,-7.76276 2.22704,-10.81697c1.48467,-3.09659 3.45719,-5.66298 5.91754,-7.69911c2.46034,-2.07853 5.26003,-3.62685 8.39906,-4.64491c3.18146,-1.01807 6.44775,-1.5271 9.7989,-1.5271c4.83582,0 8.65357,0.78477 11.45326,2.3543c2.79969,1.5271 4.19953,3.52084 4.19953,5.98115c0,1.35745 -0.33934,2.52395 -1.01807,3.49963c-0.63629,0.93324 -1.37863,1.67558 -2.227,2.22704c-1.27258,-0.76355 -2.86329,-1.50588 -4.77217,-2.227c-1.90888,-0.76355 -4.05105,-1.14533 -6.42653,-1.14533c-4.24192,0 -7.61429,1.23019 -10.11703,3.69049c-2.50274,2.41791 -3.7541,5.79028 -3.7541,10.11707c0,2.33308 0.33934,4.348 1.01807,6.0448c0.67873,1.69679 1.59075,3.09664 2.73604,4.19953c1.18776,1.0605 2.54517,1.86648 4.07227,2.41791c1.5271,0.50903 3.13907,0.76355 4.83582,0.76355c1.10293,0 2.07857,-0.10604 2.92694,-0.31813c0.89081,-0.21208 1.56953,-0.44538 2.03613,-0.6999v-7.12647h-8.14454c-0.29691,-0.55143 -0.59386,-1.27258 -0.89081,-2.16339c-0.25452,-0.9332 -0.38178,-1.90888 -0.38178,-2.92694c0,-1.82401 0.40299,-3.13903 1.20898,-3.94501c0.84842,-0.80594 1.93009,-1.20893 3.24511,-1.20893h12.8531c1.5271,0 2.69364,0.42421 3.49963,1.27258c0.84842,0.80598 1.27258,1.97253 1.27258,3.49963z"/></g></g></svg>