<svg version="1.1" xmlns="http://www.w3.org/2000/svg" xmlns:xlink="http://www.w3.org/1999/xlink" width="25.89711" height="38.62284" viewBox="0,0,25.89711,38.62284"><g transform="translate(-227.05146,-164.18858)"><g data-paper-data="{&quot;isPaintingLayer&quot;:true}" fill="#00c7ff" fill-rule="nonzero" stroke="#000000" stroke-width="0" stroke-linecap="square" stroke-linejoin="miter" stroke-miterlimit="10" stroke-dasharray="" stroke-dashoffset="0" style="mix-blend-mode: normal"><path d="M239.96812,202.11148c-0.50903,0.12726 -1.31498,0.27573 -2.41791,0.44542c-1.06046,0.16969 -2.18461,0.25452 -3.37233,0.25452c-1.10289,0 -2.09974,-0.08483 -2.99055,-0.25452c-0.89081,-0.16969 -1.63314,-0.4666 -2.227,-0.89081c-0.59386,-0.4666 -1.06046,-1.08168 -1.39984,-1.84523c-0.33934,-0.80598 -0.50903,-1.84523 -0.50903,-3.11781v-22.77926c0,-1.18776 0.21212,-2.18461 0.63629,-2.99055c0.42421,-0.84838 1.03928,-1.61193 1.84527,-2.29065c0.84842,-0.63629 1.86648,-1.20893 3.0542,-1.71797c1.18776,-0.55147 2.46034,-1.01807 3.81775,-1.39984c1.35745,-0.42421 2.75729,-0.74233 4.19953,-0.95442c1.48471,-0.25452 2.96938,-0.38178 4.45405,-0.38178c2.41791,0 4.32679,0.4666 5.72663,1.39984c1.44228,0.93324 2.16339,2.46034 2.16339,4.5813c0,0.72112 -0.10604,1.42106 -0.31813,2.09978c-0.16965,0.67873 -0.40299,1.2938 -0.6999,1.84527c-1.10289,0 -2.20579,0.06365 -3.30872,0.19091c-1.10289,0.08483 -2.18461,0.2333 -3.24507,0.44542c-1.06046,0.21208 -2.05735,0.42421 -2.99055,0.63629c-0.9332,0.21208 -1.73919,0.48782 -2.41791,0.8272z"/></g></g></svg>