<svg version="1.1" xmlns="http://www.w3.org/2000/svg" xmlns:xlink="http://www.w3.org/1999/xlink" width="37.35037" height="47.72183" viewBox="0,0,37.35037,47.72183"><g transform="translate(-221.32482,-156.13909)"><g data-paper-data="{&quot;isPaintingLayer&quot;:true}" fill="#00c7ff" fill-rule="nonzero" stroke="#000000" stroke-width="0" stroke-linecap="square" stroke-linejoin="miter" stroke-miterlimit="10" stroke-dasharray="" stroke-dashoffset="0" style="mix-blend-mode: normal"><path d="M238.56824,178.791c2.121,0 3.75414,-0.48782 4.89947,-1.46345c1.14533,-1.01807 1.71801,-2.52395 1.71801,-4.51765c0,-1.95127 -0.61508,-3.43598 -1.84523,-4.45405c-1.18772,-1.06046 -2.90573,-1.59071 -5.15395,-1.59071c-0.80594,0 -1.48467,0.02122 -2.03613,0.06365c-0.50903,0 -1.0605,0.06365 -1.65436,0.19091v11.77143zM234.62323,203.16098c-0.59386,0.16969 -1.48467,0.31817 -2.67243,0.44542c-1.18776,0.16969 -2.35426,0.25452 -3.49959,0.25452c-1.18776,0 -2.227,-0.08483 -3.11781,-0.25452c-0.84838,-0.16965 -1.59071,-0.48782 -2.227,-0.95442c-0.59386,-0.4666 -1.03928,-1.10289 -1.33619,-1.90888c-0.29695,-0.80594 -0.44538,-1.86644 -0.44538,-3.18146v-35.82323c0,-1.06046 0.27573,-1.86644 0.8272,-2.41791c0.59386,-0.59386 1.39984,-1.06046 2.41791,-1.39984c1.73919,-0.63629 3.69049,-1.08168 5.85389,-1.33619c2.20583,-0.29691 4.43283,-0.44538 6.68105,-0.44538c6.99921,0 12.34407,1.50588 16.03456,4.51769c3.69049,2.96938 5.53576,7.02043 5.53576,12.1532c0,2.46034 -0.40299,4.68735 -1.20893,6.68109c-0.76355,1.99374 -1.93009,3.73293 -3.49959,5.2176c-1.5271,1.44228 -3.47837,2.56639 -5.85389,3.37237c-2.33304,0.76355 -5.0479,1.14533 -8.14454,1.14533h-5.34485z"/></g></g></svg>