<svg version="1.1" xmlns="http://www.w3.org/2000/svg" xmlns:xlink="http://www.w3.org/1999/xlink" width="48.10378" height="48.80367" viewBox="0,0,48.10378,48.80367"><g transform="translate(-215.94811,-155.59816)"><g data-paper-data="{&quot;isPaintingLayer&quot;:true}" fill="#00c7ff" fill-rule="nonzero" stroke="#000000" stroke-width="0" stroke-linecap="square" stroke-linejoin="miter" stroke-miterlimit="10" stroke-dasharray="" stroke-dashoffset="0" style="mix-blend-mode: normal"><path d="M215.94811,179.96814c0,-3.94501 0.61508,-7.42342 1.84527,-10.43519c1.23015,-3.0542 2.92694,-5.59937 5.09034,-7.63551c2.16339,-2.07857 4.68735,-3.6481 7.5719,-4.70856c2.92694,-1.0605 6.08719,-1.59071 9.48077,-1.59071c3.39354,0 6.53257,0.53025 9.41712,1.59075c2.92694,1.06046 5.47211,2.62999 7.63551,4.70856c2.20579,2.03613 3.92379,4.5813 5.15399,7.63551c1.27258,3.01177 1.90888,6.49018 1.90888,10.43519c0,3.94501 -0.61508,7.46581 -1.84523,10.56245c-1.23019,3.0542 -2.92694,5.59937 -5.09034,7.63551c-2.121,2.03613 -4.66617,3.58445 -7.63551,4.64495c-2.92694,1.06046 -6.1084,1.59075 -9.54438,1.59075c-3.43598,0 -6.63866,-0.53025 -9.60799,-1.59071c-2.92694,-1.10293 -5.4509,-2.69364 -7.57186,-4.77217c-2.12096,-2.07857 -3.79654,-4.62374 -5.02669,-7.63551c-1.18776,-3.0542 -1.78162,-6.53261 -1.78162,-10.43519zM229.62841,179.96814c0,4.6237 0.93324,8.08093 2.79969,10.37158c1.86644,2.24822 4.36918,3.37237 7.50825,3.37237c3.18146,0 5.70541,-1.12411 7.5719,-3.37233c1.90888,-2.29065 2.86334,-5.74785 2.86334,-10.37154c0,-4.53891 -0.93324,-7.95363 -2.79969,-10.24428c-1.82405,-2.29065 -4.348,-3.43598 -7.57186,-3.43598c-3.13907,0 -5.66298,1.12411 -7.57186,3.37237c-1.86644,2.24822 -2.79969,5.6842 -2.79969,10.30793z"/></g></g></svg>