<svg version="1.1" xmlns="http://www.w3.org/2000/svg" xmlns:xlink="http://www.w3.org/1999/xlink" width="34.29643" height="47.40396" viewBox="0,0,34.29643,47.40396"><g transform="translate(-222.85178,-156.29802)"><g data-paper-data="{&quot;isPaintingLayer&quot;:true}" fill="#00c7ff" fill-rule="nonzero" stroke="#000000" stroke-width="0" stroke-linecap="square" stroke-linejoin="miter" stroke-miterlimit="10" stroke-dasharray="" stroke-dashoffset="0" style="mix-blend-mode: normal"><path d="M238.44093,203.70158c-2.33304,0 -4.45405,-0.19087 -6.36292,-0.57264c-1.90888,-0.33934 -3.54202,-0.84838 -4.89943,-1.5271c-1.35741,-0.72112 -2.41791,-1.59071 -3.18146,-2.60878c-0.76355,-1.06046 -1.14533,-2.26944 -1.14533,-3.62685c0,-1.44224 0.40299,-2.62999 1.20898,-3.56324c0.80598,-0.97563 1.71801,-1.73919 2.73608,-2.29065c1.39984,1.0605 2.90573,1.99374 4.51769,2.79969c1.65436,0.76355 3.71171,1.14533 6.17205,1.14533c2.37552,0 4.07227,-0.53025 5.09034,-1.59071c1.01807,-1.06046 1.5271,-2.35426 1.5271,-3.88136c0,-1.48467 -0.44538,-2.69364 -1.33619,-3.62685c-0.89081,-0.97563 -2.41791,-1.46345 -4.5813,-1.46345c-1.35741,0 -2.50274,0.14847 -3.43598,0.44542c-0.89081,0.29695 -1.93009,0.72116 -3.11781,1.27258c-2.4603,-0.08483 -4.41161,-0.74233 -5.85389,-1.97249c-1.44224,-1.23015 -2.16339,-3.13903 -2.16339,-5.72663c0,-0.16965 0,-0.36056 0,-0.57264c0,-0.25452 0.02122,-0.72112 0.06365,-1.39984l0.89081,-11.58052c0.16969,-2.16339 0.84842,-3.88136 2.03613,-5.15395c1.23019,-1.27258 2.92694,-1.90888 5.09034,-1.90888h21.88845c0.29695,0.55147 0.5939,1.2938 0.89081,2.22704c0.33938,0.89081 0.50903,1.84527 0.50903,2.86334c0,1.90888 -0.44538,3.2875 -1.33619,4.13592c-0.84838,0.80598 -1.93009,1.20898 -3.24507,1.20898h-14.57107l-0.50903,7.12647c0.93324,-0.25452 1.88766,-0.48782 2.86334,-0.6999c1.01807,-0.21208 2.29065,-0.31813 3.81775,-0.31813c2.63003,0 4.89947,0.40299 6.80835,1.20898c1.90888,0.76355 3.47841,1.84527 4.70856,3.24511c1.27258,1.35745 2.18461,2.94816 2.73608,4.77221c0.5939,1.82405 0.89081,3.77536 0.89081,5.85389c0,2.07857 -0.36056,4.07227 -1.08168,5.98115c-0.67868,1.90888 -1.78162,3.60567 -3.30872,5.09034c-1.5271,1.44228 -3.47837,2.5876 -5.85389,3.43598c-2.33304,0.84842 -5.15395,1.27258 -8.46267,1.27258z"/></g></g></svg>