<svg version="1.1" xmlns="http://www.w3.org/2000/svg" xmlns:xlink="http://www.w3.org/1999/xlink" width="32.13285" height="47.08571" viewBox="0,0,32.13285,47.08571"><g transform="translate(-223.93358,-156.45714)"><g data-paper-data="{&quot;isPaintingLayer&quot;:true}" fill="#00c7ff" fill-rule="nonzero" stroke="#000000" stroke-width="0" stroke-linecap="square" stroke-linejoin="miter" stroke-miterlimit="10" stroke-dasharray="" stroke-dashoffset="0" style="mix-blend-mode: normal"><path d="M230.99641,203.54274c-2.20583,0 -3.94501,-0.63629 -5.2176,-1.90888c-1.23015,-1.27258 -1.84523,-2.99055 -1.84523,-5.15395v-39.32286c0.55147,-0.08483 1.42106,-0.21208 2.60882,-0.38178c1.23015,-0.21208 2.39669,-0.31813 3.49963,-0.31813c1.18776,0 2.22704,0.10604 3.11785,0.31817c0.89081,0.16969 1.63314,0.48782 2.22704,0.95446c0.59386,0.42421 1.03928,1.0605 1.33623,1.90888c0.33934,0.80598 0.50903,1.86648 0.50903,3.18146v29.96938h17.37076c0.33938,0.55147 0.65751,1.31502 0.95446,2.29065c0.33938,0.93324 0.50903,1.88766 0.50903,2.86334c0,2.03613 -0.44538,3.47841 -1.33619,4.32679c-0.84838,0.84842 -1.97249,1.27258 -3.37233,1.27258z"/></g></g></svg>