<svg version="1.1" xmlns="http://www.w3.org/2000/svg" xmlns:xlink="http://www.w3.org/1999/xlink" width="32.25995" height="39.19546" viewBox="0,0,32.25995,39.19546"><g transform="translate(-223.87003,-164.15227)"><g data-paper-data="{&quot;isPaintingLayer&quot;:true}" fill="#00c7ff" fill-rule="nonzero" stroke="#000000" stroke-width="0" stroke-linecap="square" stroke-linejoin="miter" stroke-miterlimit="10" stroke-dasharray="" stroke-dashoffset="0" style="mix-blend-mode: normal"><path d="M246.26739,174.33282c-1.27258,0 -2.48152,0.21208 -3.62685,0.63629c-1.10289,0.38178 -2.07853,0.97563 -2.92694,1.78162c-0.84838,0.76355 -1.5271,1.73919 -2.03613,2.92694c-0.50903,1.14533 -0.76355,2.50274 -0.76355,4.07227c0,3.13903 0.89081,5.49333 2.67243,7.06286c1.82405,1.56949 4.02988,2.3543 6.61744,2.3543c1.5271,0 2.84212,-0.16969 3.94501,-0.50903c1.10293,-0.38178 2.09978,-0.76355 2.99059,-1.14533c1.01807,0.67868 1.7604,1.44224 2.22704,2.29065c0.50903,0.84838 0.76355,1.84527 0.76355,2.99059c0,2.07853 -0.99685,3.69049 -2.99055,4.83582c-1.95127,1.14529 -4.66613,1.71793 -8.14454,1.71793c-3.18146,0 -6.06597,-0.4666 -8.65357,-1.3998c-2.58756,-0.93324 -4.8146,-2.24826 -6.68105,-3.94501c-1.82401,-1.69679 -3.24507,-3.73293 -4.26314,-6.1084c-1.01807,-2.41791 -1.5271,-5.06912 -1.5271,-7.95363c0,-3.30872 0.53025,-6.21445 1.59075,-8.71718c1.10293,-2.54517 2.5876,-4.62374 4.45405,-6.23566c1.90888,-1.61197 4.09349,-2.8209 6.55383,-3.62685c2.46034,-0.80598 5.04795,-1.20893 7.76276,-1.20893c3.6481,0 6.44779,0.65751 8.39906,1.97253c1.99374,1.31498 2.99059,3.01177 2.99059,5.09034c0,0.97563 -0.2333,1.88766 -0.6999,2.73608c-0.42417,0.80594 -0.95442,1.50588 -1.59071,2.09978c-0.84838,-0.38178 -1.88766,-0.76355 -3.11781,-1.14533c-1.18772,-0.38178 -2.50274,-0.57264 -3.94501,-0.57264z"/></g></g></svg>