<svg version="1.1" xmlns="http://www.w3.org/2000/svg" xmlns:xlink="http://www.w3.org/1999/xlink" width="18.64333" height="67.44698" viewBox="0,0,18.64333,67.44698"><g transform="translate(-230.67834,-148.02651)"><g data-paper-data="{&quot;isPaintingLayer&quot;:true}" fill="#00c7ff" fill-rule="nonzero" stroke="#000000" stroke-width="0" stroke-linecap="square" stroke-linejoin="miter" stroke-miterlimit="10" stroke-dasharray="" stroke-dashoffset="0" style="mix-blend-mode: normal"><path d="M235.19593,154.89843c0,-1.95131 0.63629,-3.58445 1.90888,-4.89943c1.31502,-1.31502 3.03299,-1.97249 5.15399,-1.97249c2.121,0 3.81775,0.65751 5.09034,1.97253c1.31502,1.31498 1.97253,2.94816 1.97253,4.89947c0,1.90888 -0.65751,3.5208 -1.97249,4.83582c-1.27258,1.31498 -2.96934,1.97253 -5.09034,1.97253c-2.12096,0 -3.83897,-0.65751 -5.15395,-1.97249c-1.27258,-1.31502 -1.90888,-2.92694 -1.90888,-4.83582zM232.65076,207.20164c1.10293,-0.72112 1.90888,-1.69675 2.41791,-2.92694c0.50903,-1.23019 0.76355,-2.60878 0.76355,-4.13588v-34.48704c0.55147,-0.08487 1.35745,-0.21212 2.41791,-0.38178c1.10293,-0.21212 2.22704,-0.31813 3.37237,-0.31813c1.10293,0 2.09978,0.08483 2.99059,0.25452c0.89081,0.12726 1.63314,0.42417 2.22704,0.89081c0.5939,0.4666 1.0605,1.10289 1.39984,1.90888c0.33938,0.76355 0.50903,1.78162 0.50903,3.0542v30.28751c0,2.12096 -0.25452,4.05105 -0.76355,5.79024c-0.50903,1.73923 -1.23015,3.22389 -2.16339,4.45405c-0.9332,1.23019 -2.07853,2.18461 -3.43598,2.86334c-1.35741,0.67873 -2.86329,1.01807 -4.51765,1.01807c-2.20579,0 -3.94501,-0.67868 -5.2176,-2.03613c-1.27258,-1.31498 -1.93009,-2.99055 -1.97249,-5.02669z"/></g></g></svg>