<svg version="1.1" xmlns="http://www.w3.org/2000/svg" xmlns:xlink="http://www.w3.org/1999/xlink" width="40.21382" height="47.34029" viewBox="0,0,40.21382,47.34029"><g transform="translate(-219.89309,-156.32985)"><g data-paper-data="{&quot;isPaintingLayer&quot;:true}" fill="#00c7ff" fill-rule="nonzero" stroke="#000000" stroke-width="0" stroke-linecap="square" stroke-linejoin="miter" stroke-miterlimit="10" stroke-dasharray="" stroke-dashoffset="0" style="mix-blend-mode: normal"><path d="M233.25514,185.9174v16.79811c-0.55147,0.16965 -1.44228,0.31817 -2.67243,0.44542c-1.23015,0.16965 -2.41791,0.25452 -3.56324,0.25452c-1.18776,0 -2.227,-0.08487 -3.11781,-0.25452c-0.84838,-0.16969 -1.59071,-0.48782 -2.227,-0.95442c-0.59386,-0.46664 -1.03928,-1.10293 -1.33619,-1.90888c-0.29695,-0.80598 -0.44538,-1.86648 -0.44538,-3.18146v-40.15002c0.55147,-0.08487 1.42106,-0.21212 2.60882,-0.38178c1.23015,-0.16969 2.39669,-0.25452 3.49963,-0.25452c1.18776,0 2.22704,0.08483 3.11785,0.25452c0.89081,0.16965 1.63314,0.48782 2.22704,0.95446c0.59386,0.4666 1.03928,1.10289 1.33623,1.90888c0.33934,0.80594 0.50903,1.86644 0.50903,3.18146v12.08955l15.78005,-18.19796c3.43598,0 5.89628,0.65751 7.38099,1.97253c1.5271,1.27258 2.29065,2.79969 2.29065,4.5813c0,1.31498 -0.33938,2.56639 -1.01807,3.75414c-0.63629,1.14533 -1.69679,2.4603 -3.18146,3.94501l-9.48073,9.48077c1.23015,1.39984 2.54517,2.86334 3.94501,4.39044c1.39984,1.5271 2.75725,3.01177 4.07227,4.45405c1.35741,1.44224 2.65121,2.8209 3.8814,4.13592c1.27258,1.31498 2.3543,2.4603 3.24511,3.43598c0,1.10289 -0.21212,2.09978 -0.63629,2.99059c-0.38178,0.84838 -0.91203,1.56949 -1.59071,2.16339c-0.67873,0.59386 -1.46345,1.03928 -2.35426,1.33623c-0.84842,0.33934 -1.73923,0.50903 -2.67243,0.50903c-2.07857,0 -3.77536,-0.50903 -5.09034,-1.5271c-1.31502,-1.0605 -2.5876,-2.31187 -3.81775,-3.7541z"/></g></g></svg>