<svg version="1.1" xmlns="http://www.w3.org/2000/svg" xmlns:xlink="http://www.w3.org/1999/xlink" width="297.81502" height="138.81064" viewBox="0,0,297.81502,138.81064"><g transform="translate(-91.09249,-110.59468)"><g data-paper-data="{&quot;isPaintingLayer&quot;:true}" fill-rule="nonzero" stroke-width="1" stroke-linecap="butt" stroke-linejoin="miter" stroke-miterlimit="10" stroke-dasharray="" stroke-dashoffset="0" style="mix-blend-mode: normal"><text transform="translate(105.55813,213.07963) rotate(-6.43911) scale(1.10672,1.10672)" font-size="40" xml:space="preserve" fill="#ffffff" fill-rule="nonzero" stroke="none" stroke-width="1" stroke-linecap="butt" stroke-linejoin="miter" stroke-miterlimit="10" stroke-dasharray="" stroke-dashoffset="0" font-family="Pixel" font-weight="normal" text-anchor="start" style="mix-blend-mode: normal"><tspan x="0" dy="0">LEMONOIDS</tspan></text><path d="M209.1523,146.65207c3.329,-0.20592 3.17614,3.66537 6.09272,5.92935c6.82211,5.29562 15.33318,13.8256 16.15283,27.07682c0.68985,11.15266 -6.91502,19.26468 -11.37734,25.81867c-3.10636,4.56245 -2.06881,9.39522 -6.631,9.67741c-4.14889,0.25663 -3.71017,-4.57337 -7.14001,-8.03664c-5.75951,-5.81565 -14.3722,-13.11352 -15.10556,-24.96952c-0.74829,-12.09751 8.40243,-21.38736 13.59003,-27.82518c2.92404,-3.62872 0.41134,-7.42305 4.4183,-7.6709z" fill="#ffff00" stroke="#000000"/><path d="M273.86721,141.26871c3.329,-0.20592 3.17614,3.66537 6.09272,5.92935c6.82211,5.29562 15.33318,13.8256 16.15283,27.07682c0.68985,11.15266 -6.91502,19.26468 -11.37734,25.81867c-3.10636,4.56245 -2.06881,9.39522 -6.631,9.67741c-4.14889,0.25663 -3.71017,-4.57337 -7.14001,-8.03664c-5.75952,-5.81565 -14.3722,-13.11352 -15.10556,-24.96952c-0.7483,-12.09752 8.40242,-21.38736 13.59003,-27.82518c2.92404,-3.62872 0.41134,-7.42305 4.4183,-7.6709z" fill="#ffff00" stroke="#000000"/><path d="M98.24159,248.85179l-1.47578,-12.91596l290.11239,-33.14819l1.47578,12.91595z" fill="#ffff00" stroke="#000000"/><path d="M93.1218,157.21235l-1.47578,-12.91595l290.11239,-33.14819l1.47577,12.91597z" fill="#ffff00" stroke="#000000"/><text transform="translate(86.08032,79.67856) scale(0.5,0.5)" font-size="40" xml:space="preserve" fill="#ffffff" fill-rule="nonzero" stroke="none" stroke-width="1" stroke-linecap="butt" stroke-linejoin="miter" stroke-miterlimit="10" stroke-dasharray="" stroke-dashoffset="0" font-family="Pixel" font-weight="normal" text-anchor="start" style="mix-blend-mode: normal"><tspan x="0" dy="0"> </tspan></text></g></g></svg>