<svg version="1.1" xmlns="http://www.w3.org/2000/svg" xmlns:xlink="http://www.w3.org/1999/xlink" width="37.28669" height="48.54903" viewBox="0,0,37.28669,48.54903"><g transform="translate(-221.35665,-155.72549)"><g data-paper-data="{&quot;isPaintingLayer&quot;:true}" fill="#00c7ff" fill-rule="nonzero" stroke="#000000" stroke-width="0" stroke-linecap="square" stroke-linejoin="miter" stroke-miterlimit="10" stroke-dasharray="" stroke-dashoffset="0" style="mix-blend-mode: normal"><path d="M255.39811,162.46998c0,1.0605 -0.25452,2.09978 -0.76355,3.11785c-0.4666,0.97568 -1.03928,1.71801 -1.71797,2.22704c-1.35741,-0.59386 -2.77847,-1.06046 -4.26314,-1.39984c-1.48467,-0.33934 -2.86329,-0.50903 -4.13588,-0.50903c-3.0542,0 -5.40846,0.80598 -7.06282,2.41791c-1.61193,1.56953 -2.69364,3.86019 -3.24507,6.87196c0.97568,-0.72112 2.29065,-1.35741 3.94501,-1.90888c1.69679,-0.59386 3.43598,-0.89081 5.2176,-0.89081c4.66617,0 8.37784,1.33623 11.13513,4.00866c2.75729,2.67243 4.13592,6.5114 4.13592,11.51691c0,2.20583 -0.38178,4.30557 -1.14533,6.29931c-0.76355,1.95131 -1.90888,3.66928 -3.43598,5.15399c-1.48467,1.48471 -3.37233,2.67243 -5.66298,3.56324c-2.24822,0.89081 -4.85704,1.33623 -7.82637,1.33623c-5.98115,0 -10.68971,-1.9937 -14.12569,-5.98115c-3.39354,-4.02984 -5.09034,-9.73525 -5.09034,-17.11624c0,-4.19953 0.50903,-7.89002 1.5271,-11.07148c1.0605,-3.18146 2.52395,-5.83267 4.39044,-7.95363c1.90888,-2.16339 4.17831,-3.77532 6.80835,-4.83582c2.63003,-1.06046 5.55698,-1.59071 8.78083,-1.59071c4.02988,0 7.12647,0.57268 9.28987,1.71801c2.16339,1.10293 3.24511,2.77847 3.24511,5.02673zM240.50887,182.25864c-0.97563,0 -2.01492,0.21212 -3.11781,0.63629c-1.06046,0.38178 -1.93009,0.93324 -2.60878,1.65436v1.90888c0,2.71486 0.57268,4.66617 1.71801,5.85389c1.14533,1.14533 2.52395,1.71801 4.13592,1.71801c1.65436,0 2.90573,-0.55143 3.75414,-1.65436c0.84842,-1.14533 1.27258,-2.58756 1.27258,-4.32679c0,-1.78162 -0.44538,-3.18146 -1.33619,-4.19953c-0.89081,-1.06046 -2.16339,-1.59071 -3.81775,-1.59071z"/></g></g></svg>