<svg version="1.1" xmlns="http://www.w3.org/2000/svg" xmlns:xlink="http://www.w3.org/1999/xlink" width="295.54121" height="130.31882" viewBox="0,0,295.54121,130.31882"><g transform="translate(-92.22939,-114.84059)"><g data-paper-data="{&quot;isPaintingLayer&quot;:true}" fill-rule="nonzero" stroke-width="1" stroke-linecap="butt" stroke-linejoin="miter" stroke-miterlimit="10" stroke-dasharray="" stroke-dashoffset="0" style="mix-blend-mode: normal"><text transform="translate(104.63659,209.07961) rotate(-4.74024) scale(1.10672,1.10672)" font-size="40" xml:space="preserve" fill="#ffffff" fill-rule="nonzero" stroke="none" stroke-width="1" stroke-linecap="butt" stroke-linejoin="miter" stroke-miterlimit="10" stroke-dasharray="" stroke-dashoffset="0" font-family="Pixel" font-weight="normal" text-anchor="start" style="mix-blend-mode: normal"><tspan x="0" dy="0">LEMONOIDS</tspan></text><path d="M210.15443,145.75226c3.33364,-0.10713 3.06609,3.75791 5.91427,6.10735c6.66213,5.49552 14.91659,14.27406 15.34306,27.54376c0.35893,11.16821 -7.48306,19.05122 -12.13772,25.47004c-3.24024,4.46836 -2.34643,9.32976 -6.91496,9.47658c-4.15466,0.13353 -3.57296,-4.68135 -6.89863,-8.24478c-5.58458,-5.98384 -13.97714,-13.53381 -14.35871,-25.40634c-0.38934,-12.11437 9.03275,-21.12888 14.40892,-27.41009c3.03032,-3.54045 0.63122,-7.40759 4.64377,-7.53654z" fill="#ffff00" stroke="#000000"/><path d="M275.00049,142.2897c3.33364,-0.10713 3.06609,3.75792 5.91427,6.10736c6.66212,5.49553 14.91659,14.27406 15.34306,27.54376c0.35893,11.16821 -7.48307,19.05122 -12.13772,25.47004c-3.24024,4.46836 -2.34642,9.32975 -6.91496,9.47658c-4.15467,0.13353 -3.57296,-4.68135 -6.89863,-8.24477c-5.58458,-5.98384 -13.97713,-13.53381 -14.35871,-25.40634c-0.38934,-12.11437 9.03275,-21.12887 14.40892,-27.41009c3.03032,-3.54045 0.63122,-7.4076 4.64377,-7.53654z" fill="#ffff00" stroke="#000000"/><path d="M96.26282,244.61917l-1.09224,-12.95403l290.96754,-24.53337l1.09224,12.95403z" fill="#ffff00" stroke="#000000"/><path d="M93.86187,152.86822l-1.09224,-12.95403l290.96754,-24.53337l1.09224,12.95404z" fill="#ffff00" stroke="#000000"/></g></g></svg>