<svg version="1.1" xmlns="http://www.w3.org/2000/svg" xmlns:xlink="http://www.w3.org/1999/xlink" width="12.91678" height="50.83969" viewBox="0,0,12.91678,50.83969"><g transform="translate(-233.54161,-152.08016)"><g data-paper-data="{&quot;isPaintingLayer&quot;:true}" fill="#00c7ff" fill-rule="nonzero" stroke="#000000" stroke-width="0" stroke-linecap="square" stroke-linejoin="miter" stroke-miterlimit="10" stroke-dasharray="" stroke-dashoffset="0" style="mix-blend-mode: normal"><path d="M246.45827,202.2199c-0.55143,0.08487 -1.37863,0.21212 -2.48152,0.38178c-1.10289,0.21212 -2.20579,0.31817 -3.30872,0.31817c-1.10289,0 -2.09974,-0.08483 -2.99055,-0.25452c-0.89081,-0.16965 -1.65436,-0.4666 -2.29065,-0.89081c-0.59386,-0.4666 -1.06046,-1.08168 -1.39984,-1.84523c-0.29691,-0.80594 -0.44538,-1.84523 -0.44538,-3.11781v-44.03142c0.55147,-0.12726 1.35745,-0.27573 2.41791,-0.44538c1.10293,-0.16965 2.20583,-0.25452 3.30872,-0.25452c1.14533,0 2.14218,0.08487 2.99059,0.25452c0.89081,0.12726 1.63314,0.42421 2.22704,0.89081c0.63629,0.42421 1.12411,1.03928 1.46349,1.84527c0.33938,0.76355 0.50903,1.78162 0.50903,3.0542z"/></g></g></svg>