<svg version="1.1" xmlns="http://www.w3.org/2000/svg" xmlns:xlink="http://www.w3.org/1999/xlink" width="35.25051" height="39.25928" viewBox="0,0,35.25051,39.25928"><g transform="translate(-222.37475,-164.12036)"><g data-paper-data="{&quot;isPaintingLayer&quot;:true}" fill="#00c7ff" fill-rule="nonzero" stroke="#000000" stroke-width="0" stroke-linecap="square" stroke-linejoin="miter" stroke-miterlimit="10" stroke-dasharray="" stroke-dashoffset="0" style="mix-blend-mode: normal"><path d="M239.99992,193.96248c0.89081,0 1.84527,-0.08487 2.86334,-0.25452c1.06046,-0.16969 1.84527,-0.40299 2.3543,-0.6999v-6.1084l-5.47211,0.44542c-1.44228,0.12726 -2.63003,0.44542 -3.56324,0.95446c-0.89081,0.4666 -1.33619,1.20898 -1.33619,2.22704c0,1.01807 0.38178,1.84527 1.14533,2.48156c0.80594,0.63629 2.14218,0.95446 4.00866,0.95446zM239.42728,164.12036c2.71482,0 5.19638,0.27573 7.44464,0.8272c2.29065,0.55143 4.22074,1.39984 5.79028,2.54517c1.61193,1.14533 2.84208,2.58756 3.69049,4.32679c0.84838,1.73919 1.27258,3.79654 1.27258,6.17205v17.05263c0,1.31498 -0.36056,2.39669 -1.08168,3.24511c-0.72116,0.80594 -1.59071,1.5271 -2.60878,2.16339c-3.30872,1.95127 -7.95363,2.92694 -13.93478,2.92694c-2.67243,0 -5.09034,-0.25452 -7.25373,-0.76355c-2.121,-0.50903 -3.96623,-1.27258 -5.53572,-2.29065c-1.5271,-1.01807 -2.71486,-2.31187 -3.56324,-3.88136c-0.84842,-1.56953 -1.27258,-3.39359 -1.27258,-5.47211c0,-3.47841 1.03928,-6.15084 3.11785,-8.01728c2.07853,-1.86648 5.30242,-3.03299 9.67164,-3.49959l9.92616,-1.08168v-0.50903c0,-1.48471 -0.63629,-2.54517 -1.90888,-3.18146c-1.27258,-0.63629 -3.13907,-0.95442 -5.59937,-0.95442c-1.90888,0 -3.77536,0.21208 -5.59937,0.63629c-1.82405,0.42417 -3.47841,0.9332 -4.96308,1.5271c-0.63629,-0.46664 -1.18776,-1.16654 -1.65436,-2.09974c-0.46664,-0.93324 -0.6999,-1.90888 -0.6999,-2.92694c0,-1.31502 0.31817,-2.35426 0.95446,-3.11781c0.63629,-0.80598 1.61193,-1.48471 2.92694,-2.03613c1.48467,-0.55147 3.22385,-0.95442 5.2176,-1.20893c1.9937,-0.25452 3.8814,-0.38178 5.66302,-0.38178z"/></g></g></svg>