<svg version="1.1" xmlns="http://www.w3.org/2000/svg" xmlns:xlink="http://www.w3.org/1999/xlink" width="307.67892" height="134.95577" viewBox="0,0,307.67892,134.95577"><g transform="translate(-86.16055,-112.52212)"><g data-paper-data="{&quot;isPaintingLayer&quot;:true}" fill-rule="nonzero" stroke-width="1" stroke-linecap="butt" stroke-linejoin="miter" stroke-miterlimit="10" stroke-dasharray="" stroke-dashoffset="0" style="mix-blend-mode: normal"><text transform="translate(101.5861,183.23568) rotate(6.04487) scale(1.10672,1.10672)" font-size="40" xml:space="preserve" fill="#ffffff" fill-rule="nonzero" stroke="none" stroke-width="1" stroke-linecap="butt" stroke-linejoin="miter" stroke-miterlimit="10" stroke-dasharray="" stroke-dashoffset="0" font-family="Pixel" font-weight="normal" text-anchor="start" style="mix-blend-mode: normal"><tspan x="0" dy="0">LEMONOIDS</tspan></text><path d="M217.09036,140.7723c3.2948,0.51857 2.30872,4.26529 4.66693,7.1062c5.51607,6.64512 11.98202,16.81323 9.91781,29.92833c-1.73729,11.0381 -10.91591,17.31439 -16.68948,22.74882c-4.01917,3.78308 -4.05083,8.72587 -8.56616,8.0152c-4.10626,-0.64629 -2.63384,-5.26725 -5.23394,-9.39006c-4.36618,-6.92315 -11.19768,-15.91026 -9.35084,-27.64447c1.88448,-11.97324 12.827,-19.06537 19.28359,-24.22959c3.63931,-2.91084 2.00623,-7.15862 5.97203,-6.53444z" fill="#ffff00" stroke="#000000"/><path d="M281.43888,149.50542c3.2948,0.51857 2.30872,4.26529 4.66693,7.1062c5.51607,6.64512 11.98202,16.81323 9.91781,29.92833c-1.73729,11.0381 -10.91591,17.31439 -16.68948,22.74882c-4.01917,3.78308 -4.05083,8.72587 -8.56616,8.0152c-4.10626,-0.64629 -2.63384,-5.26725 -5.23394,-9.39006c-4.36619,-6.92316 -11.19768,-15.91026 -9.35084,-27.64447c1.88448,-11.97325 12.82699,-19.06537 19.28359,-24.22959c3.63931,-2.91084 2.00623,-7.15862 5.97203,-6.53444z" fill="#ffff00" stroke="#000000"/><path d="M86.70981,216.58047l1.35111,-12.9296l290.41865,30.34817l-1.35111,12.92959z" fill="#ffff00" stroke="#000000"/><path d="M101.52045,126.00097l1.35111,-12.92959l290.41865,30.34816l-1.35112,12.9296z" fill="#ffff00" stroke="#000000"/></g></g></svg>