<svg version="1.1" xmlns="http://www.w3.org/2000/svg" xmlns:xlink="http://www.w3.org/1999/xlink" width="38.11378" height="51.60335" viewBox="0,0,38.11378,51.60335"><g transform="translate(-220.94311,-163.44832)"><g data-paper-data="{&quot;isPaintingLayer&quot;:true}" fill="#00c7ff" fill-rule="nonzero" stroke="#000000" stroke-width="0" stroke-linecap="square" stroke-linejoin="miter" stroke-miterlimit="10" stroke-dasharray="" stroke-dashoffset="0" style="mix-blend-mode: normal"><path d="M237.86829,163.44832c3.0542,0 5.8751,0.40299 8.46271,1.20898c2.62999,0.76355 4.87821,1.95127 6.7447,3.56324c1.86644,1.61193 3.32994,3.64806 4.39044,6.1084c1.06046,2.4603 1.59075,5.38725 1.59075,8.78083c0,3.22385 -0.46664,6.06597 -1.39984,8.52632c-0.89081,2.41791 -2.16339,4.45405 -3.81775,6.1084c-1.65436,1.65436 -3.66928,2.88451 -6.04476,3.69049c-2.33308,0.80594 -4.94186,1.20898 -7.82637,1.20898c-2.20583,0 -4.24196,-0.33938 -6.1084,-1.01807v12.66219c-0.50903,0.12726 -1.31502,0.27573 -2.41791,0.44542c-1.10293,0.21208 -2.24826,0.31817 -3.43598,0.31817c-1.10293,0 -2.09974,-0.08487 -2.99055,-0.25452c-0.89081,-0.16969 -1.65436,-0.48782 -2.29065,-0.95442c-0.5939,-0.42421 -1.03928,-1.03928 -1.33619,-1.84523c-0.29695,-0.76355 -0.44538,-1.78162 -0.44538,-3.0542v-36.45952c0,-1.35745 0.29691,-2.46034 0.89081,-3.30872c0.59386,-0.89081 1.37863,-1.69679 2.3543,-2.41791c1.56949,-1.01807 3.5208,-1.82405 5.85389,-2.41791c2.33304,-0.5939 4.94186,-0.89081 7.82641,-0.89081zM238.0592,192.46325c5.2176,0 7.82641,-3.11781 7.82641,-9.35347c0,-3.22389 -0.65751,-5.62059 -1.97249,-7.19008c-1.27258,-1.56953 -3.11781,-2.35426 -5.53572,-2.35426c-0.97568,0 -1.84523,0.10604 -2.60878,0.31817c-0.76355,0.21208 -1.42106,0.48782 -1.97249,0.8272v16.67086c0.59386,0.29691 1.25137,0.55143 1.97253,0.76355c0.72112,0.21208 1.48467,0.31817 2.29065,0.31817z"/></g></g></svg>