<svg version="1.1" xmlns="http://www.w3.org/2000/svg" xmlns:xlink="http://www.w3.org/1999/xlink" width="36.33245" height="38.30489" viewBox="0,0,36.33245,38.30489"><g transform="translate(-221.83378,-164.59755)"><g data-paper-data="{&quot;isPaintingLayer&quot;:true}" fill="#00c7ff" fill-rule="nonzero" stroke="#000000" stroke-width="0" stroke-linecap="square" stroke-linejoin="miter" stroke-miterlimit="10" stroke-dasharray="" stroke-dashoffset="0" style="mix-blend-mode: normal"><path d="M221.83378,165.29745c0.50903,-0.16965 1.2938,-0.31813 2.3543,-0.44538c1.10289,-0.16965 2.24822,-0.25452 3.43598,-0.25452c1.10289,0 2.09978,0.08487 2.99059,0.25452c0.89081,0.12726 1.63314,0.42421 2.22704,0.89081c0.63629,0.46664 1.10289,1.10293 1.39984,1.90888c0.33934,0.76355 0.50903,1.78162 0.50903,3.0542v16.35273c0,2.07857 0.50903,3.56324 1.5271,4.45405c1.01807,0.84842 2.48156,1.27258 4.39044,1.27258c1.18772,0 2.14218,-0.08483 2.86334,-0.25452c0.72112,-0.21208 1.2938,-0.42417 1.71801,-0.63629v-26.59701c0.50903,-0.16965 1.2938,-0.31813 2.3543,-0.44538c1.10289,-0.16965 2.24822,-0.25452 3.43598,-0.25452c1.10289,0 2.09978,0.08487 2.99059,0.25452c0.89081,0.12726 1.63314,0.42421 2.22704,0.89081c0.59386,0.46664 1.06046,1.10293 1.39984,1.90888c0.33934,0.76355 0.50903,1.78162 0.50903,3.0542v23.09743c0,2.54517 -1.0605,4.43283 -3.18146,5.66302c-1.78162,1.14533 -3.90262,1.99374 -6.36292,2.54517c-2.46034,0.5939 -5.13277,0.89081 -8.01728,0.89081c-2.71486,0 -5.23881,-0.31813 -7.57186,-0.95442c-2.29065,-0.59386 -4.28439,-1.50588 -5.98115,-2.73604c-1.65436,-1.27258 -2.94816,-2.90573 -3.88136,-4.89943c-0.89081,-2.03613 -1.33619,-4.45405 -1.33619,-7.25373z"/></g></g></svg>