<svg version="1.1" xmlns="http://www.w3.org/2000/svg" xmlns:xlink="http://www.w3.org/1999/xlink" width="50.90355" height="59.49347" viewBox="0,0,50.90355,59.49347"><g transform="translate(-214.54823,-154.75327)"><g data-paper-data="{&quot;isPaintingLayer&quot;:true}" fill="#00c7ff" fill-rule="nonzero" stroke="#000000" stroke-width="0" stroke-linecap="square" stroke-linejoin="miter" stroke-miterlimit="10" stroke-dasharray="" stroke-dashoffset="0" style="mix-blend-mode: normal"><path d="M214.54823,179.12324c0,-3.94501 0.61508,-7.42338 1.84527,-10.43519c1.23015,-3.0542 2.92694,-5.59937 5.09034,-7.63551c2.16339,-2.07853 4.68735,-3.64806 7.5719,-4.70856c2.92694,-1.06046 6.08719,-1.59071 9.48077,-1.59071c3.39354,0 6.53257,0.53025 9.41712,1.59075c2.92694,1.0605 5.47211,2.63003 7.63551,4.70856c2.20579,2.03613 3.92379,4.5813 5.15399,7.63551c1.27258,3.01181 1.90888,6.49018 1.90888,10.43519c0,4.96308 -0.91203,9.18382 -2.73604,12.66223c-1.82405,3.47841 -4.30557,6.19323 -7.4446,8.14454c0.76355,0.38178 1.65436,0.78477 2.67243,1.20898c1.01807,0.38178 2.09978,0.76355 3.24511,1.14533c1.14533,0.42421 2.33304,0.8272 3.56324,1.20898c1.23015,0.38178 2.37548,0.72112 3.43598,1.01807c0.04239,0.29695 0.06365,0.55147 0.06365,0.76355c0,0.25452 0,0.48782 0,0.69994c0,2.88451 -0.76355,4.9843 -2.29065,6.29931c-1.48471,1.31502 -3.43598,1.97253 -5.85389,1.97253c-2.33308,0 -4.751,-0.65751 -7.25373,-1.97249c-2.46034,-1.27258 -4.9843,-3.13903 -7.57186,-5.59937l-3.30872,-3.11781h-0.63629c-3.43598,0 -6.63866,-0.53025 -9.60799,-1.59071c-2.92694,-1.10289 -5.4509,-2.69364 -7.57186,-4.77217c-2.12096,-2.07857 -3.79654,-4.62374 -5.02669,-7.63551c-1.18776,-3.0542 -1.78162,-6.53257 -1.78162,-10.43519zM228.22853,179.12324c0,4.62374 0.93324,8.08093 2.79969,10.37158c1.86644,2.24822 4.36918,3.37237 7.50825,3.37237c3.18146,0 5.70541,-1.12411 7.5719,-3.37233c1.90888,-2.29065 2.86334,-5.74785 2.86334,-10.37154c0,-4.53887 -0.93324,-7.95363 -2.79969,-10.24428c-1.82405,-2.29065 -4.348,-3.43598 -7.57186,-3.43598c-3.13907,0 -5.66298,1.12411 -7.57186,3.37237c-1.86644,2.24826 -2.79969,5.68424 -2.79969,10.30793z"/></g></g></svg>