<svg version="1.1" xmlns="http://www.w3.org/2000/svg" xmlns:xlink="http://www.w3.org/1999/xlink" width="33.72327" height="46.44944" viewBox="0,0,33.72327,46.44944"><g transform="translate(-223.13837,-156.77528)"><g data-paper-data="{&quot;isPaintingLayer&quot;:true}" fill="#00c7ff" fill-rule="nonzero" stroke="#000000" stroke-width="0" stroke-linecap="square" stroke-linejoin="miter" stroke-miterlimit="10" stroke-dasharray="" stroke-dashoffset="0" style="mix-blend-mode: normal"><path d="M255.46176,156.77528c0.38178,0.59386 0.69994,1.35741 0.95446,2.29065c0.29691,0.93324 0.44542,1.90888 0.44542,2.92694c0,1.95131 -0.42421,3.35115 -1.27258,4.19953c-0.84842,0.84838 -1.97249,1.27258 -3.37233,1.27258h-15.97091v8.58996h16.67086c0.38178,0.55147 0.69994,1.2938 0.95446,2.22704c0.29691,0.89081 0.44542,1.84527 0.44542,2.86334c0,1.90888 -0.42421,3.2875 -1.27258,4.13592c-0.80598,0.80598 -1.90888,1.20898 -3.30872,1.20898h-13.29849v16.03456c-0.59386,0.16969 -1.48467,0.31817 -2.67243,0.44542c-1.18776,0.16969 -2.35426,0.25452 -3.49959,0.25452c-1.18776,0 -2.227,-0.08483 -3.11781,-0.25452c-0.84838,-0.16969 -1.59071,-0.48782 -2.227,-0.95442c-0.59386,-0.4666 -1.03928,-1.10289 -1.33619,-1.90888c-0.29695,-0.80598 -0.44538,-1.86644 -0.44538,-3.18146v-33.08719c0,-2.16339 0.61508,-3.88136 1.84527,-5.15395c1.27258,-1.27258 3.01177,-1.90888 5.2176,-1.90888z"/></g></g></svg>