<svg version="1.1" xmlns="http://www.w3.org/2000/svg" xmlns:xlink="http://www.w3.org/1999/xlink" width="56.50303" height="38.55972" viewBox="0,0,56.50303,38.55972"><g transform="translate(-211.74849,-164.22014)"><g data-paper-data="{&quot;isPaintingLayer&quot;:true}" fill="#00c7ff" fill-rule="nonzero" stroke="#000000" stroke-width="0" stroke-linecap="square" stroke-linejoin="miter" stroke-miterlimit="10" stroke-dasharray="" stroke-dashoffset="0" style="mix-blend-mode: normal"><path d="M235.0367,200.74319c-0.72112,0.5939 -1.69675,1.08172 -2.92694,1.46349c-1.18772,0.38178 -2.62999,0.57268 -4.32679,0.57268c-2.07853,0 -3.88136,-0.29691 -5.40846,-0.89081c-1.48467,-0.55143 -2.48152,-1.35741 -2.99055,-2.41791c-0.55143,-1.23015 -1.20893,-3.16024 -1.97249,-5.79024c-0.72112,-2.62999 -1.44224,-5.51451 -2.16339,-8.65357c-0.67868,-3.13903 -1.33619,-6.32049 -1.97249,-9.54438c-0.63629,-3.26629 -1.14533,-6.12962 -1.5271,-8.58992c0.72116,-0.72112 1.67558,-1.33619 2.86334,-1.84523c1.18776,-0.55143 2.50278,-0.82716 3.94501,-0.82716c1.78162,0 3.22389,0.40299 4.32679,1.20898c1.14533,0.76355 1.84527,2.09978 2.09978,4.00866c0.50903,3.86019 0.93324,7.04165 1.27258,9.54438c0.38178,2.50278 0.67873,4.56009 0.89081,6.17205c0.25452,1.56953 0.44542,2.77847 0.57268,3.62689c0.12726,0.84842 0.2333,1.5271 0.31817,2.03613h0.31817c0.12726,-0.80594 0.38178,-1.97249 0.76355,-3.49959c0.38178,-1.56949 0.8272,-3.32994 1.33623,-5.2812c0.50903,-1.9937 1.03928,-4.13588 1.59075,-6.42653c0.55147,-2.33304 1.12411,-4.64491 1.71801,-6.93556c0.97568,-0.55143 1.95131,-0.97563 2.92694,-1.27258c1.01807,-0.29691 2.26944,-0.44538 3.75414,-0.44538c1.73923,0 3.24511,0.27573 4.51769,0.8272c1.27258,0.55147 2.07857,1.39984 2.41791,2.54517c0.63629,2.24826 1.23019,4.43283 1.78162,6.55383c0.55147,2.07857 1.0605,4.02988 1.5271,5.85389c0.46664,1.78162 0.86959,3.37237 1.20898,4.77221c0.33938,1.39984 0.5939,2.50278 0.76355,3.30872h0.38178c0.55147,-3.90258 1.08172,-7.95363 1.59075,-12.15316c0.55147,-4.19953 1.0605,-8.48388 1.5271,-12.8531c0.89081,-0.55143 1.84527,-0.95442 2.86334,-1.20893c1.01807,-0.25452 2.03613,-0.38178 3.0542,-0.38178c1.78162,0 3.24511,0.38178 4.39044,1.14533c1.18776,0.76355 1.78162,2.07857 1.78162,3.94501c0,0.80598 -0.12726,2.01492 -0.38178,3.62689c-0.25452,1.61197 -0.59386,3.43598 -1.01807,5.47211c-0.38178,2.03613 -0.84838,4.17831 -1.39984,6.42657c-0.55143,2.20583 -1.10289,4.348 -1.65436,6.42657c-0.50903,2.07857 -0.99685,3.96623 -1.46345,5.66302c-0.4666,1.65436 -0.89081,2.92694 -1.27258,3.81775c-0.67868,0.5939 -1.7604,1.08172 -3.24507,1.46349c-1.48467,0.38178 -3.0542,0.57268 -4.70856,0.57268c-4.24192,0 -6.7447,-1.06046 -7.50825,-3.18146c-0.29691,-0.89081 -0.67868,-2.03613 -1.14533,-3.43598c-0.4666,-1.39984 -0.95442,-2.92694 -1.46345,-4.5813c-0.50903,-1.69675 -0.99685,-3.43598 -1.46345,-5.2176c-0.42417,-1.82401 -0.78477,-3.56324 -1.08168,-5.2176c-0.38178,1.78162 -0.82716,3.62689 -1.33619,5.53576c-0.50903,1.86648 -1.03928,3.71171 -1.59071,5.53576c-0.50903,1.78162 -0.99685,3.43598 -1.46345,4.96308c-0.42417,1.48471 -0.76355,2.67243 -1.01807,3.56324z"/></g></g></svg>