<svg version="1.1" xmlns="http://www.w3.org/2000/svg" xmlns:xlink="http://www.w3.org/1999/xlink" width="13.2986" height="47.08556" viewBox="0,0,13.2986,47.08556"><g transform="translate(-233.3507,-156.45722)"><g data-paper-data="{&quot;isPaintingLayer&quot;:true}" fill="#00c7ff" fill-rule="nonzero" stroke="#000000" stroke-width="0" stroke-linecap="square" stroke-linejoin="miter" stroke-miterlimit="10" stroke-dasharray="" stroke-dashoffset="0" style="mix-blend-mode: normal"><path d="M246.6491,202.84284c-0.59386,0.16969 -1.48467,0.31817 -2.67243,0.44542c-1.18776,0.16969 -2.35426,0.25452 -3.49959,0.25452c-1.18776,0 -2.227,-0.08483 -3.11781,-0.25452c-0.84838,-0.16965 -1.59071,-0.48782 -2.227,-0.95442c-0.59386,-0.4666 -1.03928,-1.10289 -1.33619,-1.90888c-0.29695,-0.80594 -0.44538,-1.86644 -0.44538,-3.18146v-40.14998c0.55147,-0.08483 1.42106,-0.21208 2.60882,-0.38178c1.23015,-0.16965 2.39669,-0.25452 3.49963,-0.25452c1.18776,0 2.22704,0.08487 3.11785,0.25452c0.89081,0.16969 1.63314,0.48782 2.22704,0.95446c0.59386,0.46664 1.03928,1.10293 1.33623,1.90888c0.33934,0.80598 0.50903,1.86648 0.50903,3.18146z"/></g></g></svg>