<svg version="1.1" xmlns="http://www.w3.org/2000/svg" xmlns:xlink="http://www.w3.org/1999/xlink" width="36.52331" height="48.54926" viewBox="0,0,36.52331,48.54926"><g transform="translate(-221.73835,-155.72537)"><g data-paper-data="{&quot;isPaintingLayer&quot;:true}" fill="#00c7ff" fill-rule="nonzero" stroke="#000000" stroke-width="0" stroke-linecap="square" stroke-linejoin="miter" stroke-miterlimit="10" stroke-dasharray="" stroke-dashoffset="0" style="mix-blend-mode: normal"><path d="M236.6912,184.74024c-2.24822,-0.76355 -4.28435,-1.5271 -6.1084,-2.29065c-1.82405,-0.80598 -3.39354,-1.7604 -4.70856,-2.86329c-1.31502,-1.10289 -2.33308,-2.41791 -3.0542,-3.94501c-0.72112,-1.56953 -1.08168,-3.47841 -1.08168,-5.72663c0,-4.28435 1.65436,-7.72033 4.96308,-10.30793c3.30872,-2.5876 7.95367,-3.88136 13.93478,-3.88136c2.16339,0 4.17831,0.14847 6.0448,0.44542c1.90888,0.29695 3.52084,0.76355 4.83582,1.39984c1.35745,0.63629 2.41791,1.46349 3.18146,2.48156c0.76355,0.97563 1.14533,2.12096 1.14533,3.43598c0,1.31502 -0.31813,2.43913 -0.95442,3.37237c-0.59386,0.93324 -1.31498,1.73919 -2.16339,2.41791c-1.10289,-0.72112 -2.60878,-1.33619 -4.51765,-1.84523c-1.86644,-0.55147 -3.90258,-0.82716 -6.1084,-0.82716c-2.29065,0 -3.96623,0.31817 -5.02669,0.95446c-1.0605,0.63629 -1.59071,1.42106 -1.59071,2.3543c0,0.76355 0.31817,1.39984 0.95446,1.90888c0.67873,0.4666 1.67558,0.91203 2.99055,1.33623l4.00866,1.27258c4.751,1.5271 8.39906,3.47841 10.94423,5.85389c2.5876,2.33308 3.8814,5.51455 3.8814,9.54438c0,4.32679 -1.69675,7.82641 -5.09034,10.49884c-3.39354,2.62999 -8.37784,3.94501 -14.95285,3.94501c-2.33308,0 -4.49648,-0.19087 -6.49018,-0.57264c-1.9937,-0.38178 -3.7541,-0.93324 -5.2812,-1.65436c-1.48467,-0.72112 -2.65121,-1.63314 -3.49959,-2.73604c-0.80598,-1.10289 -1.20893,-2.35426 -1.20893,-3.7541c0,-1.48467 0.42421,-2.73604 1.27258,-3.7541c0.84838,-1.0605 1.78162,-1.86644 2.79969,-2.41791c1.44228,1.10289 3.18146,2.07857 5.2176,2.92694c2.03613,0.80598 4.28435,1.20898 6.7447,1.20898c2.46034,0 4.19953,-0.38178 5.2176,-1.14533c1.01807,-0.76355 1.5271,-1.65436 1.5271,-2.67243c0,-1.01807 -0.40299,-1.78162 -1.20893,-2.29065c-0.80594,-0.55147 -1.95127,-1.08168 -3.43598,-1.59071z"/></g></g></svg>