<svg version="1.1" xmlns="http://www.w3.org/2000/svg" xmlns:xlink="http://www.w3.org/1999/xlink" width="37.28681" height="48.54919" viewBox="0,0,37.28681,48.54919"><g transform="translate(-221.35659,-155.72541)"><g data-paper-data="{&quot;isPaintingLayer&quot;:true}" fill="#00c7ff" fill-rule="nonzero" stroke="#000000" stroke-width="0" stroke-linecap="square" stroke-linejoin="miter" stroke-miterlimit="10" stroke-dasharray="" stroke-dashoffset="0" style="mix-blend-mode: normal"><path d="M235.03686,194.09368c3.26633,0 5.85389,-0.82716 7.76276,-2.48152c1.95131,-1.69679 2.92694,-4.00862 2.92694,-6.93556c-0.55143,0.4666 -1.56949,0.99685 -3.0542,1.59075c-1.48467,0.59386 -3.39354,0.89081 -5.72663,0.89081c-2.33304,0 -4.45405,-0.31813 -6.36292,-0.95442c-1.86644,-0.67873 -3.49959,-1.65436 -4.89943,-2.92694c-1.35741,-1.27258 -2.41791,-2.84212 -3.18146,-4.70856c-0.76355,-1.90888 -1.14533,-4.09349 -1.14533,-6.55379c0,-2.20583 0.38178,-4.28439 1.14533,-6.23566c0.76355,-1.95131 1.90888,-3.66928 3.43598,-5.15395c1.5271,-1.48471 3.41476,-2.67243 5.66302,-3.56324c2.24826,-0.89081 4.85704,-1.33619 7.82641,-1.33619c5.98115,0 10.66849,2.01492 14.06208,6.0448c3.43598,3.9874 5.15399,9.67164 5.15399,17.05263c0,4.19953 -0.53025,7.91124 -1.59071,11.13513c-1.06046,3.18146 -2.54517,5.83267 -4.45405,7.95367c-1.86644,2.12096 -4.11466,3.71171 -6.7447,4.77221c-2.62999,1.06046 -5.55694,1.59075 -8.78083,1.59075c-4.02984,0 -7.19008,-0.55147 -9.48073,-1.65436c-2.29065,-1.10293 -3.43598,-2.79969 -3.43598,-5.09034c0,-1.0605 0.2333,-2.07857 0.69994,-3.0542c0.50903,-1.01807 1.10293,-1.78162 1.78162,-2.29065c1.35745,0.63629 2.77847,1.12411 4.26318,1.46349c1.48471,0.29691 2.86334,0.44542 4.13592,0.44542zM239.93633,177.48643c0.93324,0 1.88766,-0.19087 2.86334,-0.57264c1.01807,-0.42421 1.84527,-0.99685 2.48156,-1.71797v-0.95442c-0.04239,-2.88455 -0.55143,-4.9843 -1.5271,-6.29927c-0.9332,-1.31502 -2.33304,-1.97249 -4.19953,-1.97249c-1.69675,0 -3.01177,0.53025 -3.94501,1.59075c-0.9332,1.01807 -1.39984,2.41791 -1.39984,4.19953c0,1.73919 0.53025,3.13903 1.59075,4.19953c1.0605,1.01807 2.43913,1.5271 4.13592,1.5271z"/></g></g></svg>