<svg version="1.1" xmlns="http://www.w3.org/2000/svg" xmlns:xlink="http://www.w3.org/1999/xlink" width="293.53474" height="123.44162" viewBox="0,0,293.53474,123.44162"><g transform="translate(-93.23262,-118.27919)"><g data-paper-data="{&quot;isPaintingLayer&quot;:true}" fill-rule="nonzero" stroke-width="1" stroke-linecap="butt" stroke-linejoin="miter" stroke-miterlimit="10" stroke-dasharray="" stroke-dashoffset="0" style="mix-blend-mode: normal"><text transform="translate(103.9849,205.86061) rotate(-3.38106) scale(1.10672,1.10672)" font-size="40" xml:space="preserve" fill="#ffffff" fill-rule="nonzero" stroke="none" stroke-width="1" stroke-linecap="butt" stroke-linejoin="miter" stroke-miterlimit="10" stroke-dasharray="" stroke-dashoffset="0" font-family="Pixel" font-weight="normal" text-anchor="start" style="mix-blend-mode: normal"><tspan x="0" dy="0">LEMONOIDS</tspan></text><path d="M210.97518,145.05396c3.33524,-0.02803 2.97609,3.82958 5.76774,6.24592c6.5299,5.652 14.57381,14.62387 14.6854,27.89995c0.09392,11.17358 -7.93285,18.86836 -12.73845,25.17497c-3.34532,4.39024 -2.56707,9.27148 -7.1378,9.30989c-4.15666,0.03494 -3.46091,-4.76478 -6.70112,-8.4061c-5.44107,-6.11462 -13.65219,-13.86154 -13.75203,-25.73978c-0.10188,-12.1202 9.53139,-20.90868 15.05503,-27.0606c3.11345,-3.46757 0.80675,-7.39053 4.82123,-7.42427z" fill="#ffff00" stroke="#000000"/><path d="M275.88513,143.13053c3.33524,-0.02803 2.97609,3.82959 5.76774,6.24593c6.52989,5.65201 14.57381,14.62387 14.6854,27.89995c0.09392,11.17358 -7.93286,18.86836 -12.73845,25.17497c-3.34532,4.39024 -2.56706,9.27147 -7.1378,9.30989c-4.15667,0.03494 -3.46091,-4.76478 -6.70112,-8.40609c-5.44107,-6.11462 -13.65218,-13.86154 -13.75203,-25.73978c-0.10188,-12.1202 9.53139,-20.90867 15.05503,-27.0606c3.11345,-3.46757 0.80675,-7.39054 4.82123,-7.42427z" fill="#ffff00" stroke="#000000"/><path d="M94.77049,241.19154l-0.78466,-12.97629l291.46761,-17.62471l0.78466,12.97629z" fill="#ffff00" stroke="#000000"/><path d="M94.54655,149.40946l-0.78466,-12.97629l291.46761,-17.62471l0.78466,12.9763z" fill="#ffff00" stroke="#000000"/></g></g></svg>