<svg version="1.1" xmlns="http://www.w3.org/2000/svg" xmlns:xlink="http://www.w3.org/1999/xlink" width="293.3418" height="122.66007" viewBox="0,0,293.3418,122.66007"><g transform="translate(-93.3291,-118.66997)"><g data-paper-data="{&quot;isPaintingLayer&quot;:true}" fill-rule="nonzero" stroke-width="1" stroke-linecap="butt" stroke-linejoin="miter" stroke-miterlimit="10" stroke-dasharray="" stroke-dashoffset="0" style="mix-blend-mode: normal"><text transform="translate(103.91607,205.49594) rotate(-3.22759) scale(1.10672,1.10672)" font-size="40" xml:space="preserve" fill="#ffffff" fill-rule="nonzero" stroke="none" stroke-width="1" stroke-linecap="butt" stroke-linejoin="miter" stroke-miterlimit="10" stroke-dasharray="" stroke-dashoffset="0" font-family="Pixel" font-weight="normal" text-anchor="start" style="mix-blend-mode: normal"><tspan x="0" dy="0">LEMONOIDS</tspan></text><path d="M211.06897,144.97629c3.33531,-0.0191 2.96581,3.83755 5.75098,6.26137c6.51472,5.66949 14.53456,14.66289 14.61056,27.93921c0.06397,11.17379 -7.98341,18.84703 -12.80589,25.14074c-3.35708,4.38126 -2.5919,9.26457 -7.16274,9.29073c-4.15675,0.0238 -3.44813,-4.77404 -6.67857,-8.42402c-5.42466,-6.12918 -13.61498,-13.89809 -13.68299,-25.77655c-0.06938,-12.12043 9.5874,-20.88305 15.12752,-27.02014c3.12274,-3.45921 0.82655,-7.38835 4.8411,-7.41133z" fill="#ffff00" stroke="#000000"/><path d="M275.98384,143.22686c3.33531,-0.0191 2.96581,3.83755 5.75098,6.26137c6.51472,5.66949 14.53456,14.66289 14.61056,27.93921c0.06397,11.17379 -7.98341,18.84703 -12.80589,25.14074c-3.35708,4.38126 -2.5919,9.26457 -7.16274,9.29073c-4.15675,0.0238 -3.44813,-4.77404 -6.67857,-8.42402c-5.42467,-6.12918 -13.61498,-13.89809 -13.68299,-25.77655c-0.06939,-12.12044 9.58739,-20.88305 15.12752,-27.02014c3.12274,-3.45921 0.82655,-7.38835 4.8411,-7.41133z" fill="#ffff00" stroke="#000000"/><path d="M94.60699,240.80203l-0.74988,-12.97835l291.51381,-16.84337l0.74988,12.97834z" fill="#ffff00" stroke="#000000"/><path d="M94.62909,149.01969l-0.74988,-12.97834l291.51381,-16.84337l0.74987,12.97836z" fill="#ffff00" stroke="#000000"/></g></g></svg>