<svg version="1.1" xmlns="http://www.w3.org/2000/svg" xmlns:xlink="http://www.w3.org/1999/xlink" width="1270.56886" height="1186.67012" viewBox="0,0,1270.56886,1186.67012"><defs><radialGradient cx="240" cy="180" r="51.86667" gradientUnits="userSpaceOnUse" id="color-1"><stop offset="0" stop-color="#ffffff"/><stop offset="1" stop-color="#ffffff" stop-opacity="0"/></radialGradient></defs><g transform="translate(316.54235,336.99656)"><g data-paper-data="{&quot;isPaintingLayer&quot;:true}" fill-rule="nonzero" stroke-width="0" stroke-linecap="butt" stroke-linejoin="miter" stroke-miterlimit="10" stroke-dasharray="" stroke-dashoffset="0" style="mix-blend-mode: normal"><path d="M215.13333,180c0,-13.73348 11.13319,-24.86667 24.86667,-24.86667c13.73348,0 24.86667,11.13319 24.86667,24.86667c0,13.73348 -11.13319,24.86667 -24.86667,24.86667c-13.73348,0 -24.86667,-11.13319 -24.86667,-24.86667z" fill="#ffffff" stroke="#000000"/><path d="M188.13333,180c0,-28.64517 23.2215,-51.86667 51.86667,-51.86667c28.64517,0 51.86667,23.2215 51.86667,51.86667c0,28.64517 -23.2215,51.86667 -51.86667,51.86667c-28.64517,0 -51.86667,-23.2215 -51.86667,-51.86667z" fill="url(#color-1)" stroke="#000000"/><path d="M240.8133,190.02787v-18.01802l713.21321,-40.54054v75.07508z" fill="#ffffff" stroke="none"/><path d="M231.42635,183.15183l16.68069,-6.81201l307.17363,644.95037l-69.50288,28.38338z" fill="#ffffff" stroke="none"/><path d="M246.91474,172.90245l-12.58301,12.89639l-538.79396,-469.06044l52.42919,-53.73497z" fill="#ffffff" stroke="none"/><path d="M235.80905,173.46669l11.72322,13.68266l-515.22786,494.83015l-48.84676,-57.01106z" fill="#ffffff" stroke="none"/></g></g></svg>