<svg version="1.1" xmlns="http://www.w3.org/2000/svg" xmlns:xlink="http://www.w3.org/1999/xlink" width="56.37517" height="38.68685" viewBox="0,0,56.37517,38.68685"><g transform="translate(-211.81243,-164.15658)"><g data-paper-data="{&quot;isPaintingLayer&quot;:true}" fill="#00c7ff" fill-rule="nonzero" stroke="#000000" stroke-width="0" stroke-linecap="square" stroke-linejoin="miter" stroke-miterlimit="10" stroke-dasharray="" stroke-dashoffset="0" style="mix-blend-mode: normal"><path d="M229.50099,164.15658c2.07853,0 4.11466,0.29691 6.1084,0.89081c2.03613,0.55143 3.77532,1.42106 5.2176,2.60882c1.5271,-1.01807 3.24511,-1.84523 5.15399,-2.48152c1.90888,-0.67873 4.19953,-1.01807 6.87196,-1.01807c1.90888,0 3.77532,0.25452 5.59937,0.76355c1.86644,0.50903 3.5208,1.31498 4.96308,2.41791c1.44224,1.06046 2.58756,2.50274 3.43598,4.32679c0.89081,1.78162 1.33623,3.96623 1.33623,6.55383v23.92459c-0.50903,0.12726 -1.31502,0.27573 -2.41791,0.44542c-1.0605,0.16965 -2.18461,0.25452 -3.37233,0.25452c-1.10293,0 -2.09974,-0.08487 -2.99055,-0.25452c-0.89081,-0.16969 -1.63314,-0.46664 -2.227,-0.89081c-0.5939,-0.46664 -1.0605,-1.08168 -1.39984,-1.84523c-0.33938,-0.80598 -0.50903,-1.84523 -0.50903,-3.11781v-18.13431c0,-1.5271 -0.44538,-2.63003 -1.33619,-3.30872c-0.84842,-0.67873 -1.99374,-1.01807 -3.43598,-1.01807c-0.72116,0 -1.48471,0.16965 -2.29065,0.50903c-0.80598,0.29691 -1.42106,0.61508 -1.84523,0.95446c0.08483,0.21208 0.12726,0.42417 0.12726,0.63629c0,0.16965 0,0.31817 0,0.44542v25.32443c-0.5939,0.12726 -1.44228,0.27573 -2.54517,0.44542c-1.0605,0.16965 -2.14218,0.25452 -3.24507,0.25452c-1.10293,0 -2.09974,-0.08487 -2.99055,-0.25452c-0.89081,-0.16969 -1.65436,-0.46664 -2.29065,-0.89081c-0.5939,-0.46664 -1.0605,-1.08168 -1.39984,-1.84523c-0.29695,-0.80598 -0.44538,-1.84523 -0.44538,-3.11781v-18.13431c0,-1.5271 -0.48782,-2.63003 -1.46345,-3.30872c-0.93324,-0.67873 -2.05735,-1.01807 -3.37233,-1.01807c-0.89081,0 -1.67558,0.14847 -2.35426,0.44542c-0.63629,0.25452 -1.18776,0.50903 -1.65436,0.76355v26.66066c-0.50903,0.12726 -1.31502,0.27573 -2.41791,0.44542c-1.0605,0.16965 -2.18461,0.25452 -3.37233,0.25452c-1.10293,0 -2.09974,-0.08487 -2.99055,-0.25452c-0.89081,-0.16969 -1.63314,-0.46664 -2.227,-0.89081c-0.5939,-0.46664 -1.0605,-1.08168 -1.39984,-1.84523c-0.33938,-0.80598 -0.50903,-1.84523 -0.50903,-3.11781v-22.97013c0,-1.35745 0.29691,-2.43913 0.89081,-3.24507c0.59386,-0.80598 1.37863,-1.56953 2.3543,-2.29065c1.73919,-1.18776 3.8814,-2.16339 6.42657,-2.92694c2.58756,-0.76355 5.25999,-1.14533 8.01728,-1.14533z"/></g></g></svg>