<svg version="1.1" xmlns="http://www.w3.org/2000/svg" xmlns:xlink="http://www.w3.org/1999/xlink" width="32.06944" height="39.38629" viewBox="0,0,32.06944,39.38629"><g transform="translate(-223.96528,-164.30688)"><g data-paper-data="{&quot;isPaintingLayer&quot;:true}" fill="#00c7ff" fill-rule="nonzero" stroke="#000000" stroke-width="0" stroke-linecap="square" stroke-linejoin="miter" stroke-miterlimit="10" stroke-dasharray="" stroke-dashoffset="0" style="mix-blend-mode: normal"><path d="M256.03424,191.41271c0,3.86019 -1.44228,6.87196 -4.32679,9.03535c-2.88455,2.16339 -7.14769,3.24511 -12.78945,3.24511c-2.121,0 -4.09349,-0.14847 -5.9175,-0.44538c-1.82405,-0.29695 -3.39359,-0.76355 -4.70856,-1.39984c-1.27258,-0.63629 -2.29065,-1.42106 -3.0542,-2.35426c-0.72116,-0.97563 -1.08168,-2.12096 -1.08168,-3.43598c0,-1.23015 0.25452,-2.24822 0.76355,-3.0542c0.50903,-0.84838 1.12411,-1.54832 1.84527,-2.09974c1.48467,0.80598 3.16024,1.5271 5.02673,2.16339c1.90888,0.59386 4.11466,0.89081 6.61744,0.89081c1.56949,0 2.75725,-0.21208 3.56324,-0.63629c0.84838,-0.4666 1.27258,-1.08168 1.27258,-1.84523c0,-0.72112 -0.31813,-1.27258 -0.95442,-1.65436c-0.5939,-0.42421 -1.59071,-0.76355 -2.99055,-1.01807l-2.29065,-0.44538c-4.41165,-0.84838 -7.69911,-2.18461 -9.86251,-4.00862c-2.121,-1.86644 -3.18146,-4.53887 -3.18146,-8.01728c0,-1.86644 0.40299,-3.54202 1.20898,-5.02669c0.80594,-1.5271 1.93009,-2.79969 3.37237,-3.81775c1.48467,-1.01807 3.24511,-1.80283 5.28125,-2.35426c2.07853,-0.55147 4.348,-0.82716 6.80835,-0.82716c1.90888,0 3.66928,0.14847 5.28125,0.44542c1.65436,0.25452 3.09659,0.65751 4.32679,1.20898c1.23015,0.55147 2.18461,1.27258 2.86334,2.16339c0.72112,0.89081 1.08172,1.93009 1.08172,3.11785c0,1.18776 -0.21212,2.20583 -0.63629,3.0542c-0.42421,0.80598 -0.97568,1.48467 -1.65436,2.03613c-0.38178,-0.25452 -0.99685,-0.50903 -1.84523,-0.76355c-0.80598,-0.29695 -1.69679,-0.55147 -2.67243,-0.76355c-0.93324,-0.21208 -1.90888,-0.40299 -2.92694,-0.57264c-0.97568,-0.16969 -1.86648,-0.25452 -2.67243,-0.25452c-1.65436,0 -2.94816,0.19091 -3.88136,0.57268c-0.89081,0.38178 -1.33619,0.97563 -1.33619,1.78162c0,0.59386 0.25452,1.0605 0.76355,1.39984c0.50903,0.33934 1.46349,0.65751 2.86334,0.95446l2.3543,0.57268c4.87821,1.10289 8.33545,2.62999 10.37158,4.5813c2.07853,1.95131 3.11785,4.47526 3.11785,7.5719z"/></g></g></svg>