<svg version="1.1" xmlns="http://www.w3.org/2000/svg" xmlns:xlink="http://www.w3.org/1999/xlink" width="44.60393" height="47.59477" viewBox="0,0,44.60393,47.59477"><g transform="translate(-217.69805,-156.20261)"><g data-paper-data="{&quot;isPaintingLayer&quot;:true}" fill="#00c7ff" fill-rule="nonzero" stroke="#000000" stroke-width="0" stroke-linecap="square" stroke-linejoin="miter" stroke-miterlimit="10" stroke-dasharray="" stroke-dashoffset="0" style="mix-blend-mode: normal"><path d="M230.74181,158.36596c0.84838,-0.50903 2.14218,-0.99685 3.8814,-1.46345c1.73919,-0.46664 3.49963,-0.6999 5.28125,-0.6999c2.54517,0 4.79339,0.38178 6.7447,1.14533c1.95127,0.72112 3.20268,1.86644 3.75414,3.43598c0.89081,2.62999 1.86644,5.70541 2.92694,9.22626c1.10289,3.47841 2.18461,7.08408 3.24511,10.81697c1.06046,3.73293 2.07853,7.40221 3.0542,11.00787c1.01807,3.60567 1.90888,6.80835 2.67243,9.60803c-0.5939,0.72116 -1.50588,1.2938 -2.73604,1.71801c-1.18776,0.42421 -2.63003,0.63629 -4.32679,0.63629c-1.18776,0 -2.20583,-0.10604 -3.0542,-0.31813c-0.84842,-0.21208 -1.54832,-0.50903 -2.09974,-0.89081c-0.50903,-0.42417 -0.93324,-0.95442 -1.27258,-1.59071c-0.29695,-0.67868 -0.57264,-1.44224 -0.82716,-2.29065l-1.39984,-5.2176h-13.74391c-0.38178,1.48471 -0.78477,3.0542 -1.20893,4.70856c-0.42421,1.61197 -0.82716,3.18146 -1.20893,4.70856c-0.72112,0.25452 -1.48467,0.46664 -2.29065,0.63629c-0.76355,0.16969 -1.69679,0.25452 -2.79969,0.25452c-2.5876,0 -4.51765,-0.44538 -5.79024,-1.33619c-1.23015,-0.89081 -1.84523,-2.12096 -1.84523,-3.69049c0,-0.72112 0.10604,-1.42106 0.31817,-2.09974c0.21208,-0.72112 0.44542,-1.56949 0.69994,-2.54517c0.33934,-1.35741 0.8272,-3.03299 1.46349,-5.02669c0.63629,-2.03613 1.33623,-4.22074 2.09978,-6.55379c0.76355,-2.37548 1.56953,-4.8146 2.41791,-7.31734c0.89081,-2.50274 1.69679,-4.83582 2.41791,-6.99921c0.76355,-2.20583 1.46349,-4.17831 2.09978,-5.9175c0.63629,-1.73923 1.14533,-3.0542 1.5271,-3.94501zM239.84081,168.16489c-0.72116,2.121 -1.5271,4.49648 -2.41791,7.12647c-0.89081,2.5876 -1.67558,5.2176 -2.35426,7.89002h9.41712c-0.72116,-2.71482 -1.46345,-5.36607 -2.227,-7.95363c-0.72116,-2.62999 -1.37863,-4.9843 -1.97249,-7.06282z"/></g></g></svg>