<svg version="1.1" xmlns="http://www.w3.org/2000/svg" xmlns:xlink="http://www.w3.org/1999/xlink" width="38.05041" height="38.55923" viewBox="0,0,38.05041,38.55923"><g transform="translate(-220.97479,-163.97038)"><g data-paper-data="{&quot;isPaintingLayer&quot;:true}" fill="#00c7ff" fill-rule="nonzero" stroke="#000000" stroke-width="0" stroke-linecap="square" stroke-linejoin="miter" stroke-miterlimit="10" stroke-dasharray="" stroke-dashoffset="0" style="mix-blend-mode: normal"><path d="M248.08074,200.62074c-0.72116,0.5939 -1.7604,1.0605 -3.11781,1.39984c-1.35745,0.33938 -2.90573,0.50903 -4.64491,0.50903c-1.95131,0 -3.6481,-0.25452 -5.09034,-0.76355c-1.44228,-0.50903 -2.43913,-1.31498 -2.99055,-2.41791c-0.46664,-0.84838 -1.01807,-2.03613 -1.65436,-3.56324c-0.63629,-1.56949 -1.31502,-3.30872 -2.03613,-5.2176c-0.67873,-1.90888 -1.39984,-3.94501 -2.16339,-6.1084c-0.76355,-2.16339 -1.48471,-4.30557 -2.16339,-6.42653c-0.67873,-2.12096 -1.31502,-4.17831 -1.90888,-6.17201c-0.55147,-1.9937 -0.99685,-3.73289 -1.33619,-5.2176c0.72112,-0.72112 1.67558,-1.33619 2.86334,-1.84523c1.18772,-0.55143 2.48156,-0.82716 3.8814,-0.82716c1.78162,0 3.24511,0.36056 4.39044,1.08172c1.14533,0.72116 1.9937,2.09978 2.54517,4.13592l2.92694,11.64417c0.59386,2.29065 1.12411,4.36922 1.59075,6.23566c0.50903,1.82405 0.89081,3.24511 1.14533,4.26318h0.38178c0.97563,-3.77532 1.9937,-7.93242 3.0542,-12.47133c1.06046,-4.5813 2.01492,-9.07774 2.86334,-13.48939c0.89081,-0.42417 1.86644,-0.76355 2.92694,-1.01807c1.10289,-0.25452 2.16339,-0.38178 3.18146,-0.38178c1.78162,0 3.26629,0.38178 4.45405,1.14533c1.23015,0.76355 1.84527,2.07857 1.84527,3.94501c0,0.80598 -0.19087,1.99374 -0.57264,3.56324c-0.38178,1.5271 -0.86959,3.26633 -1.46345,5.2176c-0.55147,1.95131 -1.23019,4.00866 -2.03613,6.17205c-0.76355,2.16339 -1.56953,4.28439 -2.41791,6.36292c-0.80598,2.07857 -1.61197,4.02988 -2.41791,5.85389c-0.76355,1.78162 -1.44228,3.24511 -2.03613,4.39044z"/></g></g></svg>