<svg version="1.1" xmlns="http://www.w3.org/2000/svg" xmlns:xlink="http://www.w3.org/1999/xlink" width="41.67723" height="47.33993" viewBox="0,0,41.67723,47.33993"><g transform="translate(-219.16139,-156.33004)"><g data-paper-data="{&quot;isPaintingLayer&quot;:true}" fill="#00c7ff" fill-rule="nonzero" stroke="#000000" stroke-width="0" stroke-linecap="square" stroke-linejoin="miter" stroke-miterlimit="10" stroke-dasharray="" stroke-dashoffset="0" style="mix-blend-mode: normal"><path d="M260.83829,201.44293c-0.72112,0.72116 -1.7604,1.27258 -3.11781,1.65436c-1.31498,0.38178 -2.90573,0.57268 -4.77217,0.57268c-1.86644,0 -3.64806,-0.27573 -5.34485,-0.82716c-1.65436,-0.59386 -3.01177,-1.95127 -4.07227,-4.07227l-7.50825,-15.33462c-0.76355,-1.56949 -1.46345,-3.0542 -2.09974,-4.45405c-0.59386,-1.39984 -1.25137,-3.01177 -1.97249,-4.83582l-0.44538,0.06365c0.21208,2.75729 0.31817,5.55698 0.31817,8.39906c0.04243,2.84212 0.06365,5.62059 0.06365,8.33545v11.77143c-0.55147,0.16969 -1.39984,0.31817 -2.54517,0.44542c-1.14533,0.16969 -2.26944,0.25452 -3.37233,0.25452c-1.10289,0 -2.09974,-0.08483 -2.99055,-0.25452c-0.84838,-0.12726 -1.54832,-0.42417 -2.09974,-0.89081c-0.55147,-0.4666 -0.97563,-1.08168 -1.27258,-1.84523c-0.29695,-0.80594 -0.44538,-1.84523 -0.44538,-3.11781v-37.98662c0.67873,-0.97563 1.7604,-1.71797 3.24511,-2.227c1.48467,-0.50903 3.0542,-0.76355 4.70856,-0.76355c1.86644,0 3.64806,0.29695 5.34485,0.89081c1.69679,0.55147 3.0542,1.86648 4.07227,3.94501l7.5719,15.33466c0.76355,1.56953 1.44228,3.0542 2.03613,4.45405c0.63629,1.39984 1.31502,3.01181 2.03613,4.83582l0.38178,-0.06361c-0.21208,-2.75725 -0.33934,-5.49333 -0.38178,-8.20815c-0.04239,-2.75725 -0.06361,-5.49333 -0.06361,-8.20815v-12.34407c0.55147,-0.12726 1.37863,-0.25452 2.48156,-0.38178c1.14533,-0.16965 2.29065,-0.25452 3.43598,-0.25452c2.20583,0 3.8814,0.40299 5.02673,1.20898c1.18776,0.76355 1.78162,2.37552 1.78162,4.83582z"/></g></g></svg>