<svg version="1.1" xmlns="http://www.w3.org/2000/svg" xmlns:xlink="http://www.w3.org/1999/xlink" width="308.57789" height="138.37432" viewBox="0,0,308.57789,138.37432"><g transform="translate(-85.71106,-110.81284)"><g data-paper-data="{&quot;isPaintingLayer&quot;:true}" fill-rule="nonzero" stroke-width="1" stroke-linecap="butt" stroke-linejoin="miter" stroke-miterlimit="10" stroke-dasharray="" stroke-dashoffset="0" style="mix-blend-mode: normal"><text transform="translate(101.55652,181.51044) rotate(6.75894) scale(1.10672,1.10672)" font-size="40" xml:space="preserve" fill="#ffffff" fill-rule="nonzero" stroke="none" stroke-width="1" stroke-linecap="butt" stroke-linejoin="miter" stroke-miterlimit="10" stroke-dasharray="" stroke-dashoffset="0" font-family="Pixel" font-weight="normal" text-anchor="start" style="mix-blend-mode: normal"><tspan x="0" dy="0">LEMONOIDS</tspan></text><path d="M217.58101,140.48983c3.28808,0.55959 2.25538,4.29373 4.57801,7.16381c5.43283,6.71335 11.77155,16.96125 9.54406,30.04961c-1.87472,11.01559 -11.13084,17.17701 -16.97169,22.53906c-4.066,3.7327 -4.15926,8.67471 -8.66538,7.90782c-4.09789,-0.69741 -2.56799,-5.29967 -5.11651,-9.45456c-4.27956,-6.97703 -10.99853,-16.04858 -9.00559,-27.75886c2.03355,-11.94882 13.06361,-18.90403 19.58405,-23.98739c3.6753,-2.86526 2.09529,-7.13306 6.053,-6.45951z" fill="#ffff00" stroke="#000000"/><path d="M281.8157,150.02422c3.28808,0.55959 2.25538,4.29373 4.57801,7.16381c5.43283,6.71335 11.77155,16.96125 9.54406,30.04961c-1.87472,11.01559 -11.13084,17.17701 -16.97169,22.53906c-4.066,3.7327 -4.15926,8.67471 -8.66538,7.90782c-4.09789,-0.69741 -2.56799,-5.29967 -5.11651,-9.45456c-4.27957,-6.97704 -10.99853,-16.04858 -9.00559,-27.75886c2.03355,-11.94883 13.0636,-18.90403 19.58405,-23.98739c3.6753,-2.86526 2.09529,-7.13306 6.053,-6.45951z" fill="#ffff00" stroke="#000000"/><path d="M86.26582,214.66725l1.51214,-12.91176l290.01788,33.96516l-1.51214,12.91175z" fill="#ffff00" stroke="#000000"/><path d="M102.20416,124.27936l1.51214,-12.91175l290.01788,33.96515l-1.51215,12.91176z" fill="#ffff00" stroke="#000000"/></g></g></svg>