<svg version="1.1" xmlns="http://www.w3.org/2000/svg" xmlns:xlink="http://www.w3.org/1999/xlink" width="42.94975" height="48.5492" viewBox="0,0,42.94975,48.5492"><g transform="translate(-218.52512,-155.7254)"><g data-paper-data="{&quot;isPaintingLayer&quot;:true}" fill="#00c7ff" fill-rule="nonzero" stroke="#000000" stroke-width="0" stroke-linecap="square" stroke-linejoin="miter" stroke-miterlimit="10" stroke-dasharray="" stroke-dashoffset="0" style="mix-blend-mode: normal"><path d="M231.69632,193.20294c0.59386,0.08487 1.2938,0.16969 2.09974,0.25452c0.80598,0.08487 1.54832,0.12726 2.22704,0.12726c1.73923,0 3.32994,-0.25452 4.77221,-0.76355c1.44228,-0.50903 2.67243,-1.2938 3.69049,-2.35426c1.0605,-1.06046 1.86648,-2.43913 2.41791,-4.13588c0.5939,-1.69675 0.89081,-3.73289 0.89081,-6.1084c0,-4.5813 -1.06046,-8.01728 -3.18146,-10.30793c-2.12096,-2.33304 -4.94186,-3.49959 -8.46267,-3.49959c-0.72112,0 -1.46345,0.04243 -2.227,0.12726c-0.72112,0.04243 -1.46345,0.10604 -2.227,0.19091zM235.95949,204.27443c-0.84838,0 -1.84523,-0.02122 -2.99055,-0.06361c-1.10289,-0.04243 -2.24822,-0.14847 -3.43598,-0.31813c-1.18776,-0.12726 -2.37548,-0.31813 -3.56324,-0.57264c-1.18776,-0.21212 -2.29065,-0.53025 -3.30872,-0.95446c-2.75725,-1.06046 -4.13588,-2.90573 -4.13588,-5.53572v-35.5051c0,-1.06046 0.27573,-1.86644 0.8272,-2.41791c0.59386,-0.59386 1.39984,-1.06046 2.41791,-1.39984c2.16339,-0.72112 4.45405,-1.18772 6.87196,-1.39984c2.46034,-0.25452 4.64495,-0.38178 6.55379,-0.38178c3.94501,0 7.52946,0.48782 10.75336,1.46349c3.22389,0.97568 5.98115,2.46034 8.2718,4.45405c2.33308,1.99374 4.1147,4.51769 5.34485,7.5719c1.27258,3.01181 1.90888,6.59622 1.90888,10.75336c0,4.07227 -0.61508,7.61429 -1.84523,10.6261c-1.18772,3.01181 -2.90573,5.53576 -5.15395,7.5719c-2.24822,2.03613 -4.94186,3.56324 -8.08089,4.5813c-3.13903,1.01807 -6.61744,1.5271 -10.43519,1.5271z"/></g></g></svg>