<svg version="1.1" xmlns="http://www.w3.org/2000/svg" xmlns:xlink="http://www.w3.org/1999/xlink" width="302.96961" height="119.08956" viewBox="0,0,302.96961,119.08956"><g transform="translate(-88.51519,-120.45521)"><g data-paper-data="{&quot;isPaintingLayer&quot;:true}" fill-rule="nonzero" stroke-width="1" stroke-linecap="butt" stroke-linejoin="miter" stroke-miterlimit="10" stroke-dasharray="" stroke-dashoffset="0" style="mix-blend-mode: normal"><text transform="translate(101.99413,191.1021) rotate(2.78477) scale(1.10672,1.10672)" font-size="40" xml:space="preserve" fill="#ffffff" fill-rule="nonzero" stroke="none" stroke-width="1" stroke-linecap="butt" stroke-linejoin="miter" stroke-miterlimit="10" stroke-dasharray="" stroke-dashoffset="0" font-family="Pixel" font-weight="normal" text-anchor="start" style="mix-blend-mode: normal"><tspan x="0" dy="0">LEMONOIDS</tspan></text><path d="M214.89652,142.13867c3.31896,0.33036 2.54755,4.12708 5.06352,6.82928c5.88506,6.32066 12.9188,16.10459 11.60381,29.31587c-1.10674,11.11903 -9.91355,17.90717 -15.36872,23.66114c-3.79751,4.00553 -3.54804,8.94212 -8.09646,8.48939c-4.13637,-0.41172 -2.92912,-5.10894 -5.75948,-9.07721c-4.75284,-6.66365 -12.0844,-15.24769 -10.90786,-27.06794c1.2005,-12.06103 11.72198,-19.76399 17.87443,-25.28705c3.46788,-3.11311 1.59587,-7.26112 5.59075,-6.86349z" fill="#ffff00" stroke="#000000"/><path d="M279.63756,147.19812c3.31896,0.33036 2.54755,4.12709 5.06352,6.82929c5.88505,6.32066 12.9188,16.10459 11.60381,29.31587c-1.10674,11.11903 -9.91356,17.90716 -15.36872,23.66114c-3.79751,4.00553 -3.54803,8.94211 -8.09646,8.48939c-4.13638,-0.41172 -2.92912,-5.10894 -5.75948,-9.0772c-4.75284,-6.66365 -12.08439,-15.24769 -10.90786,-27.06794c1.2005,-12.06103 11.72198,-19.76398 17.87443,-25.28705c3.46788,-3.11311 1.59587,-7.26113 5.59075,-6.86349z" fill="#ffff00" stroke="#000000"/><path d="M89.03824,225.23895l0.61362,-12.98551l291.67454,13.78278l-0.61362,12.98551z" fill="#ffff00" stroke="#000000"/><path d="M98.6736,133.96377l0.61362,-12.98551l291.67454,13.78278l-0.61362,12.98552z" fill="#ffff00" stroke="#000000"/></g></g></svg>