<svg version="1.1" xmlns="http://www.w3.org/2000/svg" xmlns:xlink="http://www.w3.org/1999/xlink" width="39.38654" height="46.64027" viewBox="0,0,39.38654,46.64027"><g transform="translate(-220.30673,-156.67987)"><g data-paper-data="{&quot;isPaintingLayer&quot;:true}" fill="#00c7ff" fill-rule="nonzero" stroke="#000000" stroke-width="0" stroke-linecap="square" stroke-linejoin="miter" stroke-miterlimit="10" stroke-dasharray="" stroke-dashoffset="0" style="mix-blend-mode: normal"><path d="M221.77018,167.56044c-0.33934,-0.59386 -0.67873,-1.35741 -1.01807,-2.29065c-0.29695,-0.97563 -0.44538,-1.9937 -0.44538,-3.0542c0,-1.9937 0.44542,-3.41476 1.33623,-4.26314c0.89081,-0.84838 2.05735,-1.27258 3.49963,-1.27258h33.08719c0.38178,0.55147 0.72112,1.31502 1.01807,2.29065c0.29691,0.93324 0.44542,1.93009 0.44542,2.99059c0,1.99374 -0.44538,3.43598 -1.33619,4.32679c-0.89081,0.84842 -2.03613,1.27258 -3.43598,1.27258h-8.46267v35.05972c-0.55147,0.16969 -1.42106,0.31817 -2.60878,0.44542c-1.18776,0.16969 -2.35426,0.25452 -3.49959,0.25452c-1.18776,0 -2.227,-0.08483 -3.11781,-0.25452c-0.89081,-0.16965 -1.63314,-0.48782 -2.227,-0.95442c-0.59386,-0.4666 -1.0605,-1.10289 -1.39984,-1.90888c-0.29695,-0.80594 -0.44538,-1.86644 -0.44538,-3.18146v-29.46031z"/></g></g></svg>