<svg version="1.1" xmlns="http://www.w3.org/2000/svg" xmlns:xlink="http://www.w3.org/1999/xlink" width="44.09493" height="47.34028" viewBox="0,0,44.09493,47.34028"><g transform="translate(-217.95254,-156.32986)"><g data-paper-data="{&quot;isPaintingLayer&quot;:true}" fill="#00c7ff" fill-rule="nonzero" stroke="#000000" stroke-width="0" stroke-linecap="square" stroke-linejoin="miter" stroke-miterlimit="10" stroke-dasharray="" stroke-dashoffset="0" style="mix-blend-mode: normal"><path d="M238.05924,157.34789c0.97568,-0.29695 2.07857,-0.53025 3.30872,-0.6999c1.27258,-0.21212 2.41791,-0.31813 3.43598,-0.31813c1.14533,0 2.24826,0.10604 3.30872,0.31817c1.10293,0.21208 2.07857,0.59386 2.92694,1.14533c0.89081,0.55143 1.59075,1.27258 2.09978,2.16339c0.50903,0.89081 0.76355,2.03613 0.76355,3.43598v20.17048h6.7447c0.29695,0.55143 0.5939,1.2938 0.89081,2.22704c0.33938,0.89081 0.50903,1.84527 0.50903,2.86334c0,1.95127 -0.44538,3.32994 -1.33619,4.13592c-0.84838,0.80594 -1.93009,1.20898 -3.24507,1.20898h-3.56324v8.97174c-0.55143,0.08483 -1.39984,0.21208 -2.54517,0.38178c-1.10289,0.21208 -2.16339,0.31813 -3.18146,0.31813c-1.10289,0 -2.09974,-0.06361 -2.99055,-0.19087c-0.84838,-0.08487 -1.56949,-0.31813 -2.16339,-0.6999c-0.55143,-0.38178 -0.97563,-0.93324 -1.27258,-1.65436c-0.29691,-0.72116 -0.44538,-1.67558 -0.44538,-2.86329v-4.26314h-19.08877c-1.18772,-0.5939 -2.20579,-1.48471 -3.0542,-2.67243c-0.80594,-1.23019 -1.20893,-2.69364 -1.20893,-4.3904c0,-0.97568 0.12726,-2.03613 0.38178,-3.18146c0.25452,-1.18776 0.67873,-2.20583 1.27258,-3.0542zM241.94065,169.31018h-0.19087l-10.11703,14.25294h10.30793z"/></g></g></svg>