<svg version="1.1" xmlns="http://www.w3.org/2000/svg" xmlns:xlink="http://www.w3.org/1999/xlink" width="14.12574" height="54.65742" viewBox="0,0,14.12574,54.65742"><g transform="translate(-232.93713,-148.42129)"><g data-paper-data="{&quot;isPaintingLayer&quot;:true}" fill="#00c7ff" fill-rule="nonzero" stroke="#000000" stroke-width="0" stroke-linecap="square" stroke-linejoin="miter" stroke-miterlimit="10" stroke-dasharray="" stroke-dashoffset="0" style="mix-blend-mode: normal"><path d="M232.93713,155.29321c0,-1.95127 0.63629,-3.58445 1.90888,-4.89943c1.31502,-1.31498 3.03299,-1.97249 5.15399,-1.97249c2.16339,0 3.8814,0.65751 5.15399,1.97253c1.27258,1.31502 1.90888,2.94816 1.90888,4.89947c0,1.90888 -0.63629,3.52084 -1.90888,4.83582c-1.27258,1.31502 -2.99055,1.97253 -5.15395,1.97253c-2.12096,0 -3.83897,-0.65751 -5.15395,-1.97249c-1.27258,-1.31498 -1.90888,-2.92694 -1.90888,-4.83582zM246.49017,202.37876c-0.55143,0.08483 -1.37863,0.21208 -2.48152,0.38178c-1.10289,0.21208 -2.20579,0.31817 -3.30872,0.31817c-1.10289,0 -2.09974,-0.08487 -2.99055,-0.25452c-0.89081,-0.16969 -1.65436,-0.46664 -2.29065,-0.89081c-0.59386,-0.46664 -1.06046,-1.08168 -1.39984,-1.84523c-0.29691,-0.80598 -0.44538,-1.84523 -0.44538,-3.11781v-30.92376c0.55147,-0.08483 1.35745,-0.21208 2.41791,-0.38178c1.10293,-0.21208 2.22704,-0.31813 3.37237,-0.31813c1.10293,0 2.09978,0.08487 2.99059,0.25452c0.89081,0.12726 1.63314,0.42421 2.22704,0.89081c0.5939,0.46664 1.0605,1.10293 1.39984,1.90888c0.33938,0.76355 0.50903,1.78162 0.50903,3.0542z"/></g></g></svg>