<svg version="1.1" xmlns="http://www.w3.org/2000/svg" xmlns:xlink="http://www.w3.org/1999/xlink" width="299.11174" height="107.81512" viewBox="0,0,299.11174,107.81512"><g transform="translate(-90.44413,-126.09244)"><g data-paper-data="{&quot;isPaintingLayer&quot;:true}" fill-rule="nonzero" stroke-width="1" stroke-linecap="butt" stroke-linejoin="miter" stroke-miterlimit="10" stroke-dasharray="" stroke-dashoffset="0" style="mix-blend-mode: normal"><text transform="translate(102.54196,196.55789) rotate(0.51549) scale(1.10672,1.10672)" font-size="40" xml:space="preserve" fill="#ffffff" fill-rule="nonzero" stroke="none" stroke-width="1" stroke-linecap="butt" stroke-linejoin="miter" stroke-miterlimit="10" stroke-dasharray="" stroke-dashoffset="0" font-family="Pixel" font-weight="normal" text-anchor="start" style="mix-blend-mode: normal"><tspan x="0" dy="0">LEMONOIDS</tspan></text><path d="M213.41705,143.16236c3.32944,0.19868 2.70897,4.02297 5.32996,6.62343c6.13072,6.08268 13.54635,15.58043 12.7555,28.83341c-0.6656,11.15413 -9.19672,18.28566 -14.41978,24.25113c-3.63593,4.15276 -3.19118,9.0756 -7.75396,8.80332c-4.14943,-0.24761 -3.12912,-4.98895 -6.11439,-8.84204c-5.01297,-6.47023 -12.67867,-14.75724 -11.97109,-26.6148c0.72199,-12.09911 10.93021,-20.21264 16.85914,-25.97498c3.34189,-3.24798 1.30711,-7.31862 5.3146,-7.07948z" fill="#ffff00" stroke="#000000"/><path d="M278.30765,145.65435c3.32944,0.19868 2.70897,4.02298 5.32996,6.62344c6.13071,6.08268 13.54635,15.58043 12.7555,28.83341c-0.6656,11.15413 -9.19673,18.28566 -14.41978,24.25113c-3.63593,4.15276 -3.19117,9.07559 -7.75396,8.80332c-4.14944,-0.24761 -3.12912,-4.98895 -6.11439,-8.84203c-5.01297,-6.47023 -12.67866,-14.75724 -11.97109,-26.6148c0.72199,-12.09911 10.93021,-20.21263 16.85914,-25.97498c3.34189,-3.24798 1.30711,-7.31863 5.3146,-7.07948z" fill="#ffff00" stroke="#000000"/><path d="M90.94792,231.18098l0.09896,-12.99962l291.99154,2.22279l-0.09896,12.99962z" fill="#ffff00" stroke="#000000"/><path d="M96.96158,139.59585l0.09896,-12.99962l291.99154,2.22279l-0.09896,12.99963z" fill="#ffff00" stroke="#000000"/></g></g></svg>