<svg version="1.1" xmlns="http://www.w3.org/2000/svg" xmlns:xlink="http://www.w3.org/1999/xlink" width="296.53778" height="112.1604" viewBox="0,0,296.53778,112.1604"><g transform="translate(-91.7311,-123.91981)"><g data-paper-data="{&quot;isPaintingLayer&quot;:true}" fill-rule="nonzero" stroke-width="1" stroke-linecap="butt" stroke-linejoin="miter" stroke-miterlimit="10" stroke-dasharray="" stroke-dashoffset="0" style="mix-blend-mode: normal"><text transform="translate(103.09213,200.61833) rotate(-1.18037) scale(1.10672,1.10672)" font-size="40" xml:space="preserve" fill="#ffffff" fill-rule="nonzero" stroke="none" stroke-width="1" stroke-linecap="butt" stroke-linejoin="miter" stroke-miterlimit="10" stroke-dasharray="" stroke-dashoffset="0" font-family="Pixel" font-weight="normal" text-anchor="start" style="mix-blend-mode: normal"><tspan x="0" dy="0">LEMONOIDS</tspan></text><path d="M212.33859,143.96514c3.33386,0.10006 2.82683,3.94105 5.52363,6.46282c6.30803,5.8986 14.00148,15.17275 13.60316,28.44331c-0.33523,11.16894 -8.65159,18.54981 -13.69582,24.66723c-3.51145,4.25854 -2.9212,9.16607 -7.49006,9.02892c-4.15495,-0.12471 -3.27539,-4.89417 -6.37338,-8.65722c-5.20224,-6.31905 -13.10981,-14.37559 -12.75344,-26.2489c0.36364,-12.11517 10.32729,-20.52723 16.08311,-26.46249c3.24432,-3.34545 1.08996,-7.35411 5.10277,-7.23366z" fill="#ffff00" stroke="#000000"/><path d="M277.27452,144.53579c3.33386,0.10006 2.82683,3.94105 5.52363,6.46282c6.30803,5.8986 14.00148,15.17275 13.60316,28.44331c-0.33523,11.16894 -8.65159,18.54981 -13.69582,24.66723c-3.51145,4.25854 -2.9212,9.16607 -7.49006,9.02892c-4.15495,-0.12471 -3.27539,-4.89417 -6.37338,-8.65722c-5.20225,-6.31905 -13.10981,-14.37559 -12.75344,-26.2489c0.36363,-12.11518 10.32728,-20.52723 16.08311,-26.46249c3.24432,-3.34545 1.08996,-7.35411 5.10277,-7.23366z" fill="#ffff00" stroke="#000000"/><path d="M92.52775,235.56934l-0.28577,-12.99685l291.92944,-6.41885l0.28577,12.99684z" fill="#ffff00" stroke="#000000"/><path d="M95.82859,143.84637l-0.28577,-12.99684l291.92944,-6.41885l0.28576,12.99686z" fill="#ffff00" stroke="#000000"/></g></g></svg>