<svg version="1.1" xmlns="http://www.w3.org/2000/svg" xmlns:xlink="http://www.w3.org/1999/xlink" width="39.83196" height="39.25911" viewBox="0,0,39.83196,39.25911"><g transform="translate(-220.08402,-164.37045)"><g data-paper-data="{&quot;isPaintingLayer&quot;:true}" fill="#00c7ff" fill-rule="nonzero" stroke="#000000" stroke-width="0" stroke-linecap="square" stroke-linejoin="miter" stroke-miterlimit="10" stroke-dasharray="" stroke-dashoffset="0" style="mix-blend-mode: normal"><path d="M259.91582,183.96813c0,3.13903 -0.48782,5.93871 -1.46345,8.39906c-0.97563,2.4603 -2.33304,4.53887 -4.07227,6.23566c-1.73919,1.65436 -3.83897,2.90573 -6.29927,3.75414c-2.41791,0.84838 -5.11155,1.27258 -8.08089,1.27258c-3.01177,0 -5.72663,-0.44538 -8.14454,-1.33619c-2.41791,-0.93324 -4.51765,-2.24826 -6.29927,-3.94501c-1.73919,-1.69679 -3.09659,-3.7541 -4.07227,-6.17201c-0.9332,-2.46034 -1.39984,-5.19638 -1.39984,-8.20815c0,-3.01181 0.46664,-5.72663 1.39984,-8.14454c0.97568,-2.41791 2.33308,-4.47526 4.07227,-6.17201c1.78162,-1.69679 3.8814,-2.99055 6.29931,-3.88136c2.41791,-0.93324 5.13277,-1.39984 8.14454,-1.39984c2.96938,0 5.66302,0.4666 8.08093,1.39984c2.46034,0.9332 4.56009,2.24822 6.29931,3.94501c1.73923,1.69675 3.09664,3.77532 4.07227,6.23566c0.97568,2.41791 1.46349,5.09034 1.46349,8.01728zM233.3188,183.96813c0,3.09659 0.5939,5.47211 1.78162,7.12647c1.18776,1.61193 2.84212,2.41791 4.96308,2.41791c2.121,0 3.75414,-0.82716 4.89947,-2.48152c1.14533,-1.69679 1.71801,-4.05105 1.71801,-7.06282c0,-3.0542 -0.59386,-5.38729 -1.78162,-6.99921c-1.14533,-1.65436 -2.77847,-2.48152 -4.89943,-2.48152c-2.12096,0 -3.77532,0.8272 -4.96308,2.48156c-1.14533,1.61193 -1.71797,3.94501 -1.71797,6.99921z"/></g></g></svg>