<svg version="1.1" xmlns="http://www.w3.org/2000/svg" xmlns:xlink="http://www.w3.org/1999/xlink" width="36.33242" height="38.30491" viewBox="0,0,36.33242,38.30491"><g transform="translate(-221.83379,-164.59755)"><g data-paper-data="{&quot;isPaintingLayer&quot;:true}" fill="#00c7ff" fill-rule="nonzero" stroke="#000000" stroke-width="0" stroke-linecap="square" stroke-linejoin="miter" stroke-miterlimit="10" stroke-dasharray="" stroke-dashoffset="0" style="mix-blend-mode: normal"><path d="M221.83379,171.15134c0.38178,-1.90888 1.16654,-3.47837 2.3543,-4.70856c1.23015,-1.23015 2.71482,-1.84523 4.45405,-1.84523c1.69675,0 2.99059,0.42421 3.8814,1.27258c0.9332,0.80598 1.95127,1.93009 3.0542,3.37237l4.83582,6.36292l8.14454,-11.00783c2.79969,0 5.00547,0.50903 6.61744,1.5271c1.61193,0.97568 2.41791,2.29065 2.41791,3.94501c0,0.67873 -0.08487,1.2938 -0.25452,1.84527c-0.16969,0.50903 -0.44538,1.03928 -0.82716,1.59075c-0.33938,0.55147 -0.78477,1.18776 -1.33619,1.90888c-0.55147,0.72116 -1.20893,1.54832 -1.97249,2.48156l-5.02669,5.66302l9.98981,13.10762c-0.25452,1.95131 -1.01807,3.47841 -2.29065,4.5813c-1.27258,1.10293 -2.79969,1.65436 -4.5813,1.65436c-1.90888,-0.04239 -3.43598,-0.59386 -4.5813,-1.65436c-1.14533,-1.06046 -2.24826,-2.35426 -3.30872,-3.88136l-4.13588,-5.85389l-7.69911,11.19874c-0.25452,0 -0.55147,0 -0.89081,0c-0.29695,0.04243 -0.53025,0.06365 -0.6999,0.06365c-2.5876,0 -4.56009,-0.53025 -5.9175,-1.59071c-1.35745,-1.06046 -2.03613,-2.37548 -2.03613,-3.94501c0,-1.23015 0.29691,-2.31187 0.89081,-3.24507c0.59386,-0.9332 1.59075,-2.20579 2.99059,-3.81775l6.1084,-7.12647z"/></g></g></svg>