<svg version="1.1" xmlns="http://www.w3.org/2000/svg" xmlns:xlink="http://www.w3.org/1999/xlink" width="34.29609" height="47.34022" viewBox="0,0,34.29609,47.34022"><g transform="translate(-222.85195,-156.32989)"><g data-paper-data="{&quot;isPaintingLayer&quot;:true}" fill="#00c7ff" fill-rule="nonzero" stroke="#000000" stroke-width="0" stroke-linecap="square" stroke-linejoin="miter" stroke-miterlimit="10" stroke-dasharray="" stroke-dashoffset="0" style="mix-blend-mode: normal"><path d="M238.50461,156.32989c2.88451,0 5.42968,0.38178 7.63551,1.14533c2.24822,0.72112 4.1571,1.71801 5.72663,2.99059c1.56949,1.23015 2.75725,2.71482 3.56324,4.45405c0.80594,1.73919 1.20898,3.58445 1.20898,5.53576c0,5.34485 -3.01181,10.41398 -9.03535,15.2074l-9.92616,7.95367h18.19796c0.29691,0.59386 0.57268,1.31498 0.8272,2.16339c0.29691,0.84838 0.44542,1.78162 0.44542,2.79969c0,1.82401 -0.40299,3.13903 -1.20893,3.94501c-0.80598,0.76355 -1.86648,1.14533 -3.18146,1.14533h-26.3425c-1.10293,-0.76355 -1.97249,-1.73923 -2.60878,-2.92694c-0.63629,-1.18776 -0.95442,-2.5876 -0.95442,-4.19953c0,-1.73923 0.33934,-3.20268 1.01807,-4.3904c0.72112,-1.18776 1.5271,-2.14218 2.41791,-2.86329l10.43519,-8.9717c1.31498,-1.10293 2.39669,-2.09974 3.24511,-2.99055c0.89081,-0.89081 1.59075,-1.67558 2.09978,-2.35426c0.55143,-0.72116 0.9332,-1.37863 1.14533,-1.97249c0.25452,-0.63629 0.38178,-1.23019 0.38178,-1.78162c0,-1.39984 -0.63629,-2.50278 -1.90888,-3.30872c-1.23019,-0.80598 -2.75729,-1.20893 -4.5813,-1.20893c-1.99374,0 -3.79654,0.31817 -5.40846,0.95446c-1.61197,0.59386 -2.94816,1.25137 -4.00862,1.97253c-0.84842,-0.5939 -1.54832,-1.33619 -2.09974,-2.227c-0.55147,-0.93324 -0.82716,-2.01492 -0.82716,-3.24507c0,-2.63003 1.23015,-4.5813 3.69049,-5.85389c2.50274,-1.31502 5.85389,-1.97249 10.05342,-1.97249z"/></g></g></svg>