<svg version="1.1" xmlns="http://www.w3.org/2000/svg" xmlns:xlink="http://www.w3.org/1999/xlink" width="39.00473" height="47.97651" viewBox="0,0,39.00473,47.97651"><g transform="translate(-220.49764,-156.01174)"><g data-paper-data="{&quot;isPaintingLayer&quot;:true}" fill="#00c7ff" fill-rule="nonzero" stroke="#000000" stroke-width="0" stroke-linecap="square" stroke-linejoin="miter" stroke-miterlimit="10" stroke-dasharray="" stroke-dashoffset="0" style="mix-blend-mode: normal"><path d="M233.66879,188.46252v14.57111c-0.55147,0.16969 -1.42106,0.31817 -2.60878,0.44542c-1.18776,0.16969 -2.35426,0.25452 -3.49959,0.25452c-1.18776,0 -2.227,-0.08483 -3.11781,-0.25452c-0.89081,-0.16969 -1.63314,-0.48782 -2.227,-0.95442c-0.55147,-0.4666 -0.97563,-1.10289 -1.27258,-1.90888c-0.29695,-0.80598 -0.44538,-1.86644 -0.44538,-3.18146v-35.82323c0,-1.0605 0.27573,-1.86644 0.8272,-2.41791c0.59386,-0.59386 1.39984,-1.0605 2.41791,-1.39984c1.73919,-0.63629 3.73293,-1.08168 5.98115,-1.33619c2.29065,-0.29695 4.72978,-0.44538 7.31734,-0.44538c6.99921,0 12.25924,1.48467 15.78005,4.45405c3.56324,2.92694 5.34485,6.89317 5.34485,11.89868c0,3.13903 -0.82716,5.83267 -2.48152,8.08093c-1.61193,2.20583 -3.5208,3.92379 -5.72663,5.15399c1.82405,2.46034 3.60567,4.79339 5.34485,6.99921c1.78162,2.16339 3.18146,4.13592 4.19953,5.91754c-0.50903,1.73919 -1.44224,3.09664 -2.79969,4.07227c-1.31498,0.93324 -2.79969,1.39984 -4.45405,1.39984c-1.14533,0 -2.12096,-0.12726 -2.92694,-0.38178c-0.80594,-0.25452 -1.50588,-0.61508 -2.09974,-1.08168c-0.59386,-0.4666 -1.14533,-1.01807 -1.65436,-1.65436c-0.50903,-0.67873 -0.99685,-1.39984 -1.46345,-2.16339l-6.36292,-10.24428zM238.50461,178.34545c1.90888,0 3.41476,-0.48782 4.51769,-1.46345c1.10293,-0.97563 1.65436,-2.43913 1.65436,-4.3904c0,-1.90888 -0.61508,-3.35115 -1.84523,-4.32679c-1.23015,-1.01807 -3.18146,-1.5271 -5.85389,-1.5271c-0.76355,0 -1.37863,0.04243 -1.84523,0.12726c-0.4666,0.04243 -0.97563,0.10604 -1.5271,0.19091v11.38965z"/></g></g></svg>