<svg version="1.1" xmlns="http://www.w3.org/2000/svg" xmlns:xlink="http://www.w3.org/1999/xlink" width="34.3597" height="46.83119" viewBox="0,0,34.3597,46.83119"><g transform="translate(-222.82015,-156.58441)"><g data-paper-data="{&quot;isPaintingLayer&quot;:true}" fill="#00c7ff" fill-rule="nonzero" stroke="#000000" stroke-width="0" stroke-linecap="square" stroke-linejoin="miter" stroke-miterlimit="10" stroke-dasharray="" stroke-dashoffset="0" style="mix-blend-mode: normal"><path d="M253.80748,156.58441c0.84842,0.55143 1.61197,1.33623 2.29065,2.3543c0.72116,0.97563 1.08172,2.18461 1.08172,3.62689c0,0.80594 -0.08483,1.63314 -0.25452,2.48156c-0.16965,0.84838 -0.42417,1.67558 -0.76355,2.48156l-15.78005,35.75962c-0.72112,0.08483 -1.39984,0.12726 -2.03613,0.12726c-0.63629,0 -1.23015,0 -1.78162,0c-2.29065,0 -4.1571,-0.42421 -5.59937,-1.27258c-1.39984,-0.89081 -2.09974,-2.39669 -2.09974,-4.51765c0,-1.0605 0.25452,-2.20583 0.76355,-3.43598c0.50903,-1.27258 1.20898,-2.75729 2.09978,-4.45405l11.07148,-22.71561h-18.64334c-0.29691,-0.5939 -0.59386,-1.33619 -0.89081,-2.227c-0.29691,-0.89081 -0.44538,-1.84523 -0.44538,-2.86329c0,-1.95131 0.42421,-3.32994 1.27258,-4.13588c0.84842,-0.80598 1.95131,-1.20893 3.30872,-1.20893z"/></g></g></svg>