<svg version="1.1" xmlns="http://www.w3.org/2000/svg" xmlns:xlink="http://www.w3.org/1999/xlink" width="25.00622" height="47.91287" viewBox="0,0,25.00622,47.91287"><g transform="translate(-227.49689,-156.04357)"><g data-paper-data="{&quot;isPaintingLayer&quot;:true}" fill="#00c7ff" fill-rule="nonzero" stroke="#000000" stroke-width="0" stroke-linecap="square" stroke-linejoin="miter" stroke-miterlimit="10" stroke-dasharray="" stroke-dashoffset="0" style="mix-blend-mode: normal"><path d="M239.20455,156.67987c0.55147,-0.08487 1.42106,-0.21212 2.60882,-0.38178c1.23015,-0.16969 2.41791,-0.25452 3.56324,-0.25452c1.14533,0 2.16339,0.08483 3.0542,0.25452c0.89081,0.16965 1.63314,0.48782 2.22704,0.95446c0.63629,0.4666 1.10293,1.10289 1.39984,1.90888c0.29695,0.80594 0.44542,1.86644 0.44542,3.18146v28.12411c0,4.49644 -1.2938,7.86881 -3.88136,10.11707c-2.58756,2.24822 -6.38414,3.37237 -11.38961,3.37237c-2.62999,0 -4.751,-0.40299 -6.36292,-1.20893c-1.18776,-0.55147 -2.05735,-1.31502 -2.60878,-2.29065c-0.50903,-0.97568 -0.76355,-2.05735 -0.76355,-3.24507c0,-1.01807 0.12726,-1.90888 0.38178,-2.67243c0.29695,-0.76355 0.65751,-1.37863 1.08172,-1.84523c0.93324,0.21208 1.73919,0.36056 2.41791,0.44542c0.72112,0.08483 1.48467,0.12726 2.29065,0.12726c1.95131,0 3.35115,-0.48782 4.19953,-1.46345c0.89081,-1.01807 1.33623,-2.48152 1.33623,-4.3904z"/></g></g></svg>