<svg version="1.1" xmlns="http://www.w3.org/2000/svg" xmlns:xlink="http://www.w3.org/1999/xlink" width="33.7873" height="46.32224" viewBox="0,0,33.7873,46.32224"><g transform="translate(-223.10635,-156.83888)"><g data-paper-data="{&quot;isPaintingLayer&quot;:true}" fill="#00c7ff" fill-rule="nonzero" stroke="#000000" stroke-width="0" stroke-linecap="square" stroke-linejoin="miter" stroke-miterlimit="10" stroke-dasharray="" stroke-dashoffset="0" style="mix-blend-mode: normal"><path d="M223.10635,163.90171c0,-2.16339 0.61508,-3.88136 1.84527,-5.15395c1.27258,-1.27258 3.01177,-1.90888 5.2176,-1.90888h25.06991c0.33934,0.59386 0.63629,1.35741 0.89081,2.29065c0.29691,0.89081 0.44542,1.82401 0.44542,2.79969c0,1.95127 -0.42421,3.32994 -1.27258,4.13592c-0.80598,0.80594 -1.88766,1.20898 -3.24507,1.20898h-16.03456v7.06286h17.05263c0.38178,0.55143 0.69994,1.27258 0.95446,2.16339c0.29691,0.89081 0.44542,1.84527 0.44542,2.86334c0,1.90888 -0.40299,3.26629 -1.20893,4.07227c-0.80598,0.80594 -1.90888,1.20898 -3.30872,1.20898h-13.93478v8.01728h19.47054c0.38178,0.55143 0.69994,1.2938 0.95446,2.22704c0.29691,0.89081 0.44542,1.84527 0.44542,2.86334c0,1.90888 -0.42421,3.2875 -1.27258,4.13592c-0.80598,0.84838 -1.90888,1.27258 -3.30872,1.27258h-22.14297c-2.20583,0 -3.94501,-0.63629 -5.2176,-1.90888c-1.23015,-1.27258 -1.84523,-2.99055 -1.84523,-5.15395z"/></g></g></svg>