<svg version="1.1" xmlns="http://www.w3.org/2000/svg" xmlns:xlink="http://www.w3.org/1999/xlink" width="501" height="378" viewBox="0,0,501,378"><defs><linearGradient x1="-10.5" y1="180" x2="490.5" y2="180" gradientUnits="userSpaceOnUse" id="color-1"><stop offset="0" stop-color="#00f3ff"/><stop offset="1" stop-color="#cc00ff"/></linearGradient><linearGradient x1="-3" y1="180.00001" x2="483.00002" y2="180.00001" gradientUnits="userSpaceOnUse" id="color-2"><stop offset="0" stop-color="#00f3ff"/><stop offset="1" stop-color="#cc00ff"/></linearGradient></defs><g transform="translate(10.5,9)"><g data-paper-data="{&quot;isPaintingLayer&quot;:true}" stroke="none" stroke-linecap="butt" stroke-linejoin="miter" stroke-miterlimit="10" stroke-dasharray="" stroke-dashoffset="0" style="mix-blend-mode: normal"><path d="M-10.5,369v-378h501v378z" fill="url(#color-1)" fill-rule="nonzero" stroke-width="0"/><path d="M279.59276,1.08333h-69.60836v0.54518l34.80469,20.09422l34.80367,-20.09422zM141.24274,1.08333h67.72005l0.94466,0.54518v40.1885l-34.80469,20.09418l-34.52017,-19.93056v39.86121l34.52017,-19.93066l34.80469,20.09428v40.18805l-34.80469,20.09509l-34.15972,-19.72249v39.44396l34.15972,-19.72148l34.80469,20.09408v40.18815l-34.80469,20.09408l-34.52017,-19.93005v39.86111l34.52017,-19.93106l34.80469,20.09408v39.65355l33.87724,-19.55948l34.80368,20.09509v40.02413l34.52119,-19.93005l34.80367,20.09407v40.18815l-3.9123,2.25889h-61.78376l-3.3453,-1.93185v1.93185h-69.60836v-2.25889l34.80368,-20.09407l34.23769,19.76704v-39.69709l-34.52017,19.93005l-34.80469,-20.09408v-39.65355l-33.87724,19.55948l-34.80367,-20.09407v-40.02514l-34.52119,19.93005l-34.80418,-20.09408v-40.18815l34.80418,-20.09408l34.52119,19.93005v-39.65254l-34.16074,19.72249l-34.80398,-20.09407v-40.18916l34.80398,-20.09387l34.16074,19.72229v-39.65284l-34.52119,19.93056l-34.80418,-20.09418v-40.18845l34.80418,-20.09428l34.52119,19.93066v-39.65304l-34.16074,19.72239l-34.80398,-20.09422v-0.54518h69.60867v0.17334zM1.94888,1.08333h67.71993l0.94426,0.54518v40.1885l-34.80418,20.09418l-34.80429,-20.09418v-40.1885zM0,323.13629v40.18815l3.91213,2.25889h61.78424l3.9121,-2.25889v-40.18815l-34.80418,-20.09407zM204.99075,365.58333l3.9123,-2.25889v-40.18815l-34.80469,-20.09407l-34.15973,19.72249v-39.81656l-34.80469,-20.09509l-34.52088,19.93106v-40.02514l-34.80418,-20.09408l34.80418,-20.09408v-40.18815l-34.80418,-20.09408l-34.80429,20.09408v40.18815l34.80429,20.09408l-34.80429,20.09408v40.18916l34.80429,20.09407l34.52088,-19.93106v40.02514l34.80418,20.09408l34.16074,-19.72249v39.65355l-34.52119,-19.93106l-34.80438,20.09407v2.25889h69.60806v-2.09486l3.6288,2.09486zM35.80889,61.91119l34.80418,20.09428v40.18805l-34.80418,20.09509l-34.80429,-20.09509v-40.18805zM486,364.02206l-2.70439,1.56128h-61.78376l-3.6288,-2.09486v2.09486h-69.60937v-2.25889l34.80469,-20.09407l34.52119,19.93106v-39.65355l-34.16074,19.72249l-34.80368,-20.09408v-40.02514l-34.52119,19.93106l-34.80367,-20.09407v-39.86212l-34.23769,19.76704l-34.80469,-20.09408v-40.18815l34.80469,-20.09408l34.23769,19.76704v-39.6981l-34.52119,19.93106l-34.80469,-20.09407v-40.18916l34.80469,-20.09387l34.52119,19.93086v-39.02033l34.80367,-20.09428l34.80469,20.09428v40.18876l-33.93394,19.59188l33.93394,19.59187v40.18815l-34.80469,20.09408l-34.23769,-19.76704v39.53407l34.23769,-19.76704l34.80469,20.09408v40.02514l34.52018,-19.93106l34.80469,20.09509v39.81656l34.15973,-19.72249l33.59678,19.39646zM486,241.48222v42.74269l-32.59136,18.81731l-34.80469,-20.09407v-40.02514l-34.52119,19.93005l-34.80367,-20.09408v-40.18815l34.80367,-20.09408l34.52119,19.93005v-39.65254l-34.15973,19.72249l-34.80469,-20.09407v-40.18916l33.75371,-19.48759l-34.11416,-19.69576v-40.18845l34.80367,-20.09428l34.52119,19.93066v-39.65303l-34.15973,19.72238l-34.80469,-20.09422v-1.54989h69.60836v1.17805l2.0412,-1.17805h64.23907l0.47183,0.27251v42.74325l-32.59136,18.81681l-34.52119,-19.93056v39.86121l34.52119,-19.93066l32.59136,18.81691v42.74289l-31.72162,18.31511l31.72162,18.3141v42.7437l-32.59136,18.8163l-34.52119,-19.93005v39.86111l34.52119,-19.93106zM346.23349,1.08333l2.68515,1.54989v40.18849l-34.80469,20.09418l-34.23769,-19.76714v38.85671l-34.80367,20.09418l-34.80469,-20.09418v-40.18845l34.80469,-20.09428l34.23769,19.76714v-38.85665l2.68414,-1.54989zM279.59276,123.36194l33.65145,19.42886l-33.65145,19.42785zM418.60395,83.17379l-33.47021,19.32457l33.47021,19.32356zM452.53789,142.79081l-33.28999,19.21927v-38.43956z" fill="#050505" fill-rule="evenodd" stroke-width="1"/><path d="M276.59276,-2.25h-69.60836v0.54518l34.80469,20.09422l34.80367,-20.09422zM138.24274,-2.25h67.72005l0.94466,0.54518v40.1885l-34.80469,20.09418l-34.52017,-19.93056v39.86121l34.52017,-19.93066l34.80469,20.09428v40.18805l-34.80469,20.09509l-34.15972,-19.72249v39.44396l34.15972,-19.72148l34.80469,20.09408v40.18815l-34.80469,20.09408l-34.52017,-19.93005v39.86111l34.52017,-19.93106l34.80469,20.09408v39.65355l33.87724,-19.55948l34.80368,20.09509v40.02413l34.52119,-19.93005l34.80367,20.09407v40.18815l-3.9123,2.25889h-61.78376l-3.3453,-1.93185v1.93185h-69.60836v-2.25889l34.80368,-20.09407l34.23769,19.76704v-39.69709l-34.52017,19.93005l-34.80469,-20.09408v-39.65355l-33.87724,19.55948l-34.80367,-20.09407v-40.02514l-34.52119,19.93005l-34.80418,-20.09408v-40.18815l34.80418,-20.09408l34.52119,19.93005v-39.65254l-34.16074,19.72249l-34.80398,-20.09407v-40.18916l34.80398,-20.09387l34.16074,19.72229v-39.65284l-34.52119,19.93056l-34.80418,-20.09418v-40.18845l34.80418,-20.09428l34.52119,19.93066v-39.65304l-34.16074,19.72239l-34.80398,-20.09422v-0.54518h69.60867v0.17334zM-1.05112,-2.25h67.71993l0.94426,0.54518v40.1885l-34.80418,20.09418l-34.80429,-20.09418v-40.1885zM-3,319.80296v40.18815l3.91213,2.25889h61.78424l3.9121,-2.25889v-40.18815l-34.80418,-20.09407zM201.99075,362.25l3.9123,-2.25889v-40.18815l-34.80469,-20.09407l-34.15973,19.72249v-39.81656l-34.80469,-20.09509l-34.52088,19.93106v-40.02514l-34.80418,-20.09408l34.80418,-20.09408v-40.18815l-34.80418,-20.09408l-34.80429,20.09408v40.18815l34.80429,20.09408l-34.80429,20.09408v40.18916l34.80429,20.09407l34.52088,-19.93106v40.02514l34.80418,20.09408l34.16074,-19.72249v39.65355l-34.52119,-19.93106l-34.80438,20.09407v2.25889h69.60806v-2.09486l3.6288,2.09486zM32.80889,58.57786l34.80418,20.09428v40.18805l-34.80418,20.09509l-34.80429,-20.09509v-40.18805zM483,360.68873l-2.70439,1.56128h-61.78376l-3.6288,-2.09486v2.09486h-69.60937v-2.25889l34.80469,-20.09407l34.52119,19.93106v-39.65355l-34.16074,19.72249l-34.80368,-20.09408v-40.02514l-34.52119,19.93106l-34.80367,-20.09407v-39.86212l-34.23769,19.76704l-34.80469,-20.09408v-40.18815l34.80469,-20.09408l34.23769,19.76704v-39.6981l-34.52119,19.93106l-34.80469,-20.09407v-40.18916l34.80469,-20.09387l34.52119,19.93086v-39.02033l34.80367,-20.09428l34.80469,20.09428v40.18876l-33.93394,19.59188l33.93394,19.59187v40.18815l-34.80469,20.09408l-34.23769,-19.76704v39.53407l34.23769,-19.76704l34.80469,20.09408v40.02514l34.52018,-19.93106l34.80469,20.09509v39.81656l34.15973,-19.72249l33.59678,19.39646zM483,238.14889v42.74269l-32.59136,18.81731l-34.80469,-20.09407v-40.02514l-34.52119,19.93005l-34.80367,-20.09408v-40.18815l34.80367,-20.09408l34.52119,19.93005v-39.65254l-34.15973,19.72249l-34.80469,-20.09407v-40.18916l33.75371,-19.48759l-34.11416,-19.69576v-40.18845l34.80367,-20.09428l34.52119,19.93066v-39.65303l-34.15973,19.72238l-34.80469,-20.09422v-1.54989h69.60836v1.17805l2.0412,-1.17805h64.23907l0.47183,0.27251v42.74325l-32.59136,18.81681l-34.52119,-19.93056v39.86121l34.52119,-19.93066l32.59136,18.81691v42.74289l-31.72162,18.31511l31.72162,18.3141v42.7437l-32.59136,18.8163l-34.52119,-19.93005v39.86111l34.52119,-19.93106zM343.23349,-2.25l2.68515,1.54989v40.18849l-34.80469,20.09418l-34.23769,-19.76714v38.85671l-34.80367,20.09418l-34.80469,-20.09418v-40.18845l34.80469,-20.09428l34.23769,19.76714v-38.85665l2.68414,-1.54989zM276.59276,120.02861l33.65145,19.42886l-33.65145,19.42785zM415.60395,79.84046l-33.47021,19.32457l33.47021,19.32356zM449.53789,139.45748l-33.28999,19.21927v-38.43956z" fill="url(#color-2)" fill-rule="evenodd" stroke-width="1"/></g></g></svg>