<svg version="1.1" xmlns="http://www.w3.org/2000/svg" xmlns:xlink="http://www.w3.org/1999/xlink" width="32.13295" height="36.84142" viewBox="0,0,32.13295,36.84142"><g transform="translate(-223.93353,-165.82929)"><g data-paper-data="{&quot;isPaintingLayer&quot;:true}" fill="#00c7ff" fill-rule="nonzero" stroke="#000000" stroke-width="0" stroke-linecap="square" stroke-linejoin="miter" stroke-miterlimit="10" stroke-dasharray="" stroke-dashoffset="0" style="mix-blend-mode: normal"><path d="M226.54232,202.6705c-0.80598,-0.72116 -1.44228,-1.54832 -1.90888,-2.48152c-0.46664,-0.97568 -0.6999,-2.07857 -0.6999,-3.30872c0,-1.01807 0.2333,-2.01492 0.69994,-2.99055c0.4666,-0.97568 1.06046,-1.88766 1.78162,-2.73604l13.04401,-15.39827h-13.93478c-0.29695,-0.55147 -0.5939,-1.25137 -0.89081,-2.09974c-0.29695,-0.84842 -0.44538,-1.78162 -0.44538,-2.79969c0,-1.78162 0.38178,-3.0542 1.14533,-3.81775c0.80594,-0.80598 1.86644,-1.20893 3.18146,-1.20893h23.98824c0.80594,0.72112 1.44224,1.56949 1.90888,2.54517c0.4666,0.9332 0.69994,2.01492 0.69994,3.24511c0,1.01807 -0.2333,2.01492 -0.6999,2.99059c-0.46664,0.97563 -1.0605,1.88766 -1.78162,2.73608l-12.78945,15.39827h14.88924c0.33934,0.55143 0.63629,1.25137 0.89081,2.09978c0.29691,0.84838 0.44542,1.78162 0.44542,2.79969c0,1.78162 -0.40299,3.07542 -1.20893,3.8814c-0.76355,0.76355 -1.80283,1.14533 -3.11781,1.14533z"/></g></g></svg>