<svg version="1.1" xmlns="http://www.w3.org/2000/svg" xmlns:xlink="http://www.w3.org/1999/xlink" width="61.27462" height="46.95856" viewBox="0,0,61.27462,46.95856"><g transform="translate(-209.36269,-156.52072)"><g data-paper-data="{&quot;isPaintingLayer&quot;:true}" fill="#00c7ff" fill-rule="nonzero" stroke="#000000" stroke-width="0" stroke-linecap="square" stroke-linejoin="miter" stroke-miterlimit="10" stroke-dasharray="" stroke-dashoffset="0" style="mix-blend-mode: normal"><path d="M233.66858,168.03741c0.55143,-0.25452 1.42106,-0.53025 2.60882,-0.82716c1.18772,-0.33938 2.39669,-0.50903 3.62689,-0.50903c2.12096,0 3.8814,0.31817 5.28125,0.95446c1.44224,0.63629 2.31187,1.54832 2.60882,2.73608c0.55143,2.07853 1.06046,4.02984 1.5271,5.85389c0.50903,1.78162 0.97563,3.49963 1.39984,5.15399c0.4666,1.61193 0.91203,3.24511 1.33623,4.89947c0.4666,1.61193 0.89081,3.30872 1.27258,5.09034h0.38178c0.4666,-3.09664 0.86959,-6.04476 1.20898,-8.84444c0.38178,-2.84212 0.72112,-5.59937 1.01807,-8.2718c0.29691,-2.71486 0.59386,-5.40846 0.89081,-8.08089c0.29691,-2.67243 0.59386,-5.36607 0.89081,-8.08089c1.90888,-1.0605 3.92379,-1.59071 6.0448,-1.59071c1.86644,0 3.47837,0.40299 4.83582,1.20898c1.35741,0.80594 2.03613,2.16339 2.03613,4.07227c0,1.14533 -0.10604,2.73608 -0.31813,4.77221c-0.21212,2.03613 -0.50903,4.32679 -0.89081,6.87196c-0.38178,2.54517 -0.82716,5.2176 -1.33619,8.01728c-0.50903,2.75725 -1.03928,5.4085 -1.59071,7.95367c-0.55147,2.50274 -1.12411,4.79339 -1.71797,6.87196c-0.5939,2.03613 -1.14533,3.60563 -1.65436,4.70856c-0.76355,0.72112 -2.01492,1.31498 -3.7541,1.78162c-1.69679,0.4666 -3.45719,0.69994 -5.2812,0.69994c-2.37552,0 -4.3904,-0.31813 -6.04476,-0.95442c-1.65436,-0.63629 -2.65121,-1.54832 -2.99055,-2.73604c-0.63629,-2.03613 -1.33619,-4.43283 -2.09974,-7.19008c-0.76355,-2.79969 -1.59071,-5.8751 -2.48152,-9.22622c-0.67873,3.30872 -1.39984,6.53257 -2.16339,9.67164c-0.76355,3.13903 -1.44228,5.79028 -2.03613,7.95367c-0.76355,0.72112 -1.90888,1.31498 -3.43598,1.78162c-1.5271,0.4666 -3.20268,0.69994 -5.02669,0.69994c-2.29065,0 -4.36922,-0.31813 -6.23566,-0.95442c-1.82405,-0.63629 -3.01177,-1.54832 -3.56324,-2.73604c-0.4666,-0.89081 -0.97563,-2.227 -1.5271,-4.00862c-0.50903,-1.82405 -1.03928,-3.88136 -1.59071,-6.17201c-0.55147,-2.33308 -1.12411,-4.83582 -1.71797,-7.50825c-0.59386,-2.67243 -1.12411,-5.34485 -1.59071,-8.01728c-0.4666,-2.71486 -0.91203,-5.34485 -1.33619,-7.89002c-0.38178,-2.54517 -0.67873,-4.89943 -0.89081,-7.06282c0.72112,-0.63629 1.69679,-1.23019 2.92694,-1.78162c1.27258,-0.55147 2.65121,-0.82716 4.13592,-0.82716c1.90888,0 3.47841,0.42417 4.70856,1.27258c1.27258,0.80594 2.05735,2.20579 2.3543,4.19953c0.80598,5.13273 1.46349,9.43834 1.97253,12.91675c0.55147,3.43598 0.99685,6.25688 1.33623,8.46271c0.33934,2.20579 0.57268,3.92379 0.69994,5.15399c0.16965,1.18772 0.31817,2.14218 0.44542,2.86334h0.38178c0.4666,-2.03613 0.89081,-3.90262 1.27258,-5.59937c0.42417,-1.73923 0.84838,-3.47841 1.27258,-5.2176c0.42417,-1.78162 0.86959,-3.66928 1.33623,-5.66298c0.4666,-1.99374 0.95446,-4.28439 1.46349,-6.87196z"/></g></g></svg>