<svg version="1.1" xmlns="http://www.w3.org/2000/svg" xmlns:xlink="http://www.w3.org/1999/xlink" width="41.55006" height="46.64015" viewBox="0,0,41.55006,46.64015"><g transform="translate(-219.22497,-156.67993)"><g data-paper-data="{&quot;isPaintingLayer&quot;:true}" fill="#00c7ff" fill-rule="nonzero" stroke="#000000" stroke-width="0" stroke-linecap="square" stroke-linejoin="miter" stroke-miterlimit="10" stroke-dasharray="" stroke-dashoffset="0" style="mix-blend-mode: normal"><path d="M247.53987,202.62014c-0.55143,0.16965 -1.42106,0.31817 -2.60878,0.44542c-1.14533,0.16965 -2.26944,0.25452 -3.37233,0.25452c-2.33304,0 -4.09349,-0.38178 -5.2812,-1.14533c-1.14533,-0.80598 -1.71797,-2.48152 -1.71797,-5.02669v-10.24428c-1.27258,-1.86648 -2.65121,-3.94501 -4.13588,-6.23566c-1.44228,-2.29065 -2.88451,-4.62374 -4.32679,-6.99921c-1.39984,-2.37552 -2.71486,-4.70856 -3.94501,-6.99921c-1.18776,-2.29065 -2.16339,-4.41165 -2.92694,-6.36292c0.63629,-0.89081 1.5271,-1.71797 2.67243,-2.48152c1.14533,-0.76355 2.56639,-1.14533 4.26318,-1.14533c1.95131,0 3.54202,0.40299 4.77221,1.20898c1.27258,0.80594 2.46034,2.33304 3.56324,4.5813l6.29927,12.66223h0.44542c0.72116,-1.56953 1.33623,-2.99055 1.84527,-4.26314c0.55147,-1.31502 1.08172,-2.60878 1.59075,-3.88136c0.50903,-1.31502 1.03928,-2.65121 1.59075,-4.00862c0.55147,-1.39984 1.18776,-3.01181 1.90888,-4.83582c0.89081,-0.46664 1.88766,-0.82716 2.99059,-1.08168c1.14533,-0.25452 2.22704,-0.38178 3.24511,-0.38178c1.78162,0 3.2875,0.4666 4.51769,1.39984c1.23019,0.9332 1.84527,2.33304 1.84527,4.19953c0,0.63629 -0.12726,1.37863 -0.38178,2.22704c-0.25452,0.84838 -0.84838,2.16339 -1.78162,3.94501c-0.89081,1.73919 -2.20579,4.09349 -3.94501,7.06286c-1.73919,2.96934 -4.11466,6.87196 -7.12647,11.70778z" data-paper-data="{&quot;index&quot;:null}"/></g></g></svg>