<svg version="1.1" xmlns="http://www.w3.org/2000/svg" xmlns:xlink="http://www.w3.org/1999/xlink" width="38.49584" height="51.0944" viewBox="0,0,38.49584,51.0944"><g transform="translate(-220.75208,-164.2028)"><g data-paper-data="{&quot;isPaintingLayer&quot;:true}" fill="#00c7ff" fill-rule="nonzero" stroke="#000000" stroke-width="0" stroke-linecap="square" stroke-linejoin="miter" stroke-miterlimit="10" stroke-dasharray="" stroke-dashoffset="0" style="mix-blend-mode: normal"><path d="M228.96023,192.45409c-0.55143,-1.27258 -1.14533,-2.69364 -1.78162,-4.26314c-0.63629,-1.56949 -1.2938,-3.35111 -1.97249,-5.34485c-0.67868,-2.03613 -1.39984,-4.348 -2.16339,-6.93556c-0.72112,-2.62999 -1.48467,-5.64176 -2.29065,-9.03535c0.72116,-0.72112 1.67558,-1.33619 2.86334,-1.84523c1.18776,-0.55143 2.48156,-0.82716 3.8814,-0.82716c1.78162,0 3.24511,0.36056 4.39044,1.08172c1.18776,0.72116 2.05735,2.09978 2.60882,4.13592l5.98115,20.93403h0.31817c0.5939,-1.73919 1.18776,-3.62685 1.78162,-5.66298c0.5939,-2.03613 1.16654,-4.11466 1.71801,-6.23566c0.55147,-2.16339 1.0605,-4.32679 1.5271,-6.49018c0.50903,-2.16339 0.93324,-4.28435 1.27258,-6.36292c1.82405,-0.9332 3.83897,-1.39984 6.0448,-1.39984c1.73923,0 3.18146,0.38178 4.32679,1.14533c1.18776,0.76355 1.78162,2.07857 1.78162,3.94501c0,1.35745 -0.16965,2.94816 -0.50903,4.77221c-0.33934,1.78162 -0.80594,3.69049 -1.39984,5.72663c-0.59386,1.99374 -1.2938,4.07227 -2.09974,6.23566c-0.76355,2.16339 -1.59071,4.28439 -2.48152,6.36292c-0.84838,2.07857 -1.73919,4.05105 -2.67243,5.91754c-0.89081,1.82405 -1.7604,3.45719 -2.60878,4.89947c-1.39984,2.50278 -2.71482,4.53891 -3.94501,6.1084c-1.23015,1.56953 -2.39669,2.79969 -3.49959,3.69049c-1.10289,0.89081 -2.227,1.48471 -3.37233,1.78162c-1.10289,0.33938 -2.24822,0.50903 -3.43598,0.50903c-2.12096,0 -3.86015,-0.63629 -5.2176,-1.90888c-1.31498,-1.23015 -2.09974,-2.86329 -2.35426,-4.89943c1.65436,-1.27258 3.2875,-2.69364 4.89947,-4.26314c1.61197,-1.5271 3.07542,-3.09659 4.39044,-4.70856c-0.84838,-0.25452 -1.78162,-0.84838 -2.79969,-1.78162c-0.97563,-0.9332 -2.03613,-2.69364 -3.18146,-5.2812z"/></g></g></svg>