<svg version="1.1" xmlns="http://www.w3.org/2000/svg" xmlns:xlink="http://www.w3.org/1999/xlink" width="36.33234" height="38.6866" viewBox="0,0,36.33234,38.6866"><g transform="translate(-221.83383,-164.4067)"><g data-paper-data="{&quot;isPaintingLayer&quot;:true}" fill="#00c7ff" fill-rule="nonzero" stroke="#000000" stroke-width="0" stroke-linecap="square" stroke-linejoin="miter" stroke-miterlimit="10" stroke-dasharray="" stroke-dashoffset="0" style="mix-blend-mode: normal"><path d="M245.24925,179.0413c0,-1.56953 -0.44538,-2.71486 -1.33619,-3.43598c-0.89081,-0.72116 -2.09974,-1.08168 -3.62685,-1.08168c-1.01807,0 -2.01492,0.12726 -2.99055,0.38178c-0.97568,0.25452 -1.82405,0.61508 -2.54517,1.08172v26.40615c-0.50903,0.12726 -1.31502,0.27573 -2.41791,0.44542c-1.0605,0.16965 -2.18461,0.25452 -3.37233,0.25452c-1.10293,0 -2.09974,-0.08487 -2.99055,-0.25452c-0.89081,-0.16969 -1.63314,-0.46664 -2.227,-0.89081c-0.5939,-0.46664 -1.0605,-1.08168 -1.39984,-1.84523c-0.33938,-0.80598 -0.50903,-1.84523 -0.50903,-3.11781v-22.77926c0,-1.35745 0.29691,-2.46034 0.89081,-3.30872c0.59386,-0.89081 1.37863,-1.69679 2.3543,-2.41791c1.73919,-1.18776 3.90258,-2.16339 6.49018,-2.92694c2.62999,-0.76355 5.53576,-1.14533 8.71722,-1.14533c5.72663,0 10.13824,1.25137 13.23488,3.75414c3.09659,2.50274 4.64495,5.98115 4.64495,10.43519v23.79733c-0.50903,0.12726 -1.31502,0.27573 -2.41791,0.44542c-1.0605,0.16965 -2.18461,0.25452 -3.37233,0.25452c-1.10293,0 -2.09974,-0.08487 -2.99055,-0.25452c-0.89081,-0.16969 -1.65436,-0.46664 -2.29065,-0.89081c-0.5939,-0.46664 -1.0605,-1.08168 -1.39984,-1.84523c-0.29695,-0.80598 -0.44538,-1.84523 -0.44538,-3.11781z"/></g></g></svg>