<svg version="1.1" xmlns="http://www.w3.org/2000/svg" xmlns:xlink="http://www.w3.org/1999/xlink" width="303.81923" height="121.75001" viewBox="0,0,303.81923,121.75001"><g transform="translate(-88.09038,-119.125)"><g data-paper-data="{&quot;isPaintingLayer&quot;:true}" fill-rule="nonzero" stroke-width="1" stroke-linecap="butt" stroke-linejoin="miter" stroke-miterlimit="10" stroke-dasharray="" stroke-dashoffset="0" style="mix-blend-mode: normal"><text transform="translate(101.89547,189.79878) rotate(3.32558) scale(1.10672,1.10672)" font-size="40" xml:space="preserve" fill="#ffffff" fill-rule="nonzero" stroke="none" stroke-width="1" stroke-linecap="butt" stroke-linejoin="miter" stroke-miterlimit="10" stroke-dasharray="" stroke-dashoffset="0" font-family="Pixel" font-weight="normal" text-anchor="start" style="mix-blend-mode: normal"><tspan x="0" dy="0">LEMONOIDS</tspan></text><path d="M215.25508,141.90337c3.31569,0.36167 2.50847,4.15095 4.99882,6.87679c5.82513,6.37594 12.76619,16.22584 11.32653,29.4241c-1.21166,11.10809 -10.08217,17.81278 -15.59142,23.515c-3.83516,3.9695 -3.63229,8.90823 -8.17625,8.41258c-4.1323,-0.45075 -2.88077,-5.13637 -5.67354,-9.13117c-4.68972,-6.70821 -11.9399,-15.3611 -10.65184,-27.16971c1.31431,-12.04916 11.90804,-19.65245 18.11235,-25.11718c3.49711,-3.08022 1.66435,-7.24574 5.65529,-6.81042z" fill="#ffff00" stroke="#000000"/><path d="M279.94547,147.57378c3.31569,0.36167 2.50847,4.15095 4.99882,6.87679c5.82513,6.37594 12.76619,16.22584 11.32653,29.4241c-1.21166,11.10809 -10.08217,17.81278 -15.59142,23.515c-3.83516,3.9695 -3.63229,8.90823 -8.17625,8.41258c-4.1323,-0.45075 -2.88077,-5.13637 -5.67354,-9.13117c-4.68973,-6.70822 -11.9399,-15.3611 -10.65184,-27.16971c1.31431,-12.04917 11.90803,-19.65245 18.11235,-25.11718c3.49711,-3.08022 1.66435,-7.24574 5.65529,-6.81042z" fill="#ffff00" stroke="#000000"/><path d="M88.6179,223.8118l0.73617,-12.97914l291.53143,16.53571l-0.73617,12.97913z" fill="#ffff00" stroke="#000000"/><path d="M99.11451,132.63164l0.73617,-12.97913l291.53143,16.5357l-0.73618,12.97914z" fill="#ffff00" stroke="#000000"/></g></g></svg>