<svg version="1.1" xmlns="http://www.w3.org/2000/svg" xmlns:xlink="http://www.w3.org/1999/xlink" width="27.80603" height="52.23973" viewBox="0,0,27.80603,52.23973"><g transform="translate(-226.097,-151.13014)"><g data-paper-data="{&quot;isPaintingLayer&quot;:true}" fill="#00c7ff" fill-rule="nonzero" stroke="#000000" stroke-width="0" stroke-linecap="square" stroke-linejoin="miter" stroke-miterlimit="10" stroke-dasharray="" stroke-dashoffset="0" style="mix-blend-mode: normal"><path d="M226.09701,165.82847c0,-2.5876 0.44542,-4.79339 1.33623,-6.61744c0.89081,-1.86644 2.09978,-3.39354 3.62689,-4.5813c1.5271,-1.18776 3.30872,-2.05735 5.34485,-2.60878c2.07853,-0.59386 4.28435,-0.89081 6.61744,-0.89081c3.73289,0 6.46896,0.50903 8.20819,1.5271c1.78162,0.97563 2.67243,2.65121 2.67243,5.02673c0,1.01807 -0.21212,1.93009 -0.63629,2.73608c-0.42421,0.80598 -0.89081,1.42106 -1.39984,1.84527c-0.93324,-0.25452 -1.93009,-0.4666 -2.99055,-0.63629c-1.01807,-0.21208 -2.227,-0.31813 -3.62685,-0.31813c-2.16339,0 -3.86019,0.38178 -5.09034,1.14533c-1.18776,0.72112 -1.78162,1.9937 -1.78162,3.81775v2.41791h12.47133c0.29691,0.55147 0.57268,1.25137 0.8272,2.09978c0.29691,0.84838 0.44542,1.78162 0.44542,2.79969c0,1.73919 -0.40299,3.01177 -1.20893,3.81775c-0.76355,0.76355 -1.80283,1.14533 -3.11781,1.14533h-8.78083v24.11549c-0.46664,0.12726 -1.25137,0.27573 -2.35426,0.44542c-1.10293,0.16969 -2.227,0.25452 -3.37233,0.25452c-1.14533,0 -2.16339,-0.08483 -3.0542,-0.25452c-0.84842,-0.16969 -1.59071,-0.4666 -2.227,-0.89081c-0.5939,-0.4666 -1.0605,-1.08168 -1.39984,-1.84523c-0.33938,-0.80598 -0.50903,-1.84523 -0.50903,-3.11781z"/></g></g></svg>