<svg version="1.1" xmlns="http://www.w3.org/2000/svg" xmlns:xlink="http://www.w3.org/1999/xlink" width="40.72278" height="48.54899" viewBox="0,0,40.72278,48.54899"><g transform="translate(-219.63861,-155.72551)"><g data-paper-data="{&quot;isPaintingLayer&quot;:true}" fill="#00c7ff" fill-rule="nonzero" stroke="#000000" stroke-width="0" stroke-linecap="square" stroke-linejoin="miter" stroke-miterlimit="10" stroke-dasharray="" stroke-dashoffset="0" style="mix-blend-mode: normal"><path d="M247.38087,179.9681c0,-4.45405 -0.65751,-7.89002 -1.97249,-10.30793c-1.27258,-2.46034 -3.09664,-3.69049 -5.47211,-3.69049c-2.41791,0 -4.24196,1.23015 -5.47211,3.69049c-1.23019,2.41791 -1.84523,5.85389 -1.84523,10.30793c0,4.45405 0.61508,7.91124 1.84527,10.37158c1.23015,2.4603 3.0542,3.69049 5.47211,3.69049c2.37548,0 4.19953,-1.23019 5.47211,-3.69049c1.31498,-2.46034 1.97253,-5.9175 1.97253,-10.37154zM260.36123,179.9681c0,3.90258 -0.50903,7.38099 -1.5271,10.43519c-1.01807,3.01177 -2.43913,5.55694 -4.26314,7.63551c-1.78162,2.03613 -3.92379,3.58445 -6.42653,4.64495c-2.50278,1.06046 -5.2176,1.59075 -8.14454,1.59075c-3.01181,0 -5.76906,-0.53025 -8.2718,-1.59071c-2.50278,-1.0605 -4.66617,-2.60878 -6.49018,-4.64491c-1.78162,-2.07857 -3.16024,-4.62374 -4.13588,-7.63551c-0.97568,-3.0542 -1.46345,-6.53261 -1.46345,-10.43519c0,-3.90262 0.48782,-7.35977 1.46349,-10.37154c0.97563,-3.01181 2.3543,-5.53572 4.13592,-7.57186c1.82401,-2.07857 3.9874,-3.6481 6.49018,-4.70856c2.50274,-1.0605 5.25999,-1.59071 8.2718,-1.59071c2.92694,0 5.64176,0.53025 8.14454,1.59075c2.50274,1.06046 4.64495,2.62999 6.42657,4.70856c1.82401,2.03613 3.24511,4.56009 4.26318,7.5719c1.01807,3.01177 1.5271,6.46896 1.5271,10.37158z"/></g></g></svg>