<svg version="1.1" xmlns="http://www.w3.org/2000/svg" xmlns:xlink="http://www.w3.org/1999/xlink" width="39.45024" height="48.54916" viewBox="0,0,39.45024,48.54916"><g transform="translate(-220.27488,-155.72542)"><g data-paper-data="{&quot;isPaintingLayer&quot;:true}" fill="#00c7ff" fill-rule="nonzero" stroke="#000000" stroke-width="0" stroke-linecap="square" stroke-linejoin="miter" stroke-miterlimit="10" stroke-dasharray="" stroke-dashoffset="0" style="mix-blend-mode: normal"><path d="M233.19155,193.58466c0.67873,0.21208 1.56953,0.36056 2.67243,0.44542c1.14533,0.04239 2.22704,0.06365 3.24511,0.06365c1.99374,0 3.66928,-0.40299 5.02673,-1.20893c1.35745,-0.84842 2.03613,-2.16339 2.03613,-3.94501c0,-1.65436 -0.57264,-2.84212 -1.71797,-3.56324c-1.10289,-0.72116 -2.79969,-1.08168 -5.09034,-1.08168h-6.17201zM233.19155,175.00492h5.53572c2.16339,0 3.73293,-0.40299 4.70856,-1.20893c1.01807,-0.80598 1.5271,-1.99374 1.5271,-3.56324c0,-1.35745 -0.57264,-2.43913 -1.71797,-3.24511c-1.14533,-0.80594 -2.86329,-1.20893 -5.15395,-1.20893c-0.76355,0 -1.63314,0.02122 -2.60878,0.06365c-0.97563,0.04243 -1.73919,0.12726 -2.29065,0.25452zM238.09102,204.27436c-0.84838,0 -1.86644,-0.02122 -3.0542,-0.06361c-1.14533,-0.04243 -2.35426,-0.14847 -3.62685,-0.31813c-1.23015,-0.12726 -2.46034,-0.31813 -3.69049,-0.57264c-1.18776,-0.21212 -2.29065,-0.53025 -3.30872,-0.95442c-2.75725,-1.0605 -4.13588,-2.90573 -4.13588,-5.53572v-35.5051c0,-1.06046 0.27573,-1.86644 0.8272,-2.41791c0.59386,-0.59386 1.39984,-1.06046 2.41791,-1.39984c1.73919,-0.63629 3.8814,-1.08168 6.42657,-1.33619c2.5876,-0.29691 5.26003,-0.44538 8.01728,-0.44538c6.49018,0 11.47448,1.10293 14.95289,3.30872c3.47841,2.16339 5.2176,5.51455 5.2176,10.05342c0,2.29065 -0.65751,4.26318 -1.97249,5.91754c-1.31498,1.65436 -3.07542,2.86334 -5.2812,3.62689c2.50278,0.67868 4.60252,1.97253 6.29931,3.8814c1.69679,1.86644 2.54517,4.19953 2.54517,6.99921c0,5.0479 -1.86644,8.78083 -5.59937,11.19874c-3.69049,2.37548 -9.03535,3.56324 -16.03456,3.56324z"/></g></g></svg>