<svg version="1.1" xmlns="http://www.w3.org/2000/svg" xmlns:xlink="http://www.w3.org/1999/xlink" width="41.04099" height="47.91274" viewBox="0,0,41.04099,47.91274"><g transform="translate(-219.47951,-156.04363)"><g data-paper-data="{&quot;isPaintingLayer&quot;:true}" fill="#00c7ff" fill-rule="nonzero" stroke="#000000" stroke-width="0" stroke-linecap="square" stroke-linejoin="miter" stroke-miterlimit="10" stroke-dasharray="" stroke-dashoffset="0" style="mix-blend-mode: normal"><path d="M260.52029,185.75838c0,2.71486 -0.4666,5.19638 -1.39984,7.44464c-0.9332,2.24826 -2.29065,4.17831 -4.07227,5.79028c-1.78162,1.61197 -3.94501,2.84212 -6.49018,3.69049c-2.50274,0.84842 -5.36607,1.27258 -8.58992,1.27258c-3.18146,0 -6.04476,-0.42417 -8.58992,-1.27258c-2.50274,-0.84838 -4.64491,-2.07853 -6.42653,-3.69049c-1.78162,-1.61193 -3.13903,-3.54202 -4.07227,-5.79024c-0.93324,-2.24822 -1.39984,-4.72978 -1.39984,-7.4446v-29.07853c0.55147,-0.08483 1.42106,-0.21208 2.60882,-0.38178c1.23015,-0.16965 2.41791,-0.25452 3.56324,-0.25452c1.14533,0 2.16339,0.08487 3.0542,0.25452c0.89081,0.16969 1.63314,0.48782 2.22704,0.95446c0.63629,0.46664 1.10289,1.10293 1.39984,1.90888c0.29695,0.80598 0.44542,1.86648 0.44542,3.18146v23.16104c0,2.41791 0.65751,4.32679 1.97249,5.72663c1.35745,1.35745 3.09664,2.03613 5.2176,2.03613c2.20583,0 3.96623,-0.67868 5.28125,-2.03613c1.31502,-1.39984 1.97253,-3.30872 1.97253,-5.72663v-28.82402c0.55147,-0.08483 1.42106,-0.21208 2.60882,-0.38178c1.23019,-0.16965 2.41791,-0.25452 3.56324,-0.25452c1.14533,0 2.16339,0.08487 3.0542,0.25452c0.89081,0.16969 1.63314,0.48782 2.22704,0.95446c0.5939,0.46664 1.03928,1.10293 1.33623,1.90888c0.33938,0.80598 0.50903,1.86648 0.50903,3.18146z"/></g></g></svg>