<svg version="1.1" xmlns="http://www.w3.org/2000/svg" xmlns:xlink="http://www.w3.org/1999/xlink" width="38.114" height="51.6034" viewBox="0,0,38.114,51.6034"><g transform="translate(-220.943,-163.4483)"><g data-paper-data="{&quot;isPaintingLayer&quot;:true}" fill="#00c7ff" fill-rule="nonzero" stroke="#000000" stroke-width="0" stroke-linecap="square" stroke-linejoin="miter" stroke-miterlimit="10" stroke-dasharray="" stroke-dashoffset="0" style="mix-blend-mode: normal"><path d="M240.03173,202.70746c-2.71482,0 -5.23881,-0.40299 -7.57186,-1.20893c-2.29065,-0.76355 -4.30557,-1.95131 -6.04476,-3.56324c-1.73919,-1.61193 -3.09659,-3.62685 -4.07227,-6.04476c-0.9332,-2.46034 -1.39984,-5.34485 -1.39984,-8.65357c0,-3.18146 0.50903,-6.00236 1.5271,-8.46267c1.01807,-2.46034 2.43913,-4.53891 4.26318,-6.23566c1.86648,-1.69679 4.09349,-2.96938 6.68109,-3.81775c2.63003,-0.84842 5.53576,-1.27258 8.71722,-1.27258c2.84212,0 5.49333,0.38178 7.95367,1.14533c2.50278,0.76355 4.41165,1.59075 5.72663,2.48156c1.01807,0.72112 1.80283,1.54832 2.3543,2.48156c0.5939,0.89081 0.89081,2.01492 0.89081,3.37237v41.35899c-0.50903,0.12726 -1.31498,0.27573 -2.41791,0.44542c-1.10289,0.21208 -2.24822,0.31817 -3.43598,0.31817c-1.10289,0 -2.09974,-0.08483 -2.99055,-0.25452c-0.89081,-0.16969 -1.63314,-0.48782 -2.227,-0.95442c-0.59386,-0.42421 -1.06046,-1.03928 -1.39984,-1.84523c-0.29691,-0.76355 -0.44538,-1.78162 -0.44538,-3.0542v-7.19008c-0.84838,0.33934 -1.80283,0.57268 -2.86329,0.69994c-1.06046,0.16969 -2.14218,0.25452 -3.24507,0.25452zM246.26739,174.32883c-0.4666,-0.21212 -1.01807,-0.38178 -1.65436,-0.50903c-0.59386,-0.16969 -1.2938,-0.25452 -2.09974,-0.25452c-2.71482,0 -4.8146,0.80594 -6.29927,2.41791c-1.48467,1.56949 -2.227,3.94501 -2.227,7.12647c0,3.35115 0.69994,5.76906 2.09978,7.25373c1.44228,1.44228 3.45719,2.16339 6.0448,2.16339c1.73923,0 3.11785,-0.36056 4.13592,-1.08168z"/></g></g></svg>