<svg version="1.1" xmlns="http://www.w3.org/2000/svg" xmlns:xlink="http://www.w3.org/1999/xlink" width="35.9504" height="50.90325" viewBox="0,0,35.9504,50.90325"><g transform="translate(-222.0248,-152.04837)"><g data-paper-data="{&quot;isPaintingLayer&quot;:true}" fill="#00c7ff" fill-rule="nonzero" stroke="#000000" stroke-width="0" stroke-linecap="square" stroke-linejoin="miter" stroke-miterlimit="10" stroke-dasharray="" stroke-dashoffset="0" style="mix-blend-mode: normal"><path d="M257.9752,195.57063c-0.25452,2.37548 -0.95442,4.19953 -2.09974,5.47211c-1.10289,1.27258 -2.75725,1.90888 -4.96308,1.90888c-1.61193,0 -3.0542,-0.38178 -4.32679,-1.14533c-1.27258,-0.80598 -2.62999,-2.14218 -4.07227,-4.00862l-7.57186,-9.48073v13.87117c-0.55143,0.08483 -1.37863,0.21208 -2.48152,0.38178c-1.06046,0.21208 -2.14218,0.31817 -3.24507,0.31817c-1.14533,0 -2.16339,-0.08487 -3.0542,-0.25452c-0.84838,-0.16969 -1.59071,-0.46664 -2.227,-0.89081c-0.59386,-0.46664 -1.06046,-1.08168 -1.39984,-1.84523c-0.33934,-0.80598 -0.50903,-1.84523 -0.50903,-3.11781v-43.96777c0.5939,-0.16969 1.42106,-0.33938 2.48156,-0.50903c1.10293,-0.16969 2.20583,-0.25452 3.30872,-0.25452c1.10293,0 2.09978,0.08483 2.99059,0.25452c0.89081,0.12726 1.63314,0.42417 2.22704,0.89081c0.63629,0.42417 1.10293,1.03928 1.39984,1.84527c0.33938,0.76355 0.50903,1.78162 0.50903,3.0542v20.10683l13.10762,-13.42574c2.63003,0 4.72978,0.59386 6.29931,1.78162c1.61197,1.14533 2.41791,2.60882 2.41791,4.39044c0,0.76355 -0.12726,1.46349 -0.38178,2.09978c-0.25452,0.63629 -0.65751,1.2938 -1.20893,1.97253c-0.50903,0.63629 -1.18772,1.33623 -2.03613,2.09978c-0.80594,0.72112 -1.78162,1.54832 -2.92694,2.48156l-4.3904,3.81775z"/></g></g></svg>