<svg version="1.1" xmlns="http://www.w3.org/2000/svg" xmlns:xlink="http://www.w3.org/1999/xlink" width="24.05189" height="46.19477" viewBox="0,0,24.05189,46.19477"><g transform="translate(-227.97407,-156.90261)"><g data-paper-data="{&quot;isPaintingLayer&quot;:true}" fill="#00c7ff" fill-rule="nonzero" stroke="#000000" stroke-width="0" stroke-linecap="square" stroke-linejoin="miter" stroke-miterlimit="10" stroke-dasharray="" stroke-dashoffset="0" style="mix-blend-mode: normal"><path d="M240.76348,189.28977c0,1.31498 0.40299,2.24822 1.20898,2.79969c0.84842,0.55143 2.03613,0.8272 3.56324,0.8272c0.76355,0 1.54832,-0.06361 2.3543,-0.19087c0.80598,-0.12726 1.5271,-0.29695 2.16339,-0.50903c0.42421,0.55143 0.80598,1.18772 1.14533,1.90888c0.33938,0.67868 0.50903,1.48467 0.50903,2.41791c0,1.95127 -0.72112,3.54202 -2.16339,4.77221c-1.44224,1.18772 -3.9874,1.78162 -7.63551,1.78162c-4.45405,0 -7.89002,-1.01807 -10.30793,-3.0542c-2.41791,-2.03613 -3.62685,-5.32364 -3.62685,-9.86251v-32.51451c0.5939,-0.16969 1.39984,-0.33938 2.41791,-0.50903c1.0605,-0.16969 2.16339,-0.25452 3.30872,-0.25452c2.24826,0 3.98744,0.40299 5.2176,1.20898c1.23019,0.76355 1.84527,2.41791 1.84527,4.96308v4.83582h9.92616c0.33938,0.55143 0.63629,1.25137 0.89081,2.09978c0.29695,0.84838 0.44542,1.78162 0.44542,2.79969c0,1.73919 -0.40299,3.01177 -1.20893,3.81775c-0.76355,0.76355 -1.80283,1.14533 -3.11781,1.14533h-6.93556z"/></g></g></svg>