<svg version="1.1" xmlns="http://www.w3.org/2000/svg" xmlns:xlink="http://www.w3.org/1999/xlink" width="21.07936" height="21.07936" viewBox="0,0,21.07936,21.07936"><defs><linearGradient x1="229.46032" y1="180" x2="250.53968" y2="180" gradientUnits="userSpaceOnUse" id="color-1"><stop offset="0" stop-color="#ff0000"/><stop offset="1" stop-color="#cc00ff"/></linearGradient><linearGradient x1="233.80357" y1="180" x2="246.19643" y2="180" gradientUnits="userSpaceOnUse" id="color-2"><stop offset="0" stop-color="#ff0000"/><stop offset="1" stop-color="#cc00ff"/></linearGradient></defs><g transform="translate(-229.46032,-169.46032)"><g data-paper-data="{&quot;isPaintingLayer&quot;:true}" fill-rule="nonzero" stroke="none" stroke-width="0" stroke-linecap="butt" stroke-linejoin="miter" stroke-miterlimit="10" stroke-dasharray="" stroke-dashoffset="0" style="mix-blend-mode: normal"><path d="M229.46032,180c0,-5.8209 4.71878,-10.53968 10.53968,-10.53968c5.8209,0 10.53968,4.71878 10.53968,10.53968c0,5.8209 -4.71878,10.53968 -10.53968,10.53968c-5.8209,0 -10.53968,-4.71878 -10.53968,-10.53968z" fill="url(#color-1)"/><path d="M233.80357,180c0,-3.42219 2.77424,-6.19643 6.19643,-6.19643c3.42219,0 6.19643,2.77424 6.19643,6.19643c0,3.42219 -2.77424,6.19643 -6.19643,6.19643c-3.42219,0 -6.19643,-2.77424 -6.19643,-6.19643z" fill="url(#color-2)"/></g></g></svg>